<svg width="136" height="74" viewBox="0 0 136 74" fill="none" xmlns="http://www.w3.org/2000/svg">
<g clip-path="url(#clip0_239_1963)">
<path d="M64.439 50.2516C62.3499 50.4865 60.1046 50.4564 58.5824 50.374C56.6496 50.2596 52.9883 48.9302 52.8481 50.852C52.774 51.7938 54.15 52.8922 54.7649 53.4906C55.6261 54.338 59.0791 55.1774 57.8153 56.8401C56.6236 57.9425 54.7929 54.8561 53.9196 54.2055C52.4916 53.1432 51.3619 52.3219 50.0941 50.9704C48.5478 49.3158 43.3683 46.9422 45.916 45.5727C48.6159 44.3217 49.1166 47.4583 56.1929 47.2555C61.1482 47.1149 66.2816 46.6832 69.939 45.5727C71.8517 44.9964 73.382 44.1851 74.7199 43.5445C75.5091 43.157 78.0007 41.9441 78.5455 41.6308C79.0342 41.3377 80.975 40.1449 81.4177 39.8276C81.8944 39.4822 82.5113 39.3296 82.9659 38.9882C84.1937 38.0625 85.3875 36.7532 86.5532 35.6387C87.7616 34.4854 88.8798 33.2408 89.898 31.9157C90.7072 30.8615 91.6266 29.6165 92.1713 28.5622C93.0426 26.8634 93.4071 24.542 94.9173 23.4095C95.9268 22.6564 99.0674 21.3853 99.5721 21.0138C101.062 19.9355 102.026 19.4495 103.159 18.0218C103.922 17.0579 104.94 15.7707 105.194 14.7908C105.867 12.2525 104.161 9.17012 103.402 7.95924C102.564 6.59776 98.1761 3.6017 97.7955 3.39888C94.9834 2.01531 89.3072 1.939 86.1966 3.39888C85.7079 3.62981 83.5167 4.97523 83.0841 5.32062C82.333 5.92505 82.325 8.09379 80.8188 7.12388C79.1404 5.6881 82.0666 5.0917 82.7236 4.36276C83.4506 3.55953 85.5237 1.939 85.9463 1.72414C86.6753 1.36268 90.9355 0.151804 92.4137 0.0534082C94.5288 -0.103223 96.3875 0.111643 98.0279 0.64981C99.9747 1.28838 101.497 2.04141 102.683 2.92899C103.097 3.22217 106.226 6.63592 107.466 7.4753C109.406 8.81268 113.314 8.45926 114.997 9.87496C115.067 10.5497 114.229 11.1802 114.398 12.0316C114.504 12.5578 115.141 12.6521 115.714 13.2285C116.331 13.853 117.426 15.2084 117.747 15.7466C117.963 16.1081 119.417 18.3752 119.774 19.2206C119.988 19.7065 121.308 22.2367 121.572 22.9315C122.063 24.277 122.219 26.1164 122.648 27.8453C123.459 31.1707 123.775 34.8315 123.483 38.8697C123.385 40.2854 124.785 44.0225 122.059 42.9481C119.758 42.5164 121.572 39.693 121.572 38.0344C121.546 32.5784 121.612 27.4056 119.655 22.9315C118.74 21.7548 118.251 19.0218 117.196 18.9937C116.479 19.9977 116.625 23.2247 116.675 24.2609C116.781 26.779 116.589 29.8153 115.838 31.9197C115.497 32.8575 114.808 33.717 114.528 34.6728C114.233 35.5985 112.575 38.8336 112.369 39.8296C112.251 40.422 111.277 42.7754 110.819 43.4301C110.292 44.151 110.111 46.4844 109.136 45.2233C108.655 43.0184 107.756 42.2272 105.791 43.0666C103.191 44.1771 100.68 47.0246 99.9447 49.8941C98.829 54.2195 102.096 58.3743 104.595 59.6012C105.785 60.1856 107.85 60.0831 107.944 61.5149C106.554 62.2639 104.399 61.8924 102.815 61.1615C102.116 60.8442 100.82 59.8402 100.057 59.1213C98.2662 57.4345 97.3689 55.3802 97.0645 52.5327C96.6939 48.9945 98.14 46.4764 99.466 44.8659C100.451 43.6429 103.7 41.4059 104.838 41.1509C106.368 40.8015 107.974 41.5585 109.623 40.9119C110.588 40.5244 110.624 38.8677 111.293 37.3195C111.622 36.5243 112.148 35.958 112.369 35.3977C112.673 34.5784 114.229 29.9257 114.528 28.3273C115.403 23.4135 116.154 16.9374 113.679 13.4714C111.151 13.3489 109.825 14.4996 108.902 16.1061C108.475 16.8511 108.527 17.8671 108.06 18.5017C105.791 21.6423 102.334 24.8673 101.97 25.0942C100.253 26.1405 98.5246 26.6746 97.5412 28.0863C97.1506 28.6586 97.1666 29.3835 96.8261 30C96.5637 30.49 94.691 33.3957 93.9579 34.3134C93.5554 34.8274 93.3571 35.4118 93.0086 35.8737C92.1593 36.9881 90.8054 37.9882 89.898 38.8657C89.5155 39.2392 88.0994 40.4782 87.7509 40.7834C87.3784 41.0967 85.6879 42.5124 85.1131 42.9441C84.0535 43.7474 83.697 44.0265 82.1327 44.6189C80.1719 46.7374 76.2922 45.3217 77.3518 49.0547C77.5721 49.8319 79.575 51.5327 77.9466 51.9303C77.1575 52.1231 76.4605 50.6351 76.0298 50.2516C75.6553 49.9182 74.2192 48.9543 73.5182 48.8158C72.0901 48.5326 71.0506 49.376 69.939 49.6511C68.593 49.9825 66.3017 50.0407 64.439 50.2516Z" fill="#BFE142"/>
<path d="M122.266 49.7011C122.382 48.3878 125.012 50.2613 125.309 50.7955C125.583 51.2895 125.876 51.8316 125.289 52.169C124.71 52.5023 124.582 52.4321 124.582 52.4321C124.413 52.1409 122.911 52.2513 122.649 52.0043C122.166 51.5445 122.19 50.5083 122.266 49.7011ZM124.976 55.4663C124.976 55.4663 125.185 54.8116 125.966 54.8357C126.761 54.8598 126.294 55.8679 126.356 56.0205C126.356 56.0205 126.248 56.7274 125.95 57.0868C125.685 57.4041 124.84 57.6049 124.554 57.2153C124.233 56.7916 124.916 55.9603 124.976 55.4663ZM111.292 49.5324C111.144 49.8035 108.993 53.8237 109.622 56.6109C109.782 57.3278 110.081 60.2315 111.05 61.0789C111.567 61.5809 113.139 62.6311 113.678 62.9504C114.171 63.2476 115.036 63.4926 115.713 63.8018C116.915 64.328 118.951 64.9585 120.852 64.3942C121.561 64.1854 124.151 63.2255 124.435 63.0769C124.944 62.8098 126.881 60.7355 127.426 59.2415C128.001 57.6451 129.228 55.9783 128.618 53.4963C128.489 52.9742 126.855 49.4762 125.629 48.3436C125.211 47.94 124.882 47.3637 124.558 47.1428C123.851 46.6769 123.047 46.6769 122.527 45.9459C122.172 45.464 120.376 45.2793 119.418 45.5765C118.188 45.9761 116.977 45.6789 115.959 46.0584C115.224 46.3415 114.429 46.8476 113.8 47.2592C113.045 47.7552 111.783 48.685 111.292 49.5324ZM75.7806 5.979C75.7806 4.08939 77.6614 4.7119 77.6273 5.57537C77.9838 6.7742 75.8267 7.00513 75.7806 5.979ZM108.422 46.1829C109.96 46.5986 108.618 48.9279 107.711 47.9821C106.435 47.4701 107.449 45.6427 108.422 46.1829ZM47.3532 69.551C49.1999 67.6915 51.319 65.8521 53.2017 64.2798C53.9989 63.6131 54.5677 62.8761 55.2407 62.358C55.6553 62.0327 56.2482 61.9705 56.6748 61.6452C57.0193 61.366 58.6777 58.8559 59.6611 58.0447C62.0586 57.4322 63.677 55.9502 65.9944 54.5707C66.6433 54.1871 67.4064 54.1148 67.9032 53.8538C68.498 53.5405 69.2371 52.4341 69.824 53.1329C68.4239 53.404 68.6843 54.5807 68.0233 55.5325C67.6748 56.0466 66.9798 56.0808 66.4751 56.4904C65.5157 57.2595 64.8948 58.3017 64.2018 59.125C61.7422 60.7455 59.527 62.8701 57.2697 64.6352C56.4885 65.2517 55.7795 66.0268 54.9964 66.5569C54.5777 66.8361 53.1236 67.9265 52.7331 68.2357C52.2043 68.6353 51.4171 68.8903 50.8163 69.314C50.1934 69.7498 48.3867 70.9064 48.0643 71.1073C47.4854 71.4687 47.1229 72.1977 46.512 72.543C46.0653 72.7981 44.9237 74.6756 43.762 73.7479C40.9499 72.1153 45.8711 71.0249 47.3532 69.551ZM99.1026 11.3085C100.27 11.5474 101.662 12.8025 100.821 14.0575C100.603 14.3668 99.9999 14.4652 99.363 13.8487C98.4356 12.9691 97.2419 15.0917 96.4688 14.0836C96.4047 13.8487 96.3386 13.6178 96.3466 13.3467C96.4127 12.0454 97.4342 10.9751 99.1026 11.3085ZM1.09786 34.1926C1.64266 33.4034 1.92707 32.1142 2.64011 31.56C3.10479 31.1986 4.31054 30.7528 5.27595 30.4776C6.53178 30.1323 8.30436 29.9676 9.93874 29.7668C11.6012 29.5519 13.1194 29.1122 14.3552 28.8049C15.9475 28.4013 17.4997 28.2206 17.4697 26.7607C17.4457 25.5719 16.276 25.3952 15.6771 24.608C15.4087 24.2506 15.2705 23.6321 14.9621 23.1763C14.1629 21.9995 12.8069 19.8348 13.2836 18.0195C13.518 17.144 15.4548 14.8266 16.3981 14.6579C18.1467 14.3527 20.3219 15.8548 22.0043 16.3367C23.3603 16.7283 24.7143 16.897 25.9581 17.1801C29.5333 17.9954 33.2267 18.5878 37.557 18.8548C42.6263 19.1721 47.2871 19.9131 50.5839 17.5375C48.6271 16.5094 45.7869 16.5536 42.8026 16.2202C40.8698 16.0094 36.0588 15.7142 36.0007 13.937C35.9386 12.5213 38.8869 11.5053 39.8223 10.949C40.4171 10.5835 40.7797 10.0193 41.2543 9.74818C42.0355 9.30439 42.8627 9.29636 43.8782 8.9088C44.7114 8.59955 45.3723 8.01921 46.2696 7.70796C47.5756 7.26016 49.4803 7.11959 51.4171 6.63765C54.8602 5.77016 58.6937 5.50911 62.8919 5.79024C63.9153 5.86454 66.2548 6.03322 66.8336 6.51114C68.0514 7.53928 66.8156 8.81642 67.1861 10.2261C67.5727 11.6779 70.8434 12.2181 73.0466 13.2222C73.7457 13.5515 74.0521 13.9471 74.6029 14.3045C76.039 15.2423 77.0365 15.7323 78.2963 17.0536C79.7985 18.6139 80.3393 19.7746 81.0543 21.6079C81.3287 22.2867 81.6752 23.0437 81.7693 23.7686C82.212 27.094 80.4094 29.9114 79.0234 31.558C77.6854 33.1464 76.4035 33.1002 74.008 33.5942C72.6821 33.8613 71.4864 34.1705 70.3006 34.3111C63.7751 35.0963 57.8565 34.4476 52.008 34.5581C52.8492 34.9617 53.35 35.9858 54.2813 36.4718C55.8696 37.3031 58.6937 37.3654 61.0992 37.5501C63.6309 37.7389 66.1847 37.9698 68.2617 38.0281C64.6284 41.1145 57.1335 41.1024 50.5839 40.7811C48.1464 40.6667 45.9211 40.5964 43.762 40.3072C41.4526 39.99 39.7762 39.1425 37.9055 38.751C36.876 38.5281 36.0007 38.5702 35.1595 38.273C34.2121 37.9317 33.3909 37.257 32.5216 36.9557C31.6924 36.6545 30.9313 36.5682 30.2543 36.2348C29.5974 35.9015 29.1267 35.3533 28.4617 35.03C27.997 34.8111 27.4683 34.791 27.0296 34.5601C25.5435 33.7368 23.7088 31.5239 21.772 31.56C20.7986 31.5801 20.0274 32.3673 19.1481 32.6384C17.4256 33.1645 15.6811 33.1283 13.8865 33.8392C12.1219 34.534 10.4194 34.6585 8.62883 35.032C5.76466 35.6324 3.13283 37.6044 0.140469 37.0722C-0.364266 35.7549 0.617163 34.8834 1.09786 34.1926ZM65.5017 59.866C65.768 60.2315 66.2407 60.3319 66.6994 60.5046C66.9278 60.2962 67.2092 60.1551 67.5126 60.0969C68.7604 59.9162 70.3988 61.0588 70.3768 62.1371C70.3607 63.101 69.2331 63.4464 68.7023 64.2898C68.3057 64.9324 68.5341 65.4344 67.8691 65.8541C67.4073 65.8278 66.9596 65.6845 66.568 65.4376C66.1764 65.1907 65.8536 64.8483 65.6298 64.4424C65.2713 64.3179 64.8948 64.1754 64.5002 64.1593C63.7491 64.1272 63.4366 64.575 62.7356 64.2015C61.7862 62.2195 63.2704 60.2013 65.5017 59.866ZM398.3 43.8776C397.717 46.1949 397.743 47.4701 395.853 48.6468C394.104 49.7091 393.597 50.3918 391.621 50.7172C390.373 50.928 387.801 51.5284 386.527 51.6549C380.564 52.2433 378.029 50.9802 374.672 50.8156C370.388 50.6107 368.627 48.7211 367.045 43.3957C366.001 39.8534 366.542 37.7007 366.123 34.1504C365.777 31.3472 365.619 27.5659 366.033 24.6783C366.244 23.2124 366.109 21.6461 367.045 19.5436C367.686 18.1199 368.461 16.9431 369.989 16.413C373.877 15.0596 375.087 14.9069 379.231 15.1118L381.981 15.0957C383.753 15.0596 385.776 15.2363 387.531 15.3668C390.148 15.5716 392.131 16.0415 394.603 17.0014C396.732 17.8207 396.165 19.2725 397.099 21.4453C398.124 23.8229 398.084 26.8531 398.16 29.4495C398.264 34.1926 399.484 39.1626 398.3 43.8776ZM413.172 25.6703C411.498 23.0317 409.697 20.5878 407.097 18.6621C406.296 18.0777 402.651 15.8588 401.942 15.5214C400.702 14.9411 394.931 12.6117 393.105 12.2C389.62 11.4109 375.786 11.8205 373.765 12.0153C370.458 12.3446 363.898 15.0114 362.729 15.5214C362.016 15.8307 358.16 18.0978 357.389 18.6661C356.758 19.1179 353.745 21.8308 353.339 22.3529C352.722 23.118 350.102 27.0679 349.844 27.8872C348.768 31.2046 348.961 36.3754 349.844 39.1466C350.302 40.6125 352.934 44.3636 353.339 44.8736C354.046 45.7451 355.756 47.0504 357.018 48.0082C358.693 49.2713 360.934 50.9019 362.362 51.5144C363.351 51.926 367.768 53.8317 368.992 54.2875C372.891 55.7354 380.987 54.9622 381.278 54.9783C382.017 55.0325 388.264 55.3518 390.345 55.2052C394.393 54.9341 401.267 51.8758 402.12 51.5144C402.895 51.1891 406.825 48.6348 407.64 48.0082C408.231 47.5564 410.939 45.1487 411.329 44.6869C411.916 43.9961 414.564 39.5482 414.822 38.7771C416.405 33.9818 414.931 28.4716 413.172 25.6703ZM613.866 39.9739C613.289 40.2048 612.182 40.1787 611.547 40.1787C607.373 40.1787 603.189 40.1285 599.015 40.1004C597.889 40.1004 595.301 40.1827 596.09 38.6184C596.593 37.5983 596.715 36.5561 597.188 35.5039C597.905 33.9235 598.71 32.5821 599.147 30.8993C599.481 29.6242 600.062 28.323 600.583 27.1181C601.028 26.094 601.346 25.2546 601.55 24.1642C601.821 22.7325 602.652 21.2706 603.257 19.9513C603.675 19.0456 604.961 15.0756 605.857 16.8688C606.163 17.4653 606.762 19.1079 607.066 19.7364C607.559 20.7364 607.888 21.867 608.306 22.9212C609.294 25.4855 610.467 27.9836 611.371 30.5921C611.725 31.6082 611.845 32.7568 612.282 33.7609C612.664 34.6364 612.861 35.542 613.193 36.4236C613.476 37.0983 613.716 37.9538 613.812 38.6787C613.894 39.1948 614.369 39.7791 613.866 39.9739ZM639.047 53.5405C639.133 51.0585 637.837 52.8779 636.625 50.9521C636.207 50.2734 636.161 49.1408 635.722 48.1829C635.097 46.9319 633.357 43.3073 633.132 42.6527C632.62 41.1105 631.362 40.0201 630.737 38.5943C630.216 37.3714 628.371 33.2046 627.979 32.315C627.448 31.1423 624.98 25.9293 624.468 24.3811C623.677 21.867 622.381 20.389 621.72 18.4713C621.477 17.7464 621.173 16.7343 620.891 16.0355C619.799 13.2824 617.996 12.7844 615.098 12.937C609.628 13.2302 599.377 12.443 595.019 12.5756C594.356 12.5836 591.694 12.7121 592.449 14.5555C592.701 17.0034 601.708 14.2804 601.278 16.0736C600.703 18.5797 599.099 24.4715 596.325 29.1503C596.325 29.1503 593.975 33.2247 593.537 35.0179C593.537 35.0179 591.512 39.1626 590.34 41.5201C589.809 42.3234 589.531 43.235 589.176 44.2351C588.94 44.8983 588.757 45.5792 588.628 46.2713C588.503 46.9841 587.902 47.1809 587.59 47.8396C587.079 48.95 586.374 49.7452 585.671 51.0605C585.349 51.6449 584.582 51.928 583.979 52.2453C581.595 52.426 579.626 52.9361 579.56 53.7273C579.496 55.9623 582.767 55.1309 584.387 55.0446C587.472 54.8438 592.445 55.6289 592.445 53.918C592.445 53.5606 592.623 52.9341 592.139 52.6911C591.608 52.424 591.279 52.4722 590.228 52.408C589.947 52.3839 589.138 52.3377 589.391 51.5927C589.641 50.8718 589.865 50.2432 590.116 49.5886C590.628 48.3095 591.522 46.7913 592.014 45.5182C592.529 44.221 593.637 43.2089 594.744 43.1647C598.173 43.0704 600.026 43.1366 603.854 43.2069C607.249 43.2651 610.884 42.5804 613.666 42.9639C614.888 43.1406 615.503 43.2611 616.174 44.9299C616.776 46.4359 617.488 48.201 618.074 49.938C618.261 50.4722 618.261 50.4822 618.427 51.0003C619.126 52.7654 613.211 50.7995 614.171 53.918C614.774 55.5848 616.879 54.4663 618.399 54.412C623.859 54.1891 631.226 54.0164 636.992 54.2875C638.973 54.3719 639.047 54.396 639.047 53.5405ZM451.314 50.3557C450.33 50.43 449.216 50.4963 448.622 50.4963C446.004 50.4963 443.394 50.7352 440.818 50.6248C438.805 50.5143 429.512 51.1188 428.807 50.5585C427.325 48.9199 429.738 46.3415 430.451 44.8636C431.489 42.6788 432.035 40.5462 432.897 38.255C433.818 35.8109 434.708 33.3555 435.569 30.8893C436.598 27.9234 438.022 24.8932 439.216 22.0417C439.727 20.8328 440.28 19.1902 440.656 18.0376C440.96 17.0576 442.242 15.6218 442.971 18.5717C444.101 23.1963 445.453 27.9013 447.075 32.3853C448.187 35.3774 450.925 44.4298 451.43 45.9038C451.66 46.6026 452.157 47.5745 452.469 48.3677C452.684 48.8938 453.375 50.1991 451.314 50.3557ZM480.392 51.9521C478.9 51.3838 475.463 51.7834 473.646 51.2453C472.258 50.8296 472.901 50.8758 471.847 49.1187C471.281 48.1609 469.658 44.4439 469.089 43.2049C468.737 42.4519 466.331 38.251 465.767 36.9377C465.158 35.4557 463.802 31.4817 463.565 30.8431C463.035 29.3491 460.008 23.9755 459.373 22.8228C459.085 22.3007 457.314 18.6822 456.523 15.5274C455.936 13.1539 453.25 12.8125 452.641 12.8246C445.153 13.1218 436.993 12.8707 430.135 12.7503C429.51 12.7503 427.609 12.7623 427.565 14.3467C427.423 18.4211 431.563 16.1279 433.341 16.3588C434.737 16.4451 437.253 16.2263 437.57 16.8889C437.874 17.5556 436.524 20.877 435.715 22.1762C434.898 23.4775 433.434 25.7145 432.714 27.9736C432.007 30.2166 428.502 37.9437 428.05 39.6526C427.591 41.3695 425.788 45.8255 425.7 46.2692L424.17 51.0023C423.255 51.9742 420.845 51.5043 419.587 51.7232C418.71 51.8718 416.835 51.3738 415.834 51.6529C414.149 52.1228 413.529 54.5908 412.976 56.1952C412.341 57.9945 411.75 59.0929 411.98 61.1733C411.938 61.856 413.206 62.4323 413.981 62.4323C414.9 62.4323 417.735 62.3661 417.618 61.4986C417.592 60.7455 417.326 59.4162 417.52 58.117C418.84 53.7353 418.4 55.0145 420.745 55.2032C422.449 55.3317 427.701 55.0586 430.057 55.1048C438.473 55.2735 445.337 54.5827 454.712 54.4542C459.361 54.392 465.921 54.2072 470.481 54.5165C474.127 54.7715 476.118 53.649 476.332 55.392C476.791 56.1651 478.275 60.3841 478.275 61.1692C478.207 61.9022 480.125 62.5307 481.636 62.4283C483.935 62.2677 483.861 61.4243 483.751 60.7616C483.056 57.7756 481.698 52.655 480.392 51.9521ZM575.436 40.7149C573.143 40.2048 573.61 43.5784 570.006 45.9741C569.303 46.4339 566.385 48.3235 565.414 48.7472C564.394 49.195 560.2 50.6107 559.243 50.9822C557.586 51.6569 554.856 51.8216 552.609 52.1509C550.44 52.4682 544.377 52.4843 542.963 52.1509C541.22 51.7553 538.218 51.7714 537.11 51.3236C535.546 50.7151 533.207 48.9621 532.966 46.8415C532.34 41.7551 532.872 37.9277 532.872 33.6404C532.872 29.1503 531.669 23.7325 533.153 20.3649C534 18.397 535.602 15.8146 537.595 14.9752C543.436 12.4772 558.704 16.2584 559.507 14.5957C560.701 11.5675 554.111 12.0153 550.852 12.0153C547.229 12.0153 543.073 11.3326 539.991 11.6458C536.235 12.0253 533.493 12.3587 529.982 13.686C528.624 14.1961 527.012 14.9953 525.818 15.5214C525.091 15.8427 520.332 19.0938 518.636 20.6862C516.641 22.5798 513.828 25.608 512.925 28.2567C511.938 31.1905 512.012 37.018 512.925 39.1486C514.069 41.7872 520.424 49.4641 525.255 51.5144C526.032 51.8517 532.464 54.3779 534.146 54.6871C540.173 55.7534 554.053 56.5265 557.586 55.2755C558.488 54.9502 563.679 53.3698 565.348 52.1529C567.034 50.9441 568.65 50.1991 569.806 49.9601C572.29 49.446 571.851 50.4039 574.234 50.7754C576.342 51.1409 577.401 45.0303 577.505 41.8494C577.541 40.7008 576.209 40.8293 575.436 40.7149ZM489.962 29.0238C485.049 30.6664 485.992 37.755 490.416 38.5502C498.873 40.0924 498.811 26.0699 489.962 29.0238ZM324.196 35.8453C323.886 36.9397 321.791 39.9357 318.376 40.0502C317.12 40.0924 314.965 40.2771 313.661 40.1787C311.47 40.0261 311.748 40.0141 309.405 40.0261C306.975 40.0341 306.358 38.4096 306.388 34.0962C306.388 32.3813 306.366 27.6121 306.358 25.9313C306.298 19.9031 305.059 16.3849 309.886 16.3849C311.568 16.3849 313.641 16.2363 315.364 16.421C317.15 16.6018 321.993 15.8166 323.427 17.8247C324.667 19.5356 325.915 22.375 325.915 27.3711C325.923 31.7528 324.96 33.2568 324.196 35.8453ZM336.743 17.3608C334.287 15.5636 333.676 15.3367 330.466 14.411C329.434 14.1097 328.268 13.6117 327.163 13.3085C321.494 11.7824 312.173 12.5836 305.816 12.935C297.455 13.4009 288.967 12.3707 282.43 12.5736C281.38 12.5936 277.619 11.9852 277.172 14.2905C276.667 19.5778 286.788 15.2001 288.256 17.0235C288.675 17.5295 288.631 18.2384 288.685 19.5758C288.847 23.2425 288.498 28.6443 288.498 34.1625C288.498 39.4839 288.983 45.0664 288.498 49.1167C288.408 49.8898 287.966 51.426 287.769 51.6931C285.798 54.2654 279.752 50.5003 279.489 53.7213C279.752 56.5808 284.39 55.0125 286.984 54.9442C294.77 54.7293 303.807 54.8859 310.21 55.2273C311.586 55.3056 314.923 55.6751 314.653 53.5486C314.25 51.0103 307.889 54.6892 306.364 51.3296C305.631 49.7252 305.631 46.0002 306.555 44.4901C307.72 42.5764 313.19 43.1607 315.934 43.2029C317.797 43.239 320.313 43.5603 322.193 43.5724C331.419 43.6226 335.621 40.1084 336.372 39.7048C336.939 39.3875 339.947 36.9638 340.432 36.3794C340.879 35.8232 342.705 32.8231 342.994 32.1323C343.867 30.078 343.969 27.343 343.366 25.1161C342.463 21.7686 339.118 19.1199 336.743 17.3608ZM565.047 18.0657C566.659 18.6862 568.162 19.4653 569.436 20.6822C571.525 21.9413 571.841 27.7808 575.987 25.8872C576.908 25.5699 575.967 17.16 574.048 16.8146C571.683 16.415 570.295 17.4311 567.925 16.415C567.132 16.0736 566.017 15.1058 565.121 14.6379C563.437 13.7664 561.889 16.8146 565.047 18.0657ZM206.906 11.7281C205.399 11.3747 202.371 12.7523 200.052 12.7523C186.598 12.7402 166.056 13.5716 154.587 12.5756C153.718 12.5013 152.568 12.3125 152.13 13.8105C151.329 18.3086 159.112 14.0254 160.678 16.2343C161.097 16.8468 161.135 17.9331 161.205 19.0275C161.594 23.8369 160.933 28.4796 161.033 33.4215C161.135 38.5562 161.459 42.8977 161.205 47.8235C161.143 49.1207 160.764 51.1148 160.474 51.5144C158.848 53.8397 152.182 50.93 152.182 53.7273C151.681 56.0145 155.593 54.8639 157.622 54.7896C164.786 54.4924 173.964 54.7936 181.094 54.9422C183.187 54.9783 187.419 55.9382 187.139 53.663C187.419 50.7874 180.569 54.3337 178.895 51.5144C178.02 50.0746 178.336 46.6909 178.336 43.7531C178.336 34.1685 177.637 24.359 178.566 17.2082C179.045 15.7022 185.386 15.674 189.254 15.674C192.655 15.674 198.189 15.2624 200.803 15.7162C202.191 15.9431 201.894 16.646 202.063 17.8809C202.325 19.7866 202.379 23.0256 206.213 22.7244C207.821 22.6501 206.944 18.8026 207.418 17.5516C208.568 14.4973 208.61 12.1559 206.906 11.7281ZM677.515 50.3557C676.536 50.43 675.438 50.4963 674.813 50.4963C672.223 50.4963 669.603 50.7352 667.022 50.6248C665.029 50.5143 655.715 51.1188 655.014 50.5585C653.524 48.9199 655.96 46.3415 656.645 44.8636C657.688 42.6788 658.239 40.5462 659.102 38.255C660.057 35.7328 660.877 33.4235 661.776 30.8893C662.804 27.9234 664.222 24.8932 665.429 22.0417C665.932 20.8328 666.483 19.1902 666.847 18.0376C667.154 17.0576 668.448 15.6218 669.177 18.5717C670.312 23.1963 671.652 27.9013 673.275 32.3853C674.362 35.3774 677.122 44.4298 677.631 45.9038C677.857 46.6026 678.36 47.5745 678.669 48.3677C678.883 48.8938 679.574 50.1991 677.515 50.3557ZM709.948 60.7616C709.255 57.7776 707.905 52.655 706.591 51.9521C705.099 51.3838 701.654 51.7834 699.847 51.2453C698.463 50.8296 699.112 50.8758 698.043 49.1187C697.482 48.1609 695.87 44.4439 695.303 43.2049C694.938 42.4519 692.527 38.251 691.986 36.9377C691.373 35.4557 690.003 31.4817 689.773 30.8431C689.236 29.3491 686.222 23.9755 685.597 22.8228C685.296 22.3007 683.52 18.6822 682.734 15.5274C682.148 13.1539 679.556 12.2101 678.951 12.2282C671.45 12.5193 663.208 12.8707 656.334 12.7503C655.719 12.7503 653.808 12.7623 653.77 14.3467C653.634 18.4211 657.758 16.1279 659.549 16.3588C660.953 16.4451 663.47 16.2263 663.785 16.8889C664.083 17.5556 662.733 20.877 661.922 22.1762C661.111 23.4775 659.629 25.7145 658.932 27.9736C658.217 30.2166 654.732 37.9437 654.253 39.6526C653.798 41.3695 651.992 45.8255 651.908 46.2692L650.369 51.0023C649.458 51.9742 647.055 51.5043 645.795 51.7232C644.909 51.8718 643.045 51.3738 642.041 51.6529C640.353 52.1228 639.738 54.5908 639.179 56.1952C638.548 57.9945 637.959 59.0889 638.192 61.1733C638.138 61.856 639.411 62.4323 640.187 62.4323C641.108 62.4323 643.952 62.3661 643.82 61.4986C643.798 60.7455 643.539 59.4162 643.724 58.117C645.058 53.7353 644.619 55.0145 646.946 55.2032C648.655 55.3317 653.915 55.0586 656.27 55.1048C664.678 55.2735 671.542 54.5827 680.924 54.4542C685.571 54.392 692.132 54.2072 696.699 54.5165C700.336 54.7715 702.331 53.649 702.539 55.392C702.996 56.1651 704.476 60.3841 704.476 61.1692C704.41 61.9022 706.329 62.5307 707.849 62.4283C710.152 62.2677 710.076 61.4243 709.948 60.7616ZM258.22 43.8776C257.639 46.1949 257.692 47.4701 255.767 48.6468C254.03 49.7091 253.521 50.3918 251.555 50.7172C250.295 50.928 247.721 51.5284 246.461 51.6549C240.49 52.2433 237.949 50.9802 234.608 50.8156C230.308 50.6107 228.555 48.7211 226.971 43.3957C225.919 39.8534 226.478 37.7007 226.041 34.1504C225.689 31.3472 225.537 27.5659 225.969 24.6783C226.17 23.2124 226.021 21.6461 226.971 19.5436C227.618 18.1199 228.387 16.9431 229.917 16.413C233.813 15.0596 234.994 14.9069 239.161 15.1118L241.907 15.0957C243.675 15.0596 245.698 15.2363 247.463 15.3668C250.076 15.5716 252.051 16.0415 254.521 17.0014C256.666 17.8207 256.089 19.2725 257.029 21.4453C258.05 23.8229 258.002 26.8531 258.082 29.4495C258.186 34.1926 259.416 39.1626 258.22 43.8776ZM266.224 18.6661C265.431 18.0777 261.788 15.8588 261.082 15.5214C259.839 14.9411 254.06 12.6117 252.23 12.2C248.755 11.4109 234.926 11.8205 232.899 12.0153C229.587 12.3446 223.035 15.0114 221.861 15.5214C221.152 15.8307 217.295 18.0978 216.532 18.6661C215.899 19.1179 212.886 21.8308 212.472 22.3529C211.857 23.118 209.237 27.0679 208.975 27.8872C207.903 31.2046 208.095 36.3754 208.975 39.1466C209.433 40.6125 212.069 44.3636 212.472 44.8736C213.177 45.7451 214.889 47.0504 216.149 48.0082C217.823 49.2713 220.061 50.9019 221.497 51.5144C222.482 51.926 226.899 53.8317 228.12 54.2875C232.024 55.7354 240.122 54.9622 240.41 54.9783C241.161 55.0325 247.395 55.3518 249.484 55.2052C253.523 54.9341 260.402 51.8758 261.265 51.5144C262.032 51.1891 265.968 48.6348 266.773 48.0082C267.36 47.5564 270.06 45.1487 270.474 44.6869C271.049 43.9961 273.705 39.5482 273.963 38.7771C275.556 33.9838 274.057 28.4736 272.297 25.6743C270.648 23.0317 268.836 20.5878 266.224 18.6661ZM272.573 12.441C270.017 13.1358 272.247 17.0094 273.761 15.421C275.884 14.5836 274.192 11.5514 272.573 12.441Z" fill="#BFE142"/>
</g>
<defs>
<clipPath id="clip0_239_1963">
<rect width="136" height="74" fill="white"/>
</clipPath>
</defs>
</svg>
