<svg width="70" height="70" viewBox="0 0 70 70" fill="none" xmlns="http://www.w3.org/2000/svg">
<path d="M49.2188 9.84375H50.3125V10.9375C50.3125 11.2276 50.4277 11.5058 50.6329 11.7109C50.838 11.916 51.1162 12.0312 51.4062 12.0312C51.6963 12.0312 51.9745 11.916 52.1796 11.7109C52.3848 11.5058 52.5 11.2276 52.5 10.9375V9.84375H53.5938C53.8838 9.84375 54.162 9.72852 54.3671 9.5234C54.5723 9.31828 54.6875 9.04008 54.6875 8.75C54.6875 8.45992 54.5723 8.18172 54.3671 7.9766C54.162 7.77148 53.8838 7.65625 53.5938 7.65625H52.5V6.5625C52.5 6.27242 52.3848 5.99422 52.1796 5.7891C51.9745 5.58398 51.6963 5.46875 51.4062 5.46875C51.1162 5.46875 50.838 5.58398 50.6329 5.7891C50.4277 5.99422 50.3125 6.27242 50.3125 6.5625V7.65625H49.2188C48.9287 7.65625 48.6505 7.77148 48.4454 7.9766C48.2402 8.18172 48.125 8.45992 48.125 8.75C48.125 9.04008 48.2402 9.31828 48.4454 9.5234C48.6505 9.72852 48.9287 9.84375 49.2188 9.84375Z" fill="white"/>
<path d="M41.5625 6.5625H42.6562V7.65625C42.6562 7.94633 42.7715 8.22453 42.9766 8.42965C43.1817 8.63477 43.4599 8.75 43.75 8.75C44.0401 8.75 44.3183 8.63477 44.5234 8.42965C44.7285 8.22453 44.8438 7.94633 44.8438 7.65625V6.5625H45.9375C46.2276 6.5625 46.5058 6.44727 46.7109 6.24215C46.916 6.03703 47.0312 5.75883 47.0312 5.46875C47.0312 5.17867 46.916 4.90047 46.7109 4.69535C46.5058 4.49023 46.2276 4.375 45.9375 4.375H44.8438V3.28125C44.8438 2.99117 44.7285 2.71297 44.5234 2.50785C44.3183 2.30273 44.0401 2.1875 43.75 2.1875C43.4599 2.1875 43.1817 2.30273 42.9766 2.50785C42.7715 2.71297 42.6562 2.99117 42.6562 3.28125V4.375H41.5625C41.2724 4.375 40.9942 4.49023 40.7891 4.69535C40.584 4.90047 40.4688 5.17867 40.4688 5.46875C40.4688 5.75883 40.584 6.03703 40.7891 6.24215C40.9942 6.44727 41.2724 6.5625 41.5625 6.5625Z" fill="white"/>
<path d="M16.4062 9.84375H17.5V10.9375C17.5 11.2276 17.6152 11.5058 17.8204 11.7109C18.0255 11.916 18.3037 12.0312 18.5938 12.0312C18.8838 12.0312 19.162 11.916 19.3671 11.7109C19.5723 11.5058 19.6875 11.2276 19.6875 10.9375V9.84375H20.7812C21.0713 9.84375 21.3495 9.72852 21.5546 9.5234C21.7598 9.31828 21.875 9.04008 21.875 8.75C21.875 8.45992 21.7598 8.18172 21.5546 7.9766C21.3495 7.77148 21.0713 7.65625 20.7812 7.65625H19.6875V6.5625C19.6875 6.27242 19.5723 5.99422 19.3671 5.7891C19.162 5.58398 18.8838 5.46875 18.5938 5.46875C18.3037 5.46875 18.0255 5.58398 17.8204 5.7891C17.6152 5.99422 17.5 6.27242 17.5 6.5625V7.65625H16.4062C16.1162 7.65625 15.838 7.77148 15.6329 7.9766C15.4277 8.18172 15.3125 8.45992 15.3125 8.75C15.3125 9.04008 15.4277 9.31828 15.6329 9.5234C15.838 9.72852 16.1162 9.84375 16.4062 9.84375Z" fill="white"/>
<path d="M24.0625 6.5625H25.1562V7.65625C25.1562 7.94633 25.2715 8.22453 25.4766 8.42965C25.6817 8.63477 25.9599 8.75 26.25 8.75C26.5401 8.75 26.8183 8.63477 27.0234 8.42965C27.2285 8.22453 27.3438 7.94633 27.3438 7.65625V6.5625H28.4375C28.7276 6.5625 29.0058 6.44727 29.2109 6.24215C29.416 6.03703 29.5312 5.75883 29.5312 5.46875C29.5312 5.17867 29.416 4.90047 29.2109 4.69535C29.0058 4.49023 28.7276 4.375 28.4375 4.375H27.3438V3.28125C27.3438 2.99117 27.2285 2.71297 27.0234 2.50785C26.8183 2.30273 26.5401 2.1875 26.25 2.1875C25.9599 2.1875 25.6817 2.30273 25.4766 2.50785C25.2715 2.71297 25.1562 2.99117 25.1562 3.28125V4.375H24.0625C23.7724 4.375 23.4942 4.49023 23.2891 4.69535C23.084 4.90047 22.9688 5.17867 22.9688 5.46875C22.9688 5.75883 23.084 6.03703 23.2891 6.24215C23.4942 6.44727 23.7724 6.5625 24.0625 6.5625Z" fill="white"/>
<path d="M42.3548 21.7897C42.1644 21.7755 41.9698 21.7689 41.774 21.7689C40.4569 21.7667 39.1577 22.074 37.9812 22.666C36.8046 23.258 35.7836 24.1181 35.0004 25.177C34.2175 24.1175 33.1967 23.2568 32.0201 22.6642C30.8435 22.0716 29.5442 21.7638 28.2268 21.7656C28.031 21.7656 27.8363 21.7722 27.6493 21.7853C26.3253 21.87 25.0501 22.3168 23.9628 23.077C22.8755 23.8372 22.018 24.8814 21.4838 26.0958C20.9035 27.3642 20.6793 28.7667 20.8354 30.1529C20.9914 31.5391 21.5219 32.8566 22.3698 33.9642L34.167 47.845C34.2696 47.9658 34.3973 48.0629 34.5413 48.1294C34.6852 48.196 34.8418 48.2305 35.0004 48.2305C35.1589 48.2305 35.3156 48.196 35.4595 48.1294C35.6034 48.0629 35.7311 47.9658 35.8338 47.845C35.8338 47.845 47.6573 33.9358 47.6693 33.9194C48.5041 32.8141 49.0237 31.5033 49.173 30.1263C49.3222 28.7493 49.0955 27.3575 48.517 26.0991C47.9832 24.8852 47.1262 23.8412 46.0394 23.0813C44.9527 22.3213 43.6781 21.8745 42.3548 21.7897ZM45.9434 32.5752L35.0004 45.4486L24.0749 32.5992C23.4789 31.8081 23.1084 30.8703 23.0027 29.8854C22.8969 28.9005 23.06 27.9054 23.4745 27.0058C23.8482 26.1521 24.4494 25.4176 25.2122 24.8823C25.9751 24.347 26.8703 24.0317 27.8002 23.9706C27.9413 23.9608 28.0824 23.9564 28.2268 23.9564C29.4599 23.9551 30.6656 24.3194 31.6916 25.0033C32.7176 25.6873 33.5178 26.6601 33.9909 27.7988C34.0739 27.998 34.2141 28.1683 34.3938 28.288C34.5734 28.4077 34.7845 28.4716 35.0004 28.4716C35.2163 28.4716 35.4274 28.4077 35.607 28.288C35.7867 28.1683 35.9268 27.998 36.0099 27.7988C36.51 26.5914 37.3773 25.572 38.489 24.885C39.6006 24.1979 40.9003 23.878 42.2038 23.9706C43.1331 24.0318 44.0278 24.3471 44.7901 24.8822C45.5523 25.4173 46.153 26.1515 46.5263 27.0047C46.9389 27.8998 47.1025 28.8897 47 29.87C46.8974 30.8503 46.5324 31.7848 45.9434 32.5752Z" fill="white"/>
<path d="M35 10.9375C30.2409 10.9375 25.5887 12.3487 21.6316 14.9928C17.6745 17.6368 14.5904 21.3948 12.7692 25.7917C10.9479 30.1885 10.4714 35.0267 11.3999 39.6944C12.3283 44.362 14.6201 48.6496 17.9853 52.0148C21.3505 55.38 25.638 57.6717 30.3056 58.6001C34.9733 59.5286 39.8115 59.0521 44.2083 57.2309C48.6052 55.4096 52.3632 52.3255 55.0072 48.3684C57.6513 44.4114 59.0625 39.7591 59.0625 35C59.0553 28.6204 56.5178 22.5043 52.0068 17.9932C47.4957 13.4822 41.3796 10.9447 35 10.9375ZM35 56.875C30.6735 56.875 26.4442 55.5921 22.8469 53.1884C19.2496 50.7847 16.4458 47.3683 14.7901 43.3712C13.1345 39.3741 12.7013 34.9757 13.5453 30.7324C14.3894 26.4891 16.4728 22.5913 19.532 19.532C22.5913 16.4728 26.4891 14.3894 30.7324 13.5453C34.9757 12.7013 39.3741 13.1345 43.3712 14.7901C47.3683 16.4458 50.7847 19.2496 53.1884 22.8469C55.5921 26.4442 56.875 30.6735 56.875 35C56.8684 40.7996 54.5615 46.3597 50.4606 50.4606C46.3597 54.5615 40.7996 56.8683 35 56.875Z" fill="white"/>
<path d="M35 14.2188C30.8899 14.2188 26.872 15.4375 23.4546 17.721C20.0371 20.0045 17.3735 23.2501 15.8006 27.0474C14.2278 30.8446 13.8162 35.0231 14.6181 39.0542C15.4199 43.0854 17.3991 46.7883 20.3054 49.6946C23.2118 52.6009 26.9146 54.5801 30.9458 55.3819C34.977 56.1838 39.1554 55.7723 42.9526 54.1994C46.7499 52.6265 49.9955 49.9629 52.279 46.5454C54.5625 43.128 55.7813 39.1101 55.7813 35C55.7752 29.4903 53.5838 24.2081 49.6879 20.3122C45.7919 16.4162 40.5097 14.2248 35 14.2188ZM35 53.5938C31.3225 53.5938 27.7276 52.5032 24.6699 50.4601C21.6121 48.417 19.2289 45.5131 17.8216 42.1155C16.4143 38.718 16.0461 34.9794 16.7635 31.3725C17.481 27.7657 19.2519 24.4526 21.8522 21.8522C24.4526 19.2519 27.7657 17.481 31.3725 16.7635C34.9794 16.0461 38.718 16.4143 42.1155 17.8216C45.5131 19.2289 48.417 21.6121 50.4601 24.6699C52.5033 27.7276 53.5938 31.3225 53.5938 35C53.5883 39.9297 51.6275 44.6559 48.1417 48.1417C44.6559 51.6275 39.9297 53.5882 35 53.5938Z" fill="white"/>
<path d="M9.84375 45.9375H8.75V27.2256C9.72869 27.036 10.6394 26.5897 11.3889 25.9325C12.1385 25.2752 12.6998 24.4306 13.0156 23.485L13.0725 23.3144C13.1056 23.2122 13.1233 23.1057 13.125 22.9983C13.125 22.9873 13.1305 22.9797 13.1305 22.9688V12.0312C13.1305 11.7412 13.0152 11.463 12.8101 11.2579C12.605 11.0527 12.3268 10.9375 12.0367 10.9375C11.7466 10.9375 11.4684 11.0527 11.2633 11.2579C11.0582 11.463 10.943 11.7412 10.943 12.0312V21.875H8.75V10.9375C8.75 10.6474 8.63477 10.3692 8.42965 10.1641C8.22453 9.95898 7.94633 9.84375 7.65625 9.84375C7.36617 9.84375 7.08797 9.95898 6.88285 10.1641C6.67773 10.3692 6.5625 10.6474 6.5625 10.9375V21.875H4.375V12.0312C4.375 11.7412 4.25977 11.463 4.05465 11.2579C3.84953 11.0527 3.57133 10.9375 3.28125 10.9375C2.99117 10.9375 2.71297 11.0527 2.50785 11.2579C2.30273 11.463 2.1875 11.7412 2.1875 12.0312V22.9688C2.1875 22.9786 2.1875 22.9873 2.1875 22.9983C2.18882 23.1056 2.20615 23.2122 2.23891 23.3144L2.29578 23.485C2.61165 24.4307 3.17321 25.2754 3.92293 25.9327C4.67266 26.59 5.58361 27.0362 6.5625 27.2256V45.9375H5.46875C5.17867 45.9375 4.90047 46.0527 4.69535 46.2579C4.49023 46.463 4.375 46.7412 4.375 47.0312V64.5312C4.375 65.4015 4.7207 66.2361 5.33606 66.8514C5.95141 67.4668 6.78601 67.8125 7.65625 67.8125C8.52649 67.8125 9.36109 67.4668 9.97644 66.8514C10.5918 66.2361 10.9375 65.4015 10.9375 64.5312V47.0312C10.9375 46.7412 10.8223 46.463 10.6171 46.2579C10.412 46.0527 10.1338 45.9375 9.84375 45.9375ZM10.1828 24.0625C9.85921 24.4083 9.46791 24.6839 9.03326 24.8721C8.5986 25.0602 8.12988 25.157 7.65625 25.1562C7.18262 25.157 6.7139 25.0602 6.27924 24.8721C5.84459 24.6839 5.45329 24.4083 5.12969 24.0625H10.1828ZM8.75 64.5312C8.75 64.8213 8.63477 65.0995 8.42965 65.3046C8.22453 65.5098 7.94633 65.625 7.65625 65.625C7.36617 65.625 7.08797 65.5098 6.88285 65.3046C6.67773 65.0995 6.5625 64.8213 6.5625 64.5312V48.125H8.75V64.5312Z" fill="white"/>
<path d="M61.25 14.2188C60.9599 14.2188 60.6817 14.334 60.4766 14.5391C60.2715 14.7442 60.1562 15.0224 60.1562 15.3125V65.0781C60.1562 65.8033 60.4443 66.4988 60.9571 67.0116C61.4699 67.5244 62.1654 67.8125 62.8906 67.8125C63.6158 67.8125 64.3113 67.5244 64.8241 67.0116C65.3369 66.4988 65.625 65.8033 65.625 65.0781V48.125H66.7188C67.0088 48.125 67.287 48.0098 67.4921 47.8046C67.6973 47.5995 67.8125 47.3213 67.8125 47.0312V20.7812C67.8108 19.0413 67.1188 17.3731 65.8885 16.1428C64.6581 14.9124 62.99 14.2205 61.25 14.2188ZM63.4375 65.0781C63.4375 65.2232 63.3799 65.3623 63.2773 65.4648C63.1748 65.5674 63.0357 65.625 62.8906 65.625C62.7456 65.625 62.6065 65.5674 62.5039 65.4648C62.4014 65.3623 62.3438 65.2232 62.3438 65.0781V48.125H63.4375V65.0781ZM65.625 45.9375H62.3438V16.5452C63.2824 16.7885 64.1138 17.3364 64.7076 18.103C65.3014 18.8696 65.6241 19.8116 65.625 20.7812V45.9375Z" fill="white"/>
</svg>
