<svg width="70" height="70" viewBox="0 0 70 70" fill="none" xmlns="http://www.w3.org/2000/svg">
<g clip-path="url(#clip0_1063_526)">
<path d="M9.0332 15.8065H11.2913V18.0645H9.0332V15.8065Z" fill="white"/>
<path d="M5.64453 31.6129H7.9026V33.871H5.64453V31.6129Z" fill="white"/>
<path d="M37.2578 31.6129H39.5159V33.871H37.2578V31.6129Z" fill="white"/>
<path d="M22.5806 10.1613C18.8445 10.1613 15.8064 13.1994 15.8064 16.9355C15.8064 19.5188 14.0555 21.7653 11.5488 22.3998L12.1034 24.589C15.6135 23.7009 18.0645 20.553 18.0645 16.9355C18.0645 14.4448 20.0899 12.4193 22.5806 12.4193V10.1613Z" fill="white"/>
<path d="M13.5488 7.90323H15.8069V10.1613H13.5488V7.90323Z" fill="white"/>
<path d="M27.0977 5.64517H29.3557V7.90324H27.0977V5.64517Z" fill="white"/>
<path d="M30.4844 15.8065H32.7424V18.0645H30.4844V15.8065Z" fill="white"/>
<path d="M39.5156 19.1935H41.7737V21.4516H39.5156V19.1935Z" fill="white"/>
<path d="M21.4512 21.4516H23.7092V23.7097H21.4512V21.4516Z" fill="white"/>
<path d="M15.8066 29.3548H18.0647V31.6129H15.8066V29.3548Z" fill="white"/>
<path d="M67.7127 54.1936C68.4294 53.2475 68.871 52.0821 68.871 50.8064C68.871 49.0352 68.022 47.3741 66.6129 46.314C66.6129 46.3063 66.6129 46.2969 66.6129 46.2903C66.6129 43.1778 64.0803 40.6452 60.9677 40.6452C60.2698 40.6452 59.5868 40.7714 58.9456 41.0178C57.9285 39.4064 56.1445 38.3871 54.1936 38.3871C52.2425 38.3871 50.4586 39.4064 49.4415 41.0178C48.8003 40.7714 48.1173 40.6452 47.4194 40.6452C45.5698 40.6452 43.8889 41.5327 42.8398 43.0118C41.4748 42.7362 40.117 42.9892 38.9516 43.6778C38.09 43.1684 37.1296 42.9032 36.129 42.9032C33.2386 42.9032 30.8499 45.0858 30.5225 47.889C29.7104 48.2347 29.0114 48.765 28.4562 49.4145C28.3173 48.1195 28.2258 46.8201 28.2258 45.5147C28.2258 43.6701 28.3691 41.8194 28.647 39.9913C29.6779 41.0834 31.1261 41.7742 32.7419 41.7742C34.581 41.7742 36.2624 40.8899 37.3121 39.4158C37.6837 39.4836 38.0392 39.5161 38.3871 39.5161C42.1232 39.5161 45.1613 36.478 45.1613 32.7419C45.1613 32.0523 45.0516 31.3725 44.8338 30.711C47.8438 28.6106 49.6774 25.1469 49.6774 21.4516C49.6774 15.2259 44.6128 10.1613 38.3871 10.1613C38.3678 10.1613 38.3496 10.1613 38.3309 10.1613C37.7625 4.46431 32.9404 0 27.0968 0C23.9346 0 20.9097 1.3512 18.7828 3.66825C17.6075 2.76139 16.1653 2.25806 14.6774 2.25806C10.9414 2.25806 7.90323 5.2962 7.90323 9.03226C7.90323 9.14417 7.90543 9.25443 7.91205 9.36744C4.62253 10.3487 2.25806 13.4277 2.25806 16.9355C2.25806 18.1185 2.51993 19.2713 3.02215 20.3259C1.15384 21.5657 0 23.6678 0 25.9677C0 27.1624 0.318643 28.3184 0.92671 29.3548C0.318643 30.3913 0 31.5473 0 32.7419C0 36.478 3.03813 39.5161 6.77419 39.5161C7.12205 39.5161 7.47763 39.4836 7.8492 39.4158C8.89885 40.8899 10.5803 41.7742 12.4194 41.7742C15.1741 41.7742 17.4675 39.7874 17.9598 37.1721C18.0546 37.1577 18.1494 37.1473 18.2431 37.1296L18.4824 38.3287C18.9543 40.6904 19.1935 43.1089 19.1935 45.5158C19.1935 48.9233 18.7194 52.3104 17.7834 55.5844L17.054 58.1374C16.9752 58.4147 16.9355 58.702 16.9355 58.9886C16.9355 60.7026 18.3308 62.0968 20.0447 62.0968H24.8387C24.8387 66.4536 28.384 70 32.7419 70H62.0968C66.4547 70 70 66.4536 70 62.0968V54.1936H67.7127ZM31.9078 49.7959L32.786 49.5727L32.7579 48.6658C32.7557 48.6002 32.7486 48.5418 32.7419 48.5484C32.7419 46.6812 34.2618 45.1613 36.129 45.1613C36.8909 45.1613 37.6214 45.4254 38.2427 45.9281L38.9516 46.5004L39.6606 45.9281C40.6 45.1679 41.7538 44.9331 42.9666 45.3917L43.9319 45.7561L44.3812 44.8272C44.9557 43.6403 46.12 42.9032 47.4194 42.9032C48.0991 42.9032 48.754 43.1044 49.3152 43.4837L50.5286 44.3057L51.0132 42.9214C51.4895 41.5608 52.7674 40.6452 54.1936 40.6452C55.6197 40.6452 56.8976 41.5608 57.3739 42.9214L57.8585 44.3057L59.0719 43.4837C59.6331 43.1044 60.288 42.9032 60.9677 42.9032C62.8349 42.9032 64.3548 44.4231 64.3548 46.2903C64.3548 46.4033 64.3355 46.5103 64.3212 46.62L64.2049 47.4938L64.8708 47.8687C65.9458 48.4729 66.6129 49.5986 66.6129 50.8064C66.6129 52.6737 65.093 54.1936 63.2258 54.1936H29.5737C29.4452 53.8314 29.3548 53.4554 29.3548 53.0645C29.3548 51.5248 30.405 50.1796 31.9078 49.7959ZM20.0447 59.8387C19.575 59.8387 19.1935 59.4572 19.1935 58.9875C19.1935 58.9081 19.2046 58.8282 19.2261 58.7527L19.9543 56.203C20.9483 52.7282 21.4516 49.1333 21.4516 45.5147C21.4516 42.9584 21.1975 40.3921 20.6964 37.8838L20.381 36.3049C22.3695 35.1251 23.7097 32.9608 23.7097 30.4839H21.4516C21.4516 32.9746 19.4262 35 16.9355 35C14.4448 35 12.4194 32.9746 12.4194 30.4839H10.1613C10.1613 33.775 12.5219 36.5232 15.6383 37.1307C15.2083 38.5078 13.937 39.5161 12.4194 39.5161C11.1354 39.5161 9.97826 38.7901 9.39831 37.623L8.97492 36.7691L8.06255 37.0436C7.57466 37.1892 7.16505 37.2581 6.77419 37.2581C4.28349 37.2581 2.25806 35.2326 2.25806 32.7419C2.25806 31.7744 2.57891 30.8372 3.18367 30.0357L3.69747 29.3548L3.18367 28.674C2.57891 27.8724 2.25806 26.9352 2.25806 25.9677C2.25806 24.1491 3.34079 22.515 5.01614 21.8061L6.29072 21.2675L5.50734 20.1263C4.85958 19.1836 4.51613 18.0805 4.51613 16.9355C4.51613 14.1614 6.58676 11.7633 9.33381 11.3592L10.5295 11.1828L10.2721 10.002C10.1977 9.65907 10.1613 9.34043 10.1613 9.03226C10.1613 6.54155 12.1867 4.51613 14.6774 4.51613C15.9713 4.51613 17.1692 5.06356 18.0463 6.05973L18.9769 7.11268L19.8055 5.97814C21.5045 3.64785 24.2312 2.25806 27.0968 2.25806C32.0771 2.25806 36.129 6.31001 36.1301 11.2385L36.1257 12.6156L37.3777 12.4794C37.7096 12.4431 38.0464 12.4194 38.3871 12.4194C43.3674 12.4194 47.4194 16.4713 47.4194 21.4516C47.4194 24.6739 45.6762 27.6762 42.8696 29.2848L41.9434 29.8157L42.4225 30.7705C42.7406 31.4073 42.9032 32.071 42.9032 32.7419C42.9032 35.2326 40.8778 37.2581 38.3871 37.2581C37.9962 37.2581 37.5866 37.1892 37.0987 37.0436L36.1864 36.7702L35.763 37.6241C35.183 38.7901 34.0259 39.5161 32.7419 39.5161C30.8747 39.5161 29.3548 37.9962 29.3548 36.129C29.3548 34.2618 30.8747 32.7419 32.6438 32.7364L33.7739 32.7805L33.9614 31.8466C34.0325 31.4922 34.1576 31.1399 34.344 30.7716L34.8285 29.8157L33.8991 29.2815C31.4029 27.8465 29.7253 25.2957 29.41 22.4555L27.1657 22.7047C27.5146 25.8514 29.1988 28.7137 31.7463 30.5721C29.1729 31.0324 27.212 33.2453 27.115 35.9256L26.723 37.8838C26.2219 40.3921 25.9677 42.9595 25.9677 45.5147C25.9677 49.1322 26.4711 52.7282 27.465 56.203L28.1922 58.7494C28.2148 58.8282 28.2258 58.9081 28.2258 58.9875C28.2258 59.4572 27.8443 59.8387 27.3746 59.8387H20.0447ZM67.7419 62.0968C67.7419 65.2093 65.2093 67.7419 62.0968 67.7419H32.7419C29.6294 67.7419 27.0968 65.2093 27.0968 62.0968H27.3746C29.0886 62.0968 30.4839 60.7026 30.4839 58.9875C30.4839 58.7009 30.4442 58.4136 30.3642 58.1325L29.8846 56.4516H67.7419V62.0968Z" fill="white"/>
<path d="M45.0591 51.1609C46.5911 52.0667 48.4936 52.1885 50.1398 51.4476C50.8608 51.7718 51.6189 51.9355 52.3978 51.9355V49.6774C51.8151 49.6774 51.2462 49.5181 50.7076 49.2044L50.1398 48.8736L49.5714 49.2044C48.3288 49.9305 46.864 49.7959 45.7692 48.9106L45.0602 48.3383L44.3513 48.9106C43.4174 49.6675 42.2498 49.9046 41.0463 49.447L40.248 51.5595C41.908 52.1863 43.6296 52.0055 45.0591 51.1609Z" fill="white"/>
<path d="M59.8379 49.6774H62.096V51.9355H59.8379V49.6774Z" fill="white"/>
<path d="M53.0645 42.9032H55.3225V45.1613H53.0645V42.9032Z" fill="white"/>
<path d="M35 47.4194H37.2581V49.6774H35V47.4194Z" fill="white"/>
</g>
<defs>
<clipPath id="clip0_1063_526">
<rect width="70" height="70" fill="white"/>
</clipPath>
</defs>
</svg>
