<svg width="70" height="71" viewBox="0 0 70 71" fill="none" xmlns="http://www.w3.org/2000/svg">
<g clip-path="url(#clip0_1063_520)">
<path d="M31.9692 31.4332C31.7355 30.9646 31.6125 30.4409 31.6125 29.9182V25.3387C32.8579 25.3387 33.8706 24.326 33.8706 23.0806V19.6935C33.8706 17.2458 32.7515 15.0545 30.9984 13.6035C32.0326 13.023 32.7416 11.9292 32.7416 10.6613C32.7416 8.79409 31.2217 7.27419 29.3545 7.27419V2.75806C29.3545 1.51271 28.3418 0.5 27.0964 0.5H11.2899C10.0446 0.5 9.03188 1.51271 9.03188 2.75806V7.27419C7.16468 7.27419 5.64478 8.79409 5.64478 10.6613C5.64478 11.9292 6.35374 13.023 7.38795 13.6035C5.63486 15.0545 4.51575 17.2458 4.51575 19.6935V23.0806C4.51575 24.326 5.52846 25.3387 6.77382 25.3387V29.9182C6.77382 30.4409 6.65088 30.9657 6.41713 31.4332L3.98266 36.3016C3.59345 37.0794 3.38672 37.9532 3.38672 38.8237V64.8548C3.38672 67.9674 5.91932 70.5 9.03188 70.5H29.3545C32.467 70.5 34.9996 67.9674 34.9996 64.8548V38.8237C34.9996 37.9532 34.7929 37.0794 34.4048 36.2994L31.9692 31.4332ZM11.2899 2.75806H27.0964V7.27419H11.2899V2.75806ZM9.03188 11.7903C8.40893 11.7903 7.90285 11.2842 7.90285 10.6613C7.90285 10.0383 8.40893 9.53226 9.03188 9.53226H29.3545C29.9774 9.53226 30.4835 10.0383 30.4835 10.6613C30.4835 11.2842 29.9774 11.7903 29.3545 11.7903H9.03188ZM29.3545 68.2419H9.03188C7.16468 68.2419 5.64478 66.722 5.64478 64.8548V38.8871H24.8383V36.629H6.34271L8.43704 32.4415C8.82515 31.6625 9.03188 30.7887 9.03188 29.9182V25.3387H11.2899V23.0806H6.77382V19.6935C6.77382 16.581 9.30642 14.0484 12.419 14.0484H25.9674C29.0799 14.0484 31.6125 16.581 31.6125 19.6935V23.0806H13.548V25.3387H29.3545V29.9182C29.3545 30.7887 29.5612 31.6625 29.9493 32.4426L32.0447 36.629H27.0964V38.8871H32.7416V64.8548C32.7416 66.722 31.2217 68.2419 29.3545 68.2419Z" fill="white"/>
<path d="M19.1927 42.2742C12.967 42.2742 7.90234 47.3389 7.90234 53.5645C7.90234 59.7902 12.967 64.8548 19.1927 64.8548C25.4183 64.8548 30.483 59.7902 30.483 53.5645C30.483 47.3389 25.4183 42.2742 19.1927 42.2742ZM19.1927 62.5968C14.2124 62.5968 10.1604 58.5448 10.1604 53.5645C10.1604 48.5842 14.2124 44.5323 19.1927 44.5323C24.173 44.5323 28.2249 48.5842 28.2249 53.5645C28.2249 58.5448 24.173 62.5968 19.1927 62.5968Z" fill="white"/>
<path d="M19.1939 47.1663L15.5796 51.9862C14.9986 52.763 14.6777 53.725 14.6777 54.6936C14.6777 57.1843 16.7032 59.2097 19.1939 59.2097C21.6846 59.2097 23.71 57.1843 23.71 54.6936C23.71 53.725 23.3891 52.763 22.807 51.9851L19.1939 47.1663ZM19.1939 56.9516C17.9485 56.9516 16.9358 55.9389 16.9358 54.6936C16.9358 54.2079 17.0973 53.7283 17.3862 53.3385L19.1939 50.9305L21.0004 53.3374C21.2904 53.7283 21.4519 54.2079 21.4519 54.6936C21.4519 55.9389 20.4392 56.9516 19.1939 56.9516Z" fill="white"/>
<path d="M37.1855 32.1129L39.254 65.2071C39.4392 68.1752 41.9139 70.5 44.8876 70.5H58.9828C61.9564 70.5 64.4312 68.1752 64.6164 65.2071L66.6848 32.1129H37.1855ZM64.2823 34.371L63.5144 46.6547C62.774 46.5577 62.0287 46.4122 61.2778 46.2368L61.5209 42.3442L59.2673 42.2031L59.0517 45.6486C58.4856 45.4865 57.9166 45.3167 57.34 45.1442C54.4865 44.2886 51.5355 43.4032 48.5481 43.4032C44.6913 43.4032 41.8323 44.3978 40.2601 45.1205L39.588 34.371H64.2823ZM62.3627 65.0671C62.2525 66.8477 60.7662 68.2419 58.9828 68.2419H44.8876C43.1041 68.2419 41.6179 66.8477 41.5076 65.0671L40.4133 47.5693C41.2706 47.0864 44.1687 45.6613 48.5481 45.6613C51.2058 45.6613 53.8702 46.4607 56.6917 47.3074C57.4243 47.5274 58.1642 47.7479 58.9078 47.9569L57.856 64.7859L60.1096 64.9271L61.1345 48.5186C61.8765 48.6823 62.6224 48.8169 63.3721 48.9095L62.3627 65.0671Z" fill="white"/>
<path d="M59.4062 39.9478L59.5474 37.6897L61.801 37.8308L61.6593 40.0889L59.4062 39.9478Z" fill="white"/>
</g>
<defs>
<clipPath id="clip0_1063_520">
<rect width="70" height="70" fill="white" transform="translate(0 0.5)"/>
</clipPath>
</defs>
</svg>
