<svg width="70" height="70" viewBox="0 0 70 70" fill="none" xmlns="http://www.w3.org/2000/svg">
<path d="M25.1562 55.7812C25.1562 54.3834 23.4916 51.8208 22.7752 50.785C22.6691 50.647 22.5328 50.5353 22.3767 50.4584C22.2207 50.3815 22.049 50.3415 21.875 50.3415C21.701 50.3415 21.5293 50.3815 21.3733 50.4584C21.2172 50.5353 21.0809 50.647 20.9748 50.785C20.2584 51.8208 18.5938 54.3834 18.5938 55.7812C18.5938 56.6515 18.9395 57.4861 19.5548 58.1014C20.1702 58.7168 21.0048 59.0625 21.875 59.0625C22.7452 59.0625 23.5798 58.7168 24.1952 58.1014C24.8105 57.4861 25.1562 56.6515 25.1562 55.7812ZM21.875 56.875C21.5849 56.875 21.3067 56.7598 21.1016 56.5546C20.8965 56.3495 20.7812 56.0713 20.7812 55.7812C21.0184 54.9452 21.3876 54.1525 21.875 53.433C22.3623 54.1525 22.7315 54.9452 22.9688 55.7812C22.9688 56.0713 22.8535 56.3495 22.6484 56.5546C22.4433 56.7598 22.1651 56.875 21.875 56.875Z" fill="white"/>
<path d="M33.9062 55.7812C33.9062 54.3834 32.2416 51.8208 31.5252 50.785C31.4191 50.647 31.2828 50.5353 31.1267 50.4584C30.9707 50.3815 30.799 50.3415 30.625 50.3415C30.451 50.3415 30.2793 50.3815 30.1233 50.4584C29.9672 50.5353 29.8309 50.647 29.7248 50.785C29.0084 51.8208 27.3438 54.3834 27.3438 55.7812C27.3438 56.6515 27.6895 57.4861 28.3048 58.1014C28.9202 58.7168 29.7548 59.0625 30.625 59.0625C31.4952 59.0625 32.3298 58.7168 32.9452 58.1014C33.5605 57.4861 33.9062 56.6515 33.9062 55.7812ZM30.625 56.875C30.3349 56.875 30.0567 56.7598 29.8516 56.5546C29.6465 56.3495 29.5312 56.0713 29.5312 55.7812C29.7684 54.9452 30.1376 54.1525 30.625 53.433C31.1123 54.1525 31.4815 54.9452 31.7188 55.7812C31.7188 56.0713 31.6035 56.3495 31.3984 56.5546C31.1933 56.7598 30.9151 56.875 30.625 56.875Z" fill="white"/>
<path d="M42.6562 55.7812C42.6562 54.3834 40.9916 51.8208 40.2752 50.785C40.1691 50.647 40.0328 50.5353 39.8767 50.4584C39.7207 50.3815 39.549 50.3415 39.375 50.3415C39.201 50.3415 39.0293 50.3815 38.8733 50.4584C38.7172 50.5353 38.5809 50.647 38.4748 50.785C37.7584 51.8208 36.0938 54.3834 36.0938 55.7812C36.0938 56.6515 36.4395 57.4861 37.0548 58.1014C37.6702 58.7168 38.5048 59.0625 39.375 59.0625C40.2452 59.0625 41.0798 58.7168 41.6952 58.1014C42.3105 57.4861 42.6562 56.6515 42.6562 55.7812ZM39.375 56.875C39.0849 56.875 38.8067 56.7598 38.6016 56.5546C38.3965 56.3495 38.2812 56.0713 38.2812 55.7812C38.5184 54.9452 38.8876 54.1525 39.375 53.433C39.8623 54.1525 40.2315 54.9452 40.4688 55.7812C40.4688 56.0713 40.3535 56.3495 40.1484 56.5546C39.9433 56.7598 39.6651 56.875 39.375 56.875Z" fill="white"/>
<path d="M51.4062 55.7812C51.4062 54.3834 49.7416 51.8208 49.0252 50.785C48.9191 50.647 48.7828 50.5353 48.6267 50.4584C48.4707 50.3815 48.299 50.3415 48.125 50.3415C47.951 50.3415 47.7793 50.3815 47.6233 50.4584C47.4672 50.5353 47.3309 50.647 47.2248 50.785C46.5084 51.8208 44.8438 54.3834 44.8438 55.7812C44.8438 56.6515 45.1895 57.4861 45.8048 58.1014C46.4202 58.7168 47.2548 59.0625 48.125 59.0625C48.9952 59.0625 49.8298 58.7168 50.4452 58.1014C51.0605 57.4861 51.4062 56.6515 51.4062 55.7812ZM48.125 56.875C47.8349 56.875 47.5567 56.7598 47.3516 56.5546C47.1465 56.3495 47.0312 56.0713 47.0312 55.7812C47.2694 54.9456 47.6386 54.153 48.125 53.433C48.6126 54.1523 48.9818 54.9451 49.2188 55.7812C49.2188 56.0713 49.1035 56.3495 48.8984 56.5546C48.6933 56.7598 48.4151 56.875 48.125 56.875Z" fill="white"/>
<path d="M56.875 54.6875H53.5938V56.875H55.7812V61.25H52.5V60.1562C52.5 59.8662 52.3848 59.588 52.1796 59.3829C51.9745 59.1777 51.6963 59.0625 51.4062 59.0625H18.5938C18.3037 59.0625 18.0255 59.1777 17.8204 59.3829C17.6152 59.588 17.5 59.8662 17.5 60.1562V61.25H14.2188V56.875H16.4062V54.6875H13.125C12.8349 54.6875 12.5567 54.8027 12.3516 55.0079C12.1465 55.213 12.0312 55.4912 12.0312 55.7812V62.3438C12.0312 62.6338 12.1465 62.912 12.3516 63.1171C12.5567 63.3223 12.8349 63.4375 13.125 63.4375H17.5V66.7188C17.5 67.0088 17.6152 67.287 17.8204 67.4921C18.0255 67.6973 18.3037 67.8125 18.5938 67.8125H51.4062C51.6963 67.8125 51.9745 67.6973 52.1796 67.4921C52.3848 67.287 52.5 67.0088 52.5 66.7188V63.4375H56.875C57.1651 63.4375 57.4433 63.3223 57.6484 63.1171C57.8535 62.912 57.9688 62.6338 57.9688 62.3438V55.7812C57.9688 55.4912 57.8535 55.213 57.6484 55.0079C57.4433 54.8027 57.1651 54.6875 56.875 54.6875ZM50.3125 65.625H19.6875V61.25H50.3125V65.625Z" fill="white"/>
<path d="M56.875 40.4688V37.1875H54.6875V40.4688C54.6875 40.7588 54.5723 41.037 54.3671 41.2421C54.162 41.4473 53.8838 41.5625 53.5938 41.5625H51.4062V43.75H53.5938C54.464 43.75 55.2986 43.4043 55.9139 42.7889C56.5293 42.1736 56.875 41.339 56.875 40.4688Z" fill="white"/>
<path d="M64.5312 19.6875H61.25V16.4062C61.2492 16.183 61.1796 15.9654 61.0506 15.7832C60.9216 15.6009 60.7395 15.4629 60.5292 15.388V15.3792L40.3988 8.00406C40.4411 7.89277 40.4647 7.77525 40.4688 7.65625V5.46875C40.4688 4.59851 40.123 3.76391 39.5077 3.14856C38.8923 2.5332 38.0577 2.1875 37.1875 2.1875H32.8125C31.9423 2.1875 31.1077 2.5332 30.4923 3.14856C29.877 3.76391 29.5312 4.59851 29.5312 5.46875V7.65625C29.5353 7.77525 29.5589 7.89277 29.6012 8.00406L9.4675 15.3792V15.388C9.2578 15.4635 9.07643 15.6017 8.94806 15.7839C8.81968 15.9661 8.75053 16.1834 8.75 16.4062V19.6875H5.46875C4.59851 19.6875 3.76391 20.0332 3.14856 20.6486C2.5332 21.2639 2.1875 22.0985 2.1875 22.9688V25.1562C2.1875 26.0265 2.5332 26.8611 3.14856 27.4764C3.76391 28.0918 4.59851 28.4375 5.46875 28.4375H8.75V42.6562C8.75174 44.1061 9.32846 45.4961 10.3537 46.5213C11.3789 47.5465 12.7689 48.1233 14.2188 48.125H55.7812C57.2311 48.1233 58.6211 47.5465 59.6463 46.5213C60.6715 45.4961 61.2483 44.1061 61.25 42.6562V28.4375H64.5312C65.4015 28.4375 66.2361 28.0918 66.8514 27.4764C67.4668 26.8611 67.8125 26.0265 67.8125 25.1562V22.9688C67.8125 22.0985 67.4668 21.2639 66.8514 20.6486C66.2361 20.0332 65.4015 19.6875 64.5312 19.6875ZM31.3294 9.70156C31.3739 9.68495 31.4174 9.66559 31.4595 9.64359C32.5527 9.07395 33.7673 8.77651 35 8.77651C36.2327 8.77651 37.4473 9.07395 38.5405 9.64359C38.5826 9.66559 38.6261 9.68495 38.6706 9.70156L53.9908 15.3125H16.0092L31.3294 9.70156ZM59.0625 17.5V19.6875H10.9375V17.5H59.0625ZM31.7188 5.46875C31.7188 5.17867 31.834 4.90047 32.0391 4.69535C32.2442 4.49023 32.5224 4.375 32.8125 4.375H37.1875C37.4776 4.375 37.7558 4.49023 37.9609 4.69535C38.166 4.90047 38.2812 5.17867 38.2812 5.46875V6.5625H31.7188V5.46875ZM5.46875 26.25C5.17867 26.25 4.90047 26.1348 4.69535 25.9296C4.49023 25.7245 4.375 25.4463 4.375 25.1562V22.9688C4.375 22.6787 4.49023 22.4005 4.69535 22.1954C4.90047 21.9902 5.17867 21.875 5.46875 21.875H8.75V26.25H5.46875ZM59.0625 42.6562C59.0625 43.5265 58.7168 44.3611 58.1014 44.9764C57.4861 45.5918 56.6515 45.9375 55.7812 45.9375H14.2188C13.3485 45.9375 12.5139 45.5918 11.8986 44.9764C11.2832 44.3611 10.9375 43.5265 10.9375 42.6562V21.875H59.0625V42.6562ZM65.625 25.1562C65.625 25.4463 65.5098 25.7245 65.3046 25.9296C65.0995 26.1348 64.8213 26.25 64.5312 26.25H61.25V21.875H64.5312C64.8213 21.875 65.0995 21.9902 65.3046 22.1954C65.5098 22.4005 65.625 22.6787 65.625 22.9688V25.1562Z" fill="white"/>
</svg>
