<svg width="70" height="70" viewBox="0 0 70 70" fill="none" xmlns="http://www.w3.org/2000/svg">
<path d="M60.1564 26.25H49.2189C47.848 26.254 46.5289 26.7738 45.5237 27.706C44.5186 28.6382 43.901 29.9146 43.7939 31.2812L37.1877 39.5391V39.375C37.2012 36.9908 36.3496 34.6826 34.7909 32.8785C33.2321 31.0744 31.072 29.8968 28.7111 29.5641L25.747 28.5797L25.1564 27.9891V24.8719C26.0147 24.2718 26.741 23.5022 27.2903 22.6105C27.8396 21.7188 28.2003 20.724 28.3502 19.6875H29.5314C30.111 19.6858 30.6664 19.4547 31.0763 19.0449C31.4862 18.635 31.7172 18.0796 31.7189 17.5V16.4062C31.7172 15.8266 31.4862 15.2712 31.0763 14.8614C30.6664 14.4515 30.111 14.2205 29.5314 14.2188H28.4377V13.9125C29.4481 13.2111 30.274 12.276 30.8453 11.1867C31.4166 10.0974 31.7163 8.88624 31.7189 7.65625V3.28125C31.7189 2.99117 31.6037 2.71297 31.3986 2.50785C31.1934 2.30273 30.9152 2.1875 30.6252 2.1875H17.5002C15.4703 2.18982 13.5243 2.9972 12.0889 4.43252C10.6536 5.86785 9.84622 7.8139 9.84391 9.84375V12.0312C9.84715 12.5004 9.95027 12.9635 10.1464 13.3897C10.3425 13.8159 10.6272 14.1955 10.9814 14.5031C10.6382 14.6888 10.3514 14.9635 10.1513 15.2984C9.95107 15.6334 9.8449 16.0161 9.84391 16.4062V17.5C9.84564 18.0796 10.0767 18.635 10.4865 19.0449C10.8964 19.4547 11.4518 19.6858 12.0314 19.6875H13.2127C13.3625 20.724 13.7232 21.7188 14.2725 22.6105C14.8219 23.5022 15.5481 24.2718 16.4064 24.8719V27.9891L15.8158 28.5797L12.8517 29.5641C10.4908 29.8968 8.33069 31.0744 6.77194 32.8785C5.2132 34.6826 4.36163 36.9908 4.37516 39.375V66.7188C4.37516 67.0088 4.49039 67.287 4.69551 67.4921C4.90063 67.6973 5.17883 67.8125 5.46891 67.8125H33.9064C34.7759 67.8099 35.6089 67.4634 36.2237 66.8486C36.8385 66.2338 37.1851 65.4007 37.1877 64.5312V55.0156L51.997 32.8125H55.7814C57.2318 32.8125 58.6228 32.2363 59.6484 31.2107C60.674 30.1852 61.2502 28.7942 61.2502 27.3438C61.2502 27.0537 61.1349 26.7755 60.9298 26.5704C60.7247 26.3652 60.4465 26.25 60.1564 26.25ZM29.5314 16.4062V17.5H28.4377V16.4062H29.5314ZM13.1252 17.5H12.0314V16.4062H13.1252V17.5ZM13.7267 11.0578C13.5454 11.1475 13.3929 11.2863 13.2865 11.4584C13.1802 11.6305 13.1243 11.829 13.1252 12.0312V13.125C12.8351 13.125 12.5569 13.0098 12.3518 12.8046C12.1466 12.5995 12.0314 12.3213 12.0314 12.0312V9.84375C12.0314 8.39335 12.6076 7.00235 13.6332 5.97676C14.6588 4.95117 16.0498 4.375 17.5002 4.375H29.5314V7.65625C29.5288 8.99794 29.0301 10.2913 28.1314 11.2875C27.9877 11.1371 27.8065 11.0276 27.6064 10.9703L18.8564 8.78281C18.6026 8.71865 18.3341 8.74978 18.1017 8.87031L13.7267 11.0578ZM15.3127 18.5938V12.7094L18.7252 11.0031L26.2502 12.8844V18.5938C26.2502 20.0442 25.674 21.4352 24.6484 22.4607C23.6228 23.4863 22.2318 24.0625 20.7814 24.0625C19.331 24.0625 17.94 23.4863 16.9144 22.4607C15.8888 21.4352 15.3127 20.0442 15.3127 18.5938ZM23.2861 29.2141L23.6142 29.5312L20.7814 32.3641L17.9486 29.5312L18.2767 29.2141C18.4782 29.0055 18.5917 28.7275 18.5939 28.4375V25.9328C20.0216 26.3557 21.5412 26.3557 22.9689 25.9328V28.4375C22.9711 28.7275 23.0846 29.0055 23.2861 29.2141ZM16.1111 30.7781L20.0048 34.6828C20.2114 34.8877 20.4905 35.0027 20.7814 35.0027C21.0723 35.0027 21.3515 34.8877 21.558 34.6828L25.4517 30.7781L26.6877 31.1938L22.4111 37.1875H19.1517L14.8752 31.1938L16.1111 30.7781ZM22.772 43.75L23.9861 51.0344L20.7814 54.2391L17.5767 51.0344L18.7908 43.75H22.772ZM19.1517 41.5625L19.5236 39.375H22.0392L22.4111 41.5625H19.1517ZM10.9377 65.625H6.56266V52.5H10.9377V65.625ZM35.1861 54.0859C35.0645 54.2629 34.9996 54.4728 35.0002 54.6875V64.5312C35.0002 64.8213 34.8849 65.0995 34.6798 65.3046C34.4747 65.5098 34.1965 65.625 33.9064 65.625H13.1252V51.4062C13.1252 51.1162 13.0099 50.838 12.8048 50.6329C12.5997 50.4277 12.3215 50.3125 12.0314 50.3125H6.56266V39.375C6.55016 37.6091 7.14722 35.8929 8.25309 34.516C9.35895 33.1392 10.9059 32.1859 12.633 31.8172L17.4455 38.5438L15.3236 51.2313C15.2963 51.4028 15.3099 51.5783 15.3631 51.7436C15.4163 51.9089 15.5077 52.0594 15.6298 52.1828L20.0048 56.5578C20.2122 56.7612 20.491 56.8751 20.7814 56.8751C21.0718 56.8751 21.3506 56.7612 21.558 56.5578L25.933 52.1828C26.0552 52.0594 26.1466 51.9089 26.1998 51.7436C26.253 51.5783 26.2665 51.4028 26.2392 51.2313L24.1173 38.5438L28.9298 31.8172C30.6569 32.1859 32.2039 33.1392 33.3097 34.516C34.4156 35.8929 35.0127 37.6091 35.0002 39.375V42.6562C35.0011 42.8823 35.072 43.1026 35.2032 43.2867C35.3345 43.4708 35.5195 43.6098 35.733 43.6844C35.9465 43.7608 36.1786 43.7681 36.3965 43.7053C36.6144 43.6425 36.807 43.5127 36.947 43.3344L45.3689 32.8125H49.3611L35.1861 54.0859ZM55.7814 30.625H46.1236C46.3518 29.9862 46.7715 29.4334 47.3254 29.0419C47.8794 28.6504 48.5406 28.4394 49.2189 28.4375H58.8767C58.6485 29.0763 58.2288 29.6291 57.6749 30.0206C57.1209 30.4121 56.4597 30.6231 55.7814 30.625Z" fill="white"/>
<path d="M64.5312 17.6969V17.5C64.5274 15.1734 63.7835 12.9083 62.4071 11.0325C61.0307 9.15663 59.0932 7.76735 56.8749 7.06563V5.46875C56.8749 4.59851 56.5292 3.76391 55.9139 3.14856C55.2985 2.5332 54.4639 2.1875 53.5937 2.1875C52.7243 2.1901 51.8912 2.53663 51.2764 3.15142C50.6616 3.76622 50.315 4.59931 50.3124 5.46875V7.06563C48.0942 7.76735 46.1567 9.15663 44.7803 11.0325C43.4039 12.9083 42.66 15.1734 42.6562 17.5V17.6969C41.9328 17.9594 41.3247 18.4677 40.9382 19.1331C40.5516 19.7985 40.4112 20.5786 40.5415 21.337C40.6718 22.0954 41.0646 22.7839 41.651 23.2821C42.2375 23.7803 42.9804 24.0565 43.7499 24.0625H63.4374C64.2069 24.0565 64.9499 23.7803 65.5363 23.2821C66.1228 22.7839 66.5155 22.0954 66.6459 21.337C66.7762 20.5786 66.6358 19.7985 66.2492 19.1331C65.8627 18.4677 65.2546 17.9594 64.5312 17.6969ZM52.4999 5.46875C52.4999 5.17867 52.6152 4.90047 52.8203 4.69535C53.0254 4.49023 53.3036 4.375 53.5937 4.375C53.7397 4.37372 53.8843 4.40325 54.0181 4.46168C54.152 4.5201 54.2719 4.60611 54.3703 4.71406C54.4726 4.81094 54.5537 4.92808 54.6083 5.05801C54.6629 5.18794 54.6899 5.32783 54.6874 5.46875V6.61719C54.3265 6.58438 53.9656 6.5625 53.5937 6.5625C53.2218 6.5625 52.8609 6.58438 52.4999 6.61719V5.46875ZM53.5937 8.75C55.9134 8.75318 58.1371 9.67608 59.7774 11.3163C61.4176 12.9566 62.3405 15.1803 62.3437 17.5H48.1249C48.1249 16.0496 48.7011 14.6586 49.7267 13.633C50.7523 12.6074 52.1433 12.0312 53.5937 12.0312V9.84375C51.5638 9.84607 49.6178 10.6534 48.1825 12.0888C46.7471 13.5241 45.9398 15.4701 45.9374 17.5H44.8437C44.8469 15.1803 45.7698 12.9566 47.41 11.3163C49.0503 9.67608 51.274 8.75318 53.5937 8.75ZM63.4374 21.875H43.7499C43.4599 21.875 43.1817 21.7598 42.9765 21.5546C42.7714 21.3495 42.6562 21.0713 42.6562 20.7812C42.6562 20.4912 42.7714 20.213 42.9765 20.0079C43.1817 19.8027 43.4599 19.6875 43.7499 19.6875H63.4374C63.7275 19.6875 64.0057 19.8027 64.2108 20.0079C64.416 20.213 64.5312 20.4912 64.5312 20.7812C64.5312 21.0713 64.416 21.3495 64.2108 21.5546C64.0057 21.7598 63.7275 21.875 63.4374 21.875Z" fill="white"/>
<path d="M19.6875 14.2188H17.5V16.4062H19.6875V14.2188Z" fill="white"/>
<path d="M24.0625 14.2188H21.875V16.4062H24.0625V14.2188Z" fill="white"/>
</svg>
