<svg width="62" height="62" viewBox="0 0 62 62" fill="none" xmlns="http://www.w3.org/2000/svg">
<path d="M31 62C48.1208 62 62 48.1208 62 31C62 13.8792 48.1208 0 31 0C13.8792 0 0 13.8792 0 31C0 48.1208 13.8792 62 31 62Z" fill="white"/>
<path d="M31 53C43.1503 53 53 43.1503 53 31C53 18.8497 43.1503 9 31 9C18.8497 9 9 18.8497 9 31C9 43.1503 18.8497 53 31 53Z" fill="#651FFF" stroke="white" stroke-width="4"/>
<path d="M33.3204 21.9023V39H30.0392V25.9336L26.7812 27.1875V24.4453L32.9688 21.9023H33.3204Z" fill="white"/>
<path d="M31 53C43.1503 53 53 43.1503 53 31C53 18.8497 43.1503 9 31 9C18.8497 9 9 18.8497 9 31C9 43.1503 18.8497 53 31 53Z" stroke="#FDBF0F" stroke-width="4"/>
</svg>
