<svg width="62" height="62" viewBox="0 0 62 62" fill="none" xmlns="http://www.w3.org/2000/svg">
<path d="M31 62C48.1208 62 62 48.1208 62 31C62 13.8792 48.1208 0 31 0C13.8792 0 0 13.8792 0 31C0 48.1208 13.8792 62 31 62Z" fill="white"/>
<path d="M31 53C43.1503 53 53 43.1503 53 31C53 18.8497 43.1503 9 31 9C18.8497 9 9 18.8497 9 31C9 43.1503 18.8497 53 31 53Z" fill="#651FFF" stroke="white" stroke-width="4"/>
<path d="M36.0977 36.2695V39H26.043V36.668L30.6602 30.7969C31.1055 30.1797 31.4531 29.6406 31.7031 29.1797C31.9531 28.7109 32.1328 28.293 32.2422 27.9258C32.3516 27.5508 32.4062 27.1992 32.4062 26.8711C32.4062 26.3633 32.3477 25.9297 32.2305 25.5703C32.1133 25.2031 31.9375 24.9219 31.7031 24.7266C31.4766 24.5234 31.1953 24.4219 30.8594 24.4219C30.4531 24.4219 30.1172 24.5469 29.8516 24.7969C29.5859 25.0469 29.3867 25.3906 29.2539 25.8281C29.1289 26.2578 29.0664 26.7461 29.0664 27.293H25.7734C25.7734 26.2695 25.9805 25.332 26.3945 24.4805C26.8164 23.6289 27.4062 22.9531 28.1641 22.4531C28.9297 21.9453 29.8477 21.6914 30.918 21.6914C31.9648 21.6914 32.8398 21.8867 33.543 22.2773C34.2539 22.668 34.7891 23.2266 35.1484 23.9531C35.5156 24.6719 35.6992 25.5312 35.6992 26.5312C35.6992 27.1016 35.625 27.6562 35.4766 28.1953C35.3281 28.7266 35.1172 29.2578 34.8438 29.7891C34.5703 30.3125 34.2344 30.8477 33.8359 31.3945C33.4375 31.9414 32.9883 32.5078 32.4883 33.0938L30.2617 36.2695H36.0977Z" fill="white"/>
<path d="M31 53C43.1503 53 53 43.1503 53 31C53 18.8497 43.1503 9 31 9C18.8497 9 9 18.8497 9 31C9 43.1503 18.8497 53 31 53Z" stroke="#FDBF0F" stroke-width="4"/>
</svg>
