<svg width="62" height="62" viewBox="0 0 62 62" fill="none" xmlns="http://www.w3.org/2000/svg">
<path d="M31 62C48.1208 62 62 48.1208 62 31C62 13.8792 48.1208 0 31 0C13.8792 0 0 13.8792 0 31C0 48.1208 13.8792 62 31 62Z" fill="white"/>
<path d="M31 53C43.1503 53 53 43.1503 53 31C53 18.8497 43.1503 9 31 9C18.8497 9 9 18.8497 9 31C9 43.1503 18.8497 53 31 53Z" fill="#651FFF" stroke="white" stroke-width="4"/>
<path d="M28.9961 28.957H30.5898C31.0039 28.957 31.3438 28.8633 31.6094 28.6758C31.875 28.4805 32.0703 28.207 32.1953 27.8555C32.3203 27.5039 32.3828 27.0938 32.3828 26.625C32.3828 26.1875 32.3242 25.8047 32.207 25.4766C32.0898 25.1484 31.9102 24.8906 31.668 24.7031C31.4258 24.5156 31.1211 24.4219 30.7539 24.4219C30.4727 24.4219 30.2109 24.5 29.9688 24.6562C29.7266 24.8125 29.5312 25.0352 29.3828 25.3242C29.2422 25.6055 29.1719 25.9453 29.1719 26.3438H25.8672C25.8672 25.4062 26.082 24.5898 26.5117 23.8945C26.9414 23.1992 27.5195 22.6562 28.2461 22.2656C28.9727 21.875 29.7773 21.6797 30.6602 21.6797C31.6523 21.6797 32.5234 21.8672 33.2734 22.2422C34.0234 22.6094 34.6094 23.1562 35.0312 23.8828C35.4531 24.6016 35.6641 25.4922 35.6641 26.5547C35.6641 27.1016 35.5586 27.6289 35.3477 28.1367C35.1445 28.6445 34.8477 29.1016 34.457 29.5078C34.0664 29.9062 33.5898 30.2227 33.0273 30.457C32.4727 30.6914 31.8398 30.8086 31.1289 30.8086H28.9961V28.957ZM28.9961 31.6172V29.8242H31.1289C31.9258 29.8242 32.6211 29.9297 33.2148 30.1406C33.8164 30.3438 34.3125 30.6406 34.7031 31.0312C35.1016 31.4219 35.3984 31.8867 35.5938 32.4258C35.7891 32.9648 35.8867 33.5586 35.8867 34.207C35.8867 35.0039 35.7539 35.7148 35.4883 36.3398C35.2227 36.9648 34.8516 37.4922 34.375 37.9219C33.8984 38.3516 33.3438 38.6797 32.7109 38.9062C32.0781 39.125 31.3906 39.2344 30.6484 39.2344C30.0312 39.2344 29.4258 39.1367 28.832 38.9414C28.2461 38.7461 27.7188 38.4453 27.25 38.0391C26.7812 37.6328 26.4102 37.1211 26.1367 36.5039C25.8633 35.8867 25.7266 35.1562 25.7266 34.3125H29.0078C29.0078 34.7344 29.082 35.1133 29.2305 35.4492C29.3789 35.7773 29.582 36.0352 29.8398 36.2227C30.1055 36.4102 30.4023 36.5039 30.7305 36.5039C31.1133 36.5039 31.4453 36.4062 31.7266 36.2109C32.0078 36.0156 32.2227 35.7422 32.3711 35.3906C32.5195 35.0391 32.5938 34.6289 32.5938 34.1602C32.5938 33.5586 32.5156 33.0742 32.3594 32.707C32.2031 32.332 31.9766 32.0586 31.6797 31.8867C31.3828 31.707 31.0234 31.6172 30.6016 31.6172H28.9961Z" fill="white"/>
<path d="M31 53C43.1503 53 53 43.1503 53 31C53 18.8497 43.1503 9 31 9C18.8497 9 9 18.8497 9 31C9 43.1503 18.8497 53 31 53Z" stroke="#FDBF0F" stroke-width="4"/>
</svg>
