<svg width="122" height="134" viewBox="0 0 122 134" fill="none" xmlns="http://www.w3.org/2000/svg">
<path d="M60 37.604C69.723 37.604 78.861 41.39 85.737 48.263C92.613 55.136 96.399 64.277 96.399 74C96.399 83.723 92.613 92.861 85.737 99.737C78.861 106.613 69.723 110.396 60 110.396C50.277 110.396 41.139 106.61 34.263 99.737C27.387 92.864 23.604 83.723 23.604 74C23.604 64.277 27.39 55.139 34.263 48.263C41.139 41.39 50.277 37.604 60 37.604ZM60 14C26.862 14 0 40.862 0 74C0 107.138 26.862 134 60 134C93.138 134 120 107.138 120 74C120 40.862 93.138 14 60 14Z" fill="#E5E5E5" fill-opacity="0.6"/>
<path d="M60.0002 53.429C48.6392 53.429 39.4292 62.639 39.4292 74C39.4292 85.361 48.6392 94.571 60.0002 94.571C71.3612 94.571 80.5712 85.361 80.5712 74C80.5712 62.639 71.3612 53.429 60.0002 53.429Z" fill="#E5E5E5" fill-opacity="0.6"/>
<path d="M121.086 100.617V117H60.7578V103.008L88.4609 67.7812C91.1328 64.0781 93.2188 60.8438 94.7188 58.0781C96.2188 55.2656 97.2969 52.7578 97.9531 50.5547C98.6094 48.3047 98.9375 46.1953 98.9375 44.2266C98.9375 41.1797 98.5859 38.5781 97.8828 36.4219C97.1797 34.2188 96.125 32.5313 94.7188 31.3594C93.3594 30.1406 91.6719 29.5312 89.6562 29.5312C87.2188 29.5312 85.2031 30.2813 83.6094 31.7812C82.0156 33.2812 80.8203 35.3438 80.0234 37.9688C79.2734 40.5469 78.8984 43.4766 78.8984 46.7578H59.1406C59.1406 40.6172 60.3828 34.9922 62.8672 29.8828C65.3984 24.7734 68.9375 20.7188 73.4844 17.7188C78.0781 14.6719 83.5859 13.1484 90.0078 13.1484C96.2891 13.1484 101.539 14.3203 105.758 16.6641C110.023 19.0078 113.234 22.3594 115.391 26.7188C117.594 31.0312 118.695 36.1875 118.695 42.1875C118.695 45.6094 118.25 48.9375 117.359 52.1719C116.469 55.3594 115.203 58.5469 113.562 61.7344C111.922 64.875 109.906 68.0859 107.516 71.3672C105.125 74.6484 102.43 78.0469 99.4297 81.5625L86.0703 100.617H121.086Z" fill="black"/>
<circle cx="16.5" cy="50.5" r="16.5" fill="black"/>
<path d="M26.2607 52.0518V53.3262H21.0312V52.0518H26.2607ZM20.6357 47.833V47.209C20.6357 46.6055 20.7588 46.0664 21.0049 45.5918C21.2568 45.1172 21.6084 44.7451 22.0596 44.4756C22.5107 44.2002 23.0469 44.0625 23.668 44.0625C24.2949 44.0625 24.834 44.2002 25.2852 44.4756C25.7363 44.7451 26.085 45.1172 26.3311 45.5918C26.5771 46.0664 26.7002 46.6055 26.7002 47.209V47.833C26.7002 48.4365 26.5771 48.9756 26.3311 49.4502C26.0908 49.9189 25.7451 50.291 25.2939 50.5664C24.8428 50.8359 24.3066 50.9707 23.6855 50.9707C23.0586 50.9707 22.5166 50.8359 22.0596 50.5664C21.6084 50.291 21.2568 49.9189 21.0049 49.4502C20.7588 48.9756 20.6357 48.4365 20.6357 47.833ZM22.1387 47.209V47.833C22.1387 48.1787 22.1943 48.4951 22.3057 48.7822C22.417 49.0635 22.5869 49.2891 22.8154 49.459C23.0498 49.623 23.3398 49.7051 23.6855 49.7051C24.0254 49.7051 24.3066 49.623 24.5293 49.459C24.7578 49.2891 24.9248 49.0635 25.0303 48.7822C25.1416 48.4951 25.1973 48.1787 25.1973 47.833V47.209C25.1973 46.8691 25.1416 46.5586 25.0303 46.2773C24.9189 45.9902 24.749 45.7617 24.5205 45.5918C24.2979 45.4219 24.0137 45.3369 23.668 45.3369C23.3281 45.3369 23.0439 45.4219 22.8154 45.5918C22.5869 45.7617 22.417 45.9902 22.3057 46.2773C22.1943 46.5586 22.1387 46.8691 22.1387 47.209ZM19.5635 44.2031V57H16.7686L13.0508 48.5098V57H10.502V44.2031H13.2969L17.0146 52.7021V44.2031H19.5635Z" fill="white"/>
</svg>
