<svg width="32" height="32" viewBox="0 0 32 32" fill="none" xmlns="http://www.w3.org/2000/svg">
<path d="M32 16.2962C32 7.68039 24.833 0.700195 16 0.700195C7.161 0.700195 0 7.68039 0 16.2962C0 24.0786 5.849 30.5315 13.5 31.7002V20.8054H9.437V16.2972H13.5V12.8592C13.5 8.95146 15.885 6.79336 19.541 6.79336C21.292 6.79336 23.125 7.09749 23.125 7.09749V10.9351H21.104C19.12 10.9351 18.5 12.1389 18.5 13.372V16.2962H22.937L22.224 20.8044H18.5V31.6992C26.145 30.5305 32 24.0776 32 16.2952V16.2962Z" fill="white"/>
</svg>
