<svg width="31" height="32" viewBox="0 0 31 32" fill="none" xmlns="http://www.w3.org/2000/svg">
<path d="M15.4958 11.0313C12.6497 11.0313 10.3271 13.354 10.3271 16.2002C10.3271 19.0464 12.6497 21.3691 15.4958 21.3691C18.342 21.3691 20.6646 19.0464 20.6646 16.2002C20.6646 13.354 18.342 11.0313 15.4958 11.0313ZM30.9983 16.2002C30.9983 14.0597 31.0177 11.9387 30.8975 9.80212C30.7773 7.32045 30.2111 5.11796 28.3964 3.30323C26.5779 1.48463 24.3793 0.922373 21.8977 0.802167C19.7573 0.681961 17.6362 0.701349 15.4997 0.701349C13.3593 0.701349 11.2383 0.681961 9.10176 0.802167C6.62013 0.922373 4.41768 1.48851 2.60299 3.30323C0.784418 5.12184 0.222174 7.32045 0.10197 9.80212C-0.0182344 11.9426 0.00115335 14.0636 0.00115335 16.2002C0.00115335 18.3368 -0.0182344 20.4617 0.10197 22.5983C0.222174 25.0799 0.788296 27.2824 2.60299 29.0972C4.42156 30.9158 6.62013 31.478 9.10176 31.5982C11.2422 31.7184 13.3632 31.699 15.4997 31.699C17.6401 31.699 19.7611 31.7184 21.8977 31.5982C24.3793 31.478 26.5817 30.9119 28.3964 29.0972C30.215 27.2786 30.7773 25.0799 30.8975 22.5983C31.0215 20.4617 30.9983 18.3406 30.9983 16.2002V16.2002ZM15.4958 24.1532C11.0948 24.1532 7.54298 20.6013 7.54298 16.2002C7.54298 11.7991 11.0948 8.2472 15.4958 8.2472C19.8969 8.2472 23.4487 11.7991 23.4487 16.2002C23.4487 20.6013 19.8969 24.1532 15.4958 24.1532ZM23.7744 9.77886C22.7468 9.77886 21.9171 8.94905 21.9171 7.92148C21.9171 6.89391 22.7468 6.0641 23.7744 6.0641C24.8019 6.0641 25.6317 6.89391 25.6317 7.92148C25.6321 8.16548 25.5842 8.40714 25.491 8.63263C25.3978 8.85811 25.261 9.06299 25.0884 9.23553C24.9159 9.40806 24.711 9.54486 24.4855 9.6381C24.2601 9.73133 24.0184 9.77916 23.7744 9.77886V9.77886Z" fill="white"/>
</svg>
