<svg width="211" height="21" viewBox="0 0 211 21" fill="none" xmlns="http://www.w3.org/2000/svg">
<path d="M36.3355 13.3659C36.37 12.9754 37.1516 13.5324 37.2396 13.6912C37.3212 13.8381 37.4081 13.9993 37.2337 14.0996C37.0617 14.1987 37.0236 14.1778 37.0236 14.1778C36.9736 14.0912 36.5272 14.1241 36.4492 14.0506C36.3057 13.9139 36.3129 13.6059 36.3355 13.3659ZM37.1408 15.0798C37.1408 15.0798 37.2027 14.8852 37.4349 14.8924C37.6712 14.8996 37.5325 15.1992 37.551 15.2446C37.551 15.2446 37.5188 15.4548 37.4301 15.5616C37.3516 15.6559 37.1004 15.7157 37.0152 15.5998C36.92 15.4739 37.123 15.2267 37.1408 15.0798ZM33.0742 13.3157C33.0302 13.3963 32.3909 14.5915 32.5778 15.4201C32.6254 15.6333 32.7141 16.4965 33.0022 16.7485C33.1558 16.8977 33.623 17.2099 33.7831 17.3049C33.9296 17.3932 34.1867 17.466 34.3879 17.558C34.745 17.7144 35.3504 17.9019 35.9153 17.7341C36.126 17.672 36.8956 17.3866 36.9801 17.3425C37.1313 17.2631 37.7069 16.6464 37.8688 16.2022C38.0396 15.7276 38.4045 15.2321 38.223 14.4942C38.1849 14.339 37.6992 13.299 37.3349 12.9623C37.2105 12.8423 37.1129 12.671 37.0164 12.6053C36.8063 12.4668 36.5676 12.4668 36.4129 12.2495C36.3075 12.1062 35.7736 12.0513 35.4891 12.1396C35.1236 12.2584 34.7635 12.1701 34.4611 12.2829C34.2426 12.3671 34.0063 12.5175 33.8194 12.6399C33.595 12.7874 33.22 13.0638 33.0742 13.3157ZM22.5207 0.36741C22.5207 -0.194366 23.0796 -0.00929601 23.0695 0.247413C23.1755 0.603822 22.5344 0.672476 22.5207 0.36741ZM32.2212 12.3199C32.6784 12.4435 32.2796 13.136 32.0099 12.8548C31.6308 12.7026 31.932 12.1593 32.2212 12.3199ZM14.0726 19.2672C14.6214 18.7144 15.2511 18.1675 15.8107 17.7001C16.0476 17.5019 16.2166 17.2828 16.4166 17.1287C16.5398 17.032 16.716 17.0135 16.8428 16.9168C16.9452 16.8338 17.438 16.0876 17.7303 15.8464C18.4428 15.6643 18.9237 15.2237 19.6124 14.8136C19.8053 14.6996 20.0321 14.6781 20.1797 14.6005C20.3565 14.5073 20.5761 14.1784 20.7505 14.3861C20.3344 14.4667 20.4118 14.8166 20.2154 15.0995C20.1118 15.2524 19.9053 15.2625 19.7553 15.3843C19.4702 15.613 19.2856 15.9228 19.0797 16.1676C18.3487 16.6494 17.6904 17.281 17.0196 17.8057C16.7874 17.989 16.5767 18.2195 16.344 18.3771C16.2196 18.4601 15.7874 18.7842 15.6714 18.8762C15.5142 18.995 15.2803 19.0708 15.1017 19.1967C14.9166 19.3263 14.3797 19.6702 14.2839 19.7299C14.1119 19.8373 14.0041 20.054 13.8226 20.1567C13.6898 20.2325 13.3506 20.7907 13.0053 20.5149C12.1696 20.0296 13.6321 19.7054 14.0726 19.2672ZM29.4516 1.95184C29.7986 2.02289 30.2123 2.39601 29.9623 2.76914C29.8974 2.86107 29.7183 2.89033 29.529 2.70705C29.2534 2.44556 28.8986 3.07659 28.6689 2.7769C28.6498 2.70705 28.6302 2.63839 28.6326 2.5578C28.6522 2.17094 28.9558 1.85274 29.4516 1.95184ZM0.326266 8.75524C0.48817 8.52062 0.572693 8.13735 0.784596 7.97258C0.92269 7.86512 1.28102 7.73258 1.56792 7.65079C1.94113 7.54811 2.46791 7.49916 2.95363 7.43946C3.44767 7.37558 3.89886 7.24483 4.26611 7.15349C4.73932 7.0335 5.20063 6.97977 5.1917 6.54575C5.18456 6.19233 4.83694 6.13979 4.65897 5.90577C4.57921 5.7995 4.53814 5.61563 4.44647 5.48011C4.20897 5.13027 3.806 4.4867 3.94766 3.94701C4.01731 3.68672 4.5929 2.99779 4.87325 2.94764C5.39289 2.85689 6.03931 3.30345 6.53931 3.44673C6.94228 3.56314 7.34466 3.61329 7.7143 3.69747C8.77679 3.93985 9.8744 4.11596 11.1613 4.19537C12.6678 4.28969 14.0529 4.50998 15.0327 3.80373C14.4511 3.49807 13.6071 3.5112 12.7202 3.4121C12.1458 3.34942 10.7161 3.26166 10.6988 2.73332C10.6803 2.31243 11.5565 2.01035 11.8345 1.84498C12.0113 1.73633 12.119 1.56857 12.2601 1.48798C12.4922 1.35604 12.7381 1.35365 13.0398 1.23843C13.2875 1.14649 13.4839 0.973961 13.7506 0.881426C14.1386 0.748295 14.7047 0.706505 15.2803 0.563226C16.3035 0.305322 17.4428 0.227712 18.6904 0.311292C18.9946 0.333381 19.6898 0.383529 19.8618 0.525615C20.2237 0.831278 19.8565 1.21097 19.9666 1.63006C20.0815 2.06169 21.0535 2.22229 21.7082 2.52078C21.916 2.61869 22.007 2.7363 22.1707 2.84257C22.5975 3.12137 22.8939 3.26703 23.2683 3.65986C23.7148 4.12373 23.8755 4.46879 24.088 5.01385C24.1695 5.21564 24.2725 5.44071 24.3005 5.65622C24.432 6.64485 23.8963 7.48244 23.4844 7.97198C23.0868 8.44421 22.7058 8.43047 21.9939 8.57734C21.5999 8.65674 21.2445 8.74868 20.8922 8.79047C18.9529 9.02389 17.194 8.83106 15.4559 8.8639C15.7059 8.98389 15.8547 9.28836 16.1315 9.43284C16.6035 9.67999 17.4428 9.6985 18.1577 9.75342C18.91 9.80954 19.669 9.8782 20.2862 9.89551C19.2065 10.8131 16.9791 10.8095 15.0327 10.714C14.3083 10.68 13.647 10.6591 13.0053 10.5731C12.319 10.4788 11.8208 10.2268 11.2649 10.1104C10.9589 10.0442 10.6988 10.0567 10.4488 9.96834C10.1673 9.86685 9.92321 9.66626 9.66488 9.57671C9.41845 9.48716 9.19226 9.46149 8.99107 9.36239C8.79584 9.26329 8.65596 9.10031 8.45834 9.00419C8.32025 8.93912 8.16311 8.93315 8.03275 8.86449C7.59109 8.61972 7.04585 7.96183 6.47026 7.97258C6.18098 7.97855 5.95181 8.21257 5.69051 8.29317C5.17861 8.44958 4.66016 8.43883 4.12683 8.65017C3.60243 8.85673 3.09648 8.89375 2.56434 9.00479C1.71316 9.18329 0.931023 9.76954 0.0417449 9.61134C-0.108254 9.21971 0.18341 8.96061 0.326266 8.75524ZM19.466 16.3879C19.5452 16.4965 19.6856 16.5264 19.8219 16.5777C19.8898 16.5158 19.9735 16.4738 20.0636 16.4565C20.4344 16.4028 20.9213 16.7425 20.9148 17.0631C20.91 17.3496 20.5749 17.4523 20.4172 17.7031C20.2993 17.8941 20.3672 18.0433 20.1696 18.1681C20.0323 18.1603 19.8993 18.1177 19.7829 18.0443C19.6665 17.9709 19.5706 17.8691 19.5041 17.7484C19.3975 17.7114 19.2856 17.669 19.1684 17.6643C18.9452 17.6547 18.8523 17.7878 18.644 17.6768C18.3618 17.0876 18.8029 16.4876 19.466 16.3879ZM118.368 11.6346C118.195 12.3235 118.203 12.7026 117.641 13.0524C117.121 13.3683 116.971 13.5712 116.383 13.6679C116.012 13.7306 115.248 13.9091 114.869 13.9467C113.097 14.1217 112.344 13.7462 111.346 13.6972C110.073 13.6363 109.55 13.0745 109.08 11.4913C108.769 10.4382 108.93 9.7982 108.806 8.74271C108.703 7.9093 108.656 6.78515 108.779 5.92666C108.841 5.49085 108.802 5.02519 109.08 4.40014C109.27 3.97686 109.5 3.62702 109.955 3.46942C111.11 3.06704 111.469 3.02167 112.701 3.08256L113.518 3.07778C114.045 3.06704 114.646 3.11957 115.168 3.15838C115.946 3.21927 116.535 3.35897 117.269 3.64434C117.902 3.88791 117.734 4.31954 118.011 4.96549C118.316 5.67234 118.304 6.57321 118.326 7.34513C118.357 8.75524 118.72 10.2328 118.368 11.6346ZM122.788 6.22158C122.29 5.43712 121.755 4.71058 120.982 4.13805C120.744 3.96433 119.661 3.30464 119.45 3.20435C119.082 3.03182 117.367 2.3393 116.824 2.21691C115.788 1.98229 111.677 2.10408 111.077 2.16199C110.094 2.2599 108.144 3.05271 107.797 3.20435C107.585 3.29629 106.439 3.9703 106.21 4.13925C106.022 4.27357 105.127 5.08012 105.006 5.23534C104.823 5.46279 104.044 6.63709 103.968 6.88067C103.648 7.86691 103.705 9.40418 103.968 10.228C104.104 10.6638 104.886 11.779 105.006 11.9307C105.216 12.1898 105.725 12.5778 106.1 12.8626C106.597 13.2381 107.263 13.7229 107.688 13.905C107.982 14.0273 109.294 14.5939 109.658 14.7294C110.817 15.1598 113.223 14.93 113.309 14.9348C113.529 14.9509 115.385 15.0458 116.004 15.0022C117.207 14.9216 119.25 14.0124 119.503 13.905C119.734 13.8082 120.901 13.0489 121.144 12.8626C121.319 12.7283 122.124 12.0125 122.24 11.8752C122.415 11.6698 123.201 10.3474 123.278 10.1182C123.748 8.69256 123.31 7.05439 122.788 6.22158ZM182.431 10.474C182.259 10.5427 181.93 10.5349 181.741 10.5349C180.501 10.5349 179.258 10.52 178.017 10.5116C177.683 10.5116 176.913 10.5361 177.148 10.071C177.297 9.76775 177.334 9.45791 177.474 9.14508C177.687 8.67524 177.927 8.27645 178.056 7.77616C178.156 7.39707 178.328 7.01021 178.483 6.65202C178.615 6.34755 178.71 6.098 178.771 5.77383C178.851 5.34817 179.098 4.91356 179.278 4.52133C179.402 4.25208 179.784 3.07181 180.05 3.60493C180.141 3.78224 180.319 4.27059 180.41 4.45745C180.556 4.75475 180.654 5.09086 180.778 5.40429C181.072 6.16666 181.421 6.90932 181.689 7.68482C181.794 7.9869 181.83 8.32839 181.96 8.62689C182.074 8.88718 182.132 9.15643 182.231 9.41851C182.315 9.6191 182.386 9.87342 182.415 10.0889C182.439 10.2424 182.58 10.4161 182.431 10.474ZM189.914 14.5073C189.94 13.7694 189.554 14.3103 189.194 13.7378C189.07 13.536 189.056 13.1993 188.926 12.9145C188.74 12.5426 188.223 11.465 188.156 11.2704C188.004 10.8119 187.63 10.4877 187.444 10.0639C187.29 9.70029 186.741 8.46152 186.625 8.19705C186.467 7.8484 185.734 6.29859 185.581 5.83831C185.346 5.09086 184.961 4.65147 184.765 4.08134C184.693 3.86582 184.602 3.56494 184.518 3.35718C184.194 2.53869 183.658 2.39064 182.797 2.43601C181.171 2.52317 178.125 2.28915 176.83 2.32855C176.633 2.33094 175.841 2.36915 176.066 2.91719C176.141 3.64493 178.818 2.8354 178.69 3.36852C178.519 4.11358 178.042 5.86517 177.218 7.25618C177.218 7.25618 176.519 8.46749 176.389 9.00061C176.389 9.00061 175.787 10.2328 175.439 10.9337C175.281 11.1725 175.199 11.4435 175.093 11.7408C175.023 11.938 174.969 12.1404 174.93 12.3462C174.893 12.5581 174.715 12.6166 174.622 12.8124C174.47 13.1426 174.261 13.379 174.052 13.77C173.956 13.9438 173.728 14.0279 173.549 14.1223C172.84 14.176 172.255 14.3276 172.236 14.5628C172.216 15.2273 173.188 14.9801 173.67 14.9545C174.587 14.8948 176.065 15.1282 176.065 14.6196C176.065 14.5133 176.118 14.327 175.974 14.2548C175.816 14.1754 175.718 14.1897 175.406 14.1706C175.322 14.1635 175.082 14.1497 175.157 13.9282C175.231 13.7139 175.298 13.5271 175.372 13.3324C175.525 12.9521 175.79 12.5008 175.937 12.1223C176.09 11.7367 176.419 11.4358 176.748 11.4226C177.767 11.3946 178.318 11.4143 179.455 11.4352C180.464 11.4525 181.544 11.2489 182.371 11.3629C182.734 11.4155 182.917 11.4513 183.116 11.9474C183.296 12.3951 183.507 12.9199 183.681 13.4363C183.737 13.5951 183.737 13.5981 183.786 13.7521C183.994 14.2769 182.236 13.6924 182.521 14.6196C182.7 15.1151 183.326 14.7825 183.778 14.7664C185.4 14.7002 187.59 14.6488 189.303 14.7294C189.892 14.7545 189.914 14.7616 189.914 14.5073ZM134.123 13.5605C133.831 13.5826 133.5 13.6023 133.323 13.6023C132.545 13.6023 131.769 13.6733 131.004 13.6405C130.406 13.6076 127.644 13.7873 127.434 13.6208C126.994 13.1336 127.711 12.3671 127.923 11.9277C128.231 11.2782 128.394 10.6441 128.65 9.96297C128.923 9.23635 129.188 8.50636 129.444 7.77318C129.75 6.89141 130.173 5.99054 130.528 5.1428C130.679 4.78341 130.844 4.29506 130.956 3.95239C131.046 3.66105 131.427 3.2342 131.644 4.11119C131.979 5.48608 132.381 6.88485 132.863 8.21794C133.194 9.10747 134.007 11.7987 134.157 12.2369C134.226 12.4447 134.373 12.7336 134.466 12.9695C134.53 13.1259 134.735 13.5139 134.123 13.5605ZM142.764 14.0351C142.321 13.8661 141.299 13.985 140.76 13.825C140.347 13.7014 140.538 13.7151 140.225 13.1927C140.057 12.908 139.575 11.8029 139.405 11.4346C139.301 11.2107 138.586 9.96178 138.418 9.57134C138.237 9.13075 137.834 7.94929 137.764 7.75945C137.606 7.31528 136.707 5.71771 136.518 5.37503C136.432 5.21982 135.906 4.14402 135.671 3.20614C135.497 2.50049 134.698 2.399 134.517 2.40258C132.292 2.49093 129.867 2.41631 127.829 2.38049C127.643 2.38049 127.078 2.38407 127.065 2.8551C127.023 4.06641 128.253 3.38464 128.782 3.4533C129.197 3.47897 129.944 3.41389 130.038 3.6109C130.129 3.80911 129.728 4.79654 129.487 5.1828C129.244 5.56966 128.809 6.23471 128.595 6.90634C128.385 7.57318 127.344 9.87044 127.209 10.3785C127.073 10.8889 126.537 12.2137 126.511 12.3456L126.056 13.7527C125.784 14.0417 125.068 13.902 124.694 13.967C124.434 14.0112 123.876 13.8632 123.579 13.9461C123.078 14.0858 122.894 14.8196 122.729 15.2966C122.541 15.8315 122.365 16.158 122.434 16.7765C122.421 16.9795 122.798 17.1508 123.028 17.1508C123.301 17.1508 124.144 17.1311 124.109 16.8732C124.101 16.6494 124.022 16.2541 124.08 15.8679C124.472 14.5652 124.341 14.9455 125.038 15.0016C125.545 15.0398 127.106 14.9587 127.806 14.9724C130.307 15.0225 132.347 14.8172 135.133 14.779C136.514 14.7605 138.464 14.7055 139.819 14.7975C140.902 14.8733 141.494 14.5396 141.558 15.0578C141.694 15.2876 142.135 16.5419 142.135 16.7753C142.115 16.9932 142.685 17.1801 143.134 17.1496C143.817 17.1019 143.795 16.8511 143.763 16.6541C143.556 15.7664 143.152 14.244 142.764 14.0351ZM171.01 10.6943C170.328 10.5427 170.467 11.5456 169.396 12.2578C169.187 12.3945 168.32 12.9563 168.031 13.0823C167.728 13.2154 166.482 13.6363 166.197 13.7467C165.705 13.9473 164.894 13.9963 164.226 14.0942C163.581 14.1885 161.78 14.1933 161.359 14.0942C160.842 13.9766 159.949 13.9814 159.62 13.8482C159.155 13.6673 158.46 13.1462 158.389 12.5157C158.202 11.0035 158.361 9.86566 158.361 8.59107C158.361 7.25618 158.003 5.64548 158.444 4.64431C158.696 4.05925 159.172 3.29151 159.764 3.04196C161.5 2.2993 166.037 3.42345 166.276 2.92913C166.631 2.02886 164.672 2.16199 163.704 2.16199C162.627 2.16199 161.392 1.95901 160.476 2.05214C159.36 2.16497 158.545 2.26408 157.502 2.65869C157.098 2.81033 156.619 3.04793 156.264 3.20435C156.048 3.29987 154.634 4.26641 154.13 4.73983C153.537 5.3028 152.701 6.20307 152.433 6.99051C152.139 7.86273 152.161 9.59522 152.433 10.2286C152.773 11.0131 154.661 13.2954 156.097 13.905C156.328 14.0052 158.239 14.7563 158.739 14.8482C160.53 15.1652 164.655 15.3951 165.705 15.0231C165.973 14.9264 167.516 14.4566 168.012 14.0948C168.513 13.7354 168.993 13.5139 169.337 13.4429C170.075 13.29 169.944 13.5748 170.653 13.6853C171.279 13.7939 171.594 11.9772 171.625 11.0316C171.636 10.6901 171.24 10.7283 171.01 10.6943ZM145.608 7.21857C144.148 7.70691 144.429 9.81432 145.743 10.0507C148.257 10.5092 148.238 6.34038 145.608 7.21857ZM96.3457 9.24657C96.2534 9.57194 95.6308 10.4627 94.616 10.4967C94.2427 10.5092 93.6023 10.5641 93.2148 10.5349C92.5636 10.4895 92.6463 10.4859 91.9499 10.4895C91.2279 10.4919 91.0445 10.0089 91.0535 8.72659C91.0535 8.21675 91.0469 6.79888 91.0445 6.29919C91.0267 4.507 90.6582 3.46106 92.0928 3.46106C92.5928 3.46106 93.2088 3.41688 93.7207 3.4718C94.2517 3.52553 95.6909 3.29211 96.1171 3.88911C96.4856 4.39775 96.8564 5.2419 96.8564 6.72724C96.8588 8.02989 96.5725 8.47704 96.3457 9.24657ZM100.074 3.7512C99.3445 3.21689 99.1629 3.14942 98.2088 2.87421C97.9022 2.78466 97.5558 2.6366 97.2272 2.54646C95.5427 2.09274 92.7725 2.33094 90.8832 2.43541C88.3987 2.57392 85.8761 2.26766 83.9333 2.32795C83.6214 2.33392 82.5036 2.15303 82.3708 2.83839C82.2208 4.41029 85.2285 3.10883 85.6648 3.6509C85.7892 3.80135 85.7761 4.01209 85.7922 4.40969C85.8404 5.49981 85.7369 7.10573 85.7369 8.74629C85.7369 10.3283 85.8809 11.988 85.7369 13.1921C85.7101 13.422 85.5785 13.8787 85.5202 13.9581C84.9345 14.7228 83.1375 13.6035 83.0595 14.5611C83.1375 15.4112 84.516 14.9449 85.2869 14.9246C87.6005 14.8607 90.2862 14.9073 92.1892 15.0088C92.5981 15.0321 93.5898 15.1419 93.5094 14.5097C93.3898 13.7551 91.4993 14.8488 91.0463 13.85C90.8285 13.373 90.8285 12.2656 91.1029 11.8167C91.4493 11.2477 93.0749 11.4214 93.8904 11.434C94.4439 11.4447 95.1915 11.5402 95.7505 11.5438C98.4921 11.5587 99.7409 10.514 99.9641 10.394C100.133 10.2997 101.027 9.5791 101.171 9.40537C101.303 9.24 101.846 8.34809 101.932 8.14272C102.191 7.53199 102.222 6.71888 102.043 6.05681C101.774 5.06161 100.78 4.27417 100.074 3.7512ZM167.922 3.96075C168.402 4.14522 168.848 4.37685 169.227 4.73863C169.847 5.11295 169.941 6.84902 171.174 6.28606C171.447 6.19173 171.168 3.6915 170.597 3.58882C169.894 3.47001 169.482 3.77209 168.778 3.47001C168.542 3.36852 168.211 3.08077 167.944 2.94167C167.444 2.68257 166.984 3.58882 167.922 3.96075ZM61.4888 2.07662C61.0412 1.97155 60.1412 2.38109 59.452 2.38109C55.4538 2.3775 49.3491 2.62466 45.9408 2.32855C45.6824 2.30646 45.3408 2.25034 45.2104 2.6957C44.9723 4.03298 47.2854 2.75958 47.7509 3.41628C47.8753 3.59837 47.8866 3.92134 47.9074 4.24671C48.0229 5.67652 47.8265 7.05678 47.8562 8.52599C47.8866 10.0525 47.983 11.3432 47.9074 12.8077C47.889 13.1933 47.7765 13.7861 47.6902 13.905C47.2068 14.5963 45.2259 13.7312 45.2259 14.5628C45.0771 15.2428 46.2396 14.9007 46.8425 14.8787C48.9717 14.7903 51.699 14.8799 53.8181 14.924C54.4401 14.9348 55.6978 15.2201 55.6145 14.5437C55.6978 13.6888 53.6621 14.7431 53.1645 13.905C52.9044 13.4769 52.9984 12.471 52.9984 11.5976C52.9984 8.74808 52.7907 5.83174 53.0669 3.70583C53.2092 3.25808 55.0937 3.24972 56.2431 3.24972C57.2538 3.24972 58.8984 3.12734 59.6752 3.26226C60.0877 3.32972 59.9996 3.53867 60.0496 3.90582C60.1275 4.47237 60.1436 5.43533 61.2829 5.34578C61.7609 5.32369 61.5002 4.17984 61.6412 3.80791C61.9829 2.89988 61.9954 2.20378 61.4888 2.07662ZM201.346 13.5605C201.055 13.5826 200.729 13.6023 200.543 13.6023C199.773 13.6023 198.995 13.6733 198.228 13.6405C197.635 13.6076 194.867 13.7873 194.659 13.6208C194.216 13.1336 194.94 12.3671 195.144 11.9277C195.454 11.2782 195.617 10.6441 195.874 9.96297C196.158 9.21314 196.401 8.52659 196.669 7.77318C196.974 6.89141 197.395 5.99054 197.754 5.1428C197.904 4.78341 198.067 4.29506 198.176 3.95239C198.267 3.66105 198.651 3.2342 198.868 4.11119C199.206 5.48608 199.604 6.88485 200.086 8.21794C200.409 9.10747 201.229 11.7987 201.381 12.2369C201.448 12.4447 201.597 12.7336 201.689 12.9695C201.753 13.1259 201.958 13.5139 201.346 13.5605ZM210.985 16.6541C210.779 15.767 210.377 14.244 209.987 14.0351C209.544 13.8661 208.52 13.985 207.983 13.825C207.572 13.7014 207.764 13.7151 207.447 13.1927C207.28 12.908 206.801 11.8029 206.632 11.4346C206.524 11.2107 205.807 9.96178 205.647 9.57134C205.464 9.13075 205.057 7.94929 204.989 7.75945C204.829 7.31528 203.933 5.71771 203.748 5.37503C203.658 5.21982 203.131 4.14402 202.897 3.20614C202.723 2.50049 201.953 2.2199 201.773 2.22527C199.544 2.31184 197.094 2.41631 195.051 2.38049C194.869 2.38049 194.301 2.38407 194.29 2.8551C194.249 4.06641 195.475 3.38464 196.007 3.4533C196.424 3.47897 197.172 3.41389 197.266 3.6109C197.354 3.80911 196.953 4.79654 196.712 5.1828C196.471 5.56966 196.031 6.23471 195.823 6.90634C195.611 7.57318 194.575 9.87044 194.433 10.3785C194.298 10.8889 193.761 12.2137 193.736 12.3456L193.279 13.7527C193.008 14.0417 192.294 13.902 191.919 13.967C191.656 14.0112 191.102 13.8632 190.804 13.9461C190.302 14.0858 190.119 14.8196 189.953 15.2966C189.766 15.8315 189.591 16.1568 189.66 16.7765C189.644 16.9795 190.022 17.1508 190.253 17.1508C190.526 17.1508 191.372 17.1311 191.332 16.8732C191.326 16.6494 191.249 16.2541 191.304 15.8679C191.7 14.5652 191.57 14.9455 192.262 15.0016C192.769 15.0398 194.332 14.9587 195.032 14.9724C197.531 15.0225 199.571 14.8172 202.359 14.779C203.74 14.7605 205.69 14.7055 207.047 14.7975C208.128 14.8733 208.721 14.5396 208.783 15.0578C208.919 15.2876 209.358 16.5419 209.358 16.7753C209.339 16.9932 209.909 17.1801 210.361 17.1496C211.045 17.1019 211.023 16.8511 210.985 16.6541ZM76.7387 11.6346C76.5661 12.3235 76.5816 12.7026 76.0096 13.0524C75.4935 13.3683 75.3423 13.5712 74.7578 13.6679C74.3834 13.7306 73.6185 13.9091 73.2441 13.9467C71.4697 14.1217 70.7144 13.7462 69.7215 13.6972C68.4436 13.6363 67.9227 13.0745 67.4519 11.4913C67.1394 10.4382 67.3055 9.7982 67.1757 8.74271C67.0709 7.9093 67.0257 6.78515 67.1543 5.92666C67.2138 5.49085 67.1697 5.02519 67.4519 4.40014C67.6441 3.97686 67.8727 3.62702 68.3275 3.46942C69.4852 3.06704 69.8364 3.02167 71.0745 3.08256L71.8905 3.07778C72.4161 3.06704 73.0173 3.11957 73.5417 3.15838C74.3185 3.21927 74.9054 3.35897 75.6393 3.64434C76.2768 3.88791 76.1054 4.31954 76.3846 4.96549C76.6881 5.67234 76.6738 6.57321 76.6976 7.34513C76.7286 8.75524 77.0941 10.2328 76.7387 11.6346ZM79.1173 4.13925C78.8816 3.96433 77.7988 3.30464 77.5893 3.20435C77.2197 3.03182 75.5024 2.3393 74.9584 2.21691C73.9256 1.98229 69.8162 2.10408 69.2138 2.16199C68.2293 2.2599 66.2823 3.05271 65.9334 3.20435C65.7227 3.29629 64.5763 3.9703 64.3495 4.13925C64.1614 4.27357 63.2662 5.08012 63.143 5.23534C62.9603 5.46279 62.1817 6.63709 62.1037 6.88067C61.7853 7.86691 61.8424 9.40418 62.1037 10.228C62.24 10.6638 63.0234 11.779 63.143 11.9307C63.3525 12.1898 63.8614 12.5778 64.2358 12.8626C64.7335 13.2381 65.3983 13.7229 65.8251 13.905C66.118 14.0273 67.4305 14.5939 67.7935 14.7294C68.9537 15.1598 71.3602 14.93 71.4459 14.9348C71.6691 14.9509 73.5215 15.0458 74.1423 15.0022C75.3429 14.9216 77.3869 14.0124 77.6435 13.905C77.8715 13.8082 79.0411 13.0489 79.2804 12.8626C79.4548 12.7283 80.2571 12.0125 80.3804 11.8752C80.5512 11.6698 81.3405 10.3474 81.4173 10.1182C81.8905 8.69315 81.4452 7.05499 80.922 6.22277C80.4321 5.43712 79.8935 4.71058 79.1173 4.13925ZM81.0042 2.28855C80.2446 2.49511 80.9071 3.64672 81.3571 3.1745C81.9881 2.92555 81.4851 2.02408 81.0042 2.28855Z" fill="#BFE142"/>
</svg>
