<svg width="30" height="32" viewBox="0 0 30 32" fill="none" xmlns="http://www.w3.org/2000/svg">
<path d="M15 0.700195C6.71563 0.700195 0 7.63967 0 16.2002C0 24.7607 6.71563 31.7002 15 31.7002C23.2844 31.7002 30 24.7607 30 16.2002C30 7.63967 23.2844 0.700195 15 0.700195ZM20.7687 18.1877C20.7687 18.1877 22.0953 19.5408 22.4219 20.1688C22.4312 20.1818 22.4359 20.1947 22.4391 20.2011C22.5719 20.432 22.6031 20.6112 22.5375 20.7452C22.4281 20.9681 22.0531 21.0779 21.925 21.0875H19.5812C19.4187 21.0875 19.0781 21.0439 18.6656 20.7501C18.3484 20.5208 18.0359 20.1446 17.7312 19.7781C17.2766 19.2324 16.8828 18.7609 16.4859 18.7609C16.4355 18.7608 16.3854 18.769 16.3375 18.7851C16.0375 18.8852 15.6531 19.3276 15.6531 20.5063C15.6531 20.8744 15.3719 21.0859 15.1734 21.0859H14.1C13.7344 21.0859 11.8297 20.9535 10.1422 19.1145C8.07656 16.8622 6.21719 12.3446 6.20156 12.3026C6.08437 12.0104 6.32656 11.8537 6.59062 11.8537H8.95781C9.27344 11.8537 9.37656 12.0523 9.44844 12.2283C9.53281 12.4334 9.84219 13.2487 10.35 14.1658C11.1734 15.6609 11.6781 16.268 12.0828 16.268C12.1587 16.2671 12.2332 16.2471 12.3 16.2099C12.8281 15.9063 12.7297 13.9608 12.7062 13.5571C12.7062 13.4812 12.7047 12.6869 12.4344 12.3058C12.2406 12.0297 11.9109 11.9248 11.7109 11.886C11.7919 11.7706 11.8985 11.677 12.0219 11.6132C12.3844 11.4259 13.0375 11.3984 13.6859 11.3984H14.0469C14.75 11.4081 14.9313 11.4549 15.1859 11.5211C15.7016 11.6487 15.7125 11.9926 15.6672 13.1696C15.6531 13.5038 15.6391 13.8817 15.6391 14.3273C15.6391 14.4242 15.6344 14.5275 15.6344 14.6373C15.6187 15.2363 15.6 15.916 16.0094 16.1954C16.0628 16.2299 16.1245 16.2484 16.1875 16.2486C16.3297 16.2486 16.7578 16.2486 17.9172 14.1933C18.2747 13.5317 18.5855 12.8442 18.8469 12.1363C18.8703 12.0943 18.9391 11.9651 19.0203 11.9151C19.0803 11.8835 19.1468 11.8674 19.2141 11.8683H21.9969C22.3 11.8683 22.5078 11.9151 22.5469 12.0362C22.6156 12.2283 22.5344 12.8144 21.2641 14.5921L20.6969 15.3655C19.5453 16.9251 19.5453 17.0043 20.7687 18.1877V18.1877Z" fill="white"/>
</svg>
