<svg width="26" height="32" viewBox="0 0 26 32" fill="none" xmlns="http://www.w3.org/2000/svg">
<path d="M16.5614 22.2203V25.8704C16.5614 26.6431 16.3333 27.0294 15.8772 27.0294C15.6082 27.0294 15.345 26.9026 15.0877 26.6489V21.4418C15.345 21.1881 15.6082 21.0612 15.8772 21.0612C16.3333 21.0612 16.5614 21.4476 16.5614 22.2203ZM22.4912 22.2376V23.0333H20.9123V22.2376C20.9123 21.4534 21.1754 21.0612 21.7018 21.0612C22.2281 21.0612 22.4912 21.4534 22.4912 22.2376ZM5.54386 18.4664H7.42105V16.8403H1.94737V18.4664H3.78947V28.3096H5.54386V18.4664ZM10.5965 28.3096H12.1579V19.7638H10.5965V26.3029C10.2456 26.7872 9.91228 27.0294 9.59649 27.0294C9.38596 27.0294 9.26316 26.9083 9.22807 26.6662C9.21637 26.6316 9.21053 26.4297 9.21053 26.0607V19.7638H7.64912V26.5278C7.64912 27.0929 7.69591 27.5138 7.78947 27.7906C7.92982 28.2173 8.26901 28.4307 8.80702 28.4307C9.36842 28.4307 9.96491 28.0789 10.5965 27.3754V28.3096ZM18.1228 25.7493V22.3414C18.1228 21.4995 18.0702 20.9286 17.9649 20.6288C17.7661 19.9829 17.3509 19.66 16.7193 19.66C16.1345 19.66 15.5906 19.9714 15.0877 20.5942V16.8403H13.5263V28.3096H15.0877V27.4792C15.614 28.1135 16.1579 28.4307 16.7193 28.4307C17.3509 28.4307 17.7661 28.1135 17.9649 27.4792C18.0702 27.1678 18.1228 26.5912 18.1228 25.7493ZM24.0526 25.5763V25.3514H22.4561C22.4561 25.9396 22.4444 26.2913 22.4211 26.4067C22.3392 26.8218 22.1053 27.0294 21.7193 27.0294C21.1813 27.0294 20.9123 26.6316 20.9123 25.8358V24.3308H24.0526V22.549C24.0526 21.6379 23.8947 20.969 23.5789 20.5423C23.1228 19.9541 22.5029 19.66 21.7193 19.66C20.924 19.66 20.2982 19.9541 19.8421 20.5423C19.5146 20.969 19.3509 21.6379 19.3509 22.549V25.5417C19.3509 26.4528 19.5205 27.1217 19.8596 27.5484C20.3158 28.1366 20.9474 28.4307 21.7544 28.4307C22.5965 28.4307 23.2281 28.125 23.6491 27.5138C23.8596 27.2024 23.9825 26.891 24.0175 26.5797C24.0409 26.4759 24.0526 26.1414 24.0526 25.5763ZM13.386 9.78223V6.14941C13.386 5.35365 13.1345 4.95578 12.6316 4.95578C12.1287 4.95578 11.8772 5.35365 11.8772 6.14941V9.78223C11.8772 10.5895 12.1287 10.9932 12.6316 10.9932C13.1345 10.9932 13.386 10.5895 13.386 9.78223ZM26 22.7739C26 25.4725 25.848 27.4907 25.5439 28.8285C25.3801 29.509 25.0409 30.0798 24.5263 30.5412C24.0117 31.0025 23.4152 31.2677 22.7368 31.3369C20.5848 31.5791 17.3392 31.7002 13 31.7002C8.66082 31.7002 5.4152 31.5791 3.26316 31.3369C2.5848 31.2677 1.98538 31.0025 1.46491 30.5412C0.944444 30.0798 0.608187 29.509 0.45614 28.8285C0.152047 27.5369 0 25.5186 0 22.7739C0 20.0752 0.152047 18.057 0.45614 16.7192C0.619883 16.0387 0.959064 15.4679 1.47368 15.0066C1.9883 14.5452 2.59064 14.2742 3.2807 14.1935C5.42105 13.9628 8.66082 13.8475 13 13.8475C17.3392 13.8475 20.5848 13.9628 22.7368 14.1935C23.4152 14.2742 24.0146 14.5452 24.5351 15.0066C25.0556 15.4679 25.3918 16.0387 25.5439 16.7192C25.848 18.0108 26 20.0291 26 22.7739ZM8.49123 0.700195H10.2807L8.15789 7.60254V12.2906H6.40351V7.60254C6.23977 6.74912 5.88304 5.52665 5.33333 3.93513C4.90058 2.74726 4.52047 1.66895 4.19298 0.700195H6.05263L7.29825 5.24986L8.49123 0.700195ZM14.9825 6.4608V9.48814C14.9825 10.4223 14.8187 11.1027 14.4912 11.5294C14.0468 12.1176 13.4269 12.4117 12.6316 12.4117C11.848 12.4117 11.2339 12.1176 10.7895 11.5294C10.462 11.0912 10.2982 10.4108 10.2982 9.48814V6.4608C10.2982 5.53818 10.462 4.86351 10.7895 4.4368C11.2339 3.84863 11.848 3.55455 12.6316 3.55455C13.4269 3.55455 14.0468 3.84863 14.4912 4.4368C14.8187 4.86351 14.9825 5.53818 14.9825 6.4608ZM20.8596 3.65834V12.2906H19.2632V11.3391C18.6433 12.0542 18.0409 12.4117 17.4561 12.4117C16.9181 12.4117 16.5731 12.1983 16.4211 11.7716C16.3275 11.4948 16.2807 11.0624 16.2807 10.4742V3.65834H17.8772V10.0071C17.8772 10.3877 17.883 10.5895 17.8947 10.6126C17.9298 10.8663 18.0526 10.9932 18.2632 10.9932C18.5789 10.9932 18.9123 10.7452 19.2632 10.2493V3.65834H20.8596Z" fill="white"/>
</svg>
