<svg width="781" height="664" viewBox="0 0 781 664" fill="none" xmlns="http://www.w3.org/2000/svg">
<path d="M390.5 153.623C453.781 153.623 513.254 178.263 558.005 222.995C602.756 267.727 627.397 327.219 627.397 390.5C627.397 453.781 602.756 513.254 558.005 558.005C513.254 602.756 453.781 627.377 390.5 627.377C327.219 627.377 267.746 602.737 222.995 558.005C178.244 513.273 153.623 453.781 153.623 390.5C153.623 327.219 178.263 267.746 222.995 222.995C267.746 178.263 327.219 153.623 390.5 153.623ZM390.5 0C174.827 0 0 174.827 0 390.5C0 606.173 174.827 781 390.5 781C606.173 781 781 606.173 781 390.5C781 174.827 606.173 0 390.5 0Z" fill="#BE416C"/>
</svg>
