<svg width="20" height="21" viewBox="0 0 20 21" fill="none" xmlns="http://www.w3.org/2000/svg">
<g clip-path="url(#clip0_1146_214)">
<path d="M19.2167 16.3333H16.9683C17.8109 15.9704 18.5269 15.3655 19.0253 14.5953C19.1316 14.4186 19.1451 14.2012 19.0617 14.0127C19.0397 13.9627 19.0123 13.9027 18.9817 13.8373C19.3773 13.2658 19.6721 12.6307 19.8533 11.9597C20.0064 11.2325 20.0416 10.4854 19.9573 9.747C19.923 9.43433 19.7116 9.16943 19.4143 9.06667C19.0763 7.44467 18.6213 7.18567 18.4673 7.1C18.2717 6.98786 18.0355 6.97117 17.826 7.05467C17.0007 7.369 16.9977 8.10667 16.995 8.757C16.995 8.91267 16.99 9.07167 16.98 9.23033C16.6598 9.30508 16.4013 9.5407 16.2973 9.85267C16.2308 10.0471 16.1384 10.2316 16.0227 10.4013C15.8851 10.3281 15.7434 10.2629 15.5983 10.206C15.4604 10.1549 15.3086 10.1555 15.171 10.2077L13.4593 10.8617C13.3249 10.9137 13.2128 11.011 13.1423 11.1367C13.0631 11.2812 12.9918 11.43 12.9287 11.5823C12.8394 11.555 12.7519 11.5223 12.6667 11.4843V7.66667C12.6667 7.29848 12.3682 7 12 7H4C3.63181 7 3.33333 7.29848 3.33333 7.66667V8.12067C3.02528 8.04058 2.70829 8.00003 2.39 8C0 8 0 10.6267 0 11.49C0 13.4197 0.938 14.6667 2.39 14.6667C2.77465 14.6646 3.15719 14.6098 3.527 14.504C3.77309 15.2437 4.25002 15.8849 4.88767 16.3333H2.11667C1.92418 16.317 1.73314 16.3782 1.58602 16.5034C1.43891 16.6286 1.34794 16.8074 1.33333 17V17.6667C1.33333 18.4143 2.07267 19 3.01667 19H18.3167C19.2607 19 20 18.4143 20 17.6667V17C19.9854 16.8074 19.8944 16.6286 19.7473 16.5034C19.6002 16.3782 19.4091 16.317 19.2167 16.3333ZM18.0627 7.67533C18.0876 7.66191 18.1179 7.66346 18.1413 7.67933C18.1983 7.711 18.472 7.92133 18.7237 9.025C18.4433 9.03667 18.08 9.06133 17.657 9.116C17.6613 8.99167 17.6623 8.87033 17.6627 8.75733C17.6643 8.06667 17.698 7.81433 18.0627 7.67533ZM16.9333 10.0547C16.9673 9.95548 17.0532 9.88307 17.1567 9.86633C17.2183 9.85367 17.2793 9.84467 17.347 9.833C17.9291 9.73465 18.518 9.68304 19.1083 9.67867H19.1303C19.2117 9.67312 19.2837 9.73124 19.2953 9.812C19.3721 10.4755 19.3422 11.147 19.2067 11.801C19.0808 12.2766 18.8857 12.7311 18.6277 13.15C18.1229 12.2172 17.4293 11.3998 16.591 10.75C16.7352 10.5343 16.8503 10.3005 16.9333 10.0547ZM13.7167 11.475L15.3877 10.8367C17.172 11.5383 18.2543 13.8273 18.4543 14.2567C18.27 14.5753 17.6767 15.3797 16.1513 15.9617C15.6282 16.1676 15.0768 16.2929 14.516 16.3333H14.0763C13.8437 16.3226 13.6134 16.2812 13.3917 16.21C13.3727 16.1283 13.347 16.0163 13.3213 15.8817C13.1627 15.056 12.8857 12.981 13.7153 11.475H13.7167ZM11.6863 15.819C12.015 15.9785 12.3568 16.1092 12.708 16.2097C12.718 16.2563 12.7273 16.296 12.7357 16.3333H11.1C11.3131 16.1831 11.5097 16.0107 11.6863 15.819ZM12.5773 15.4667C12.1287 15.3183 11.7065 15.0995 11.3267 14.8183C10.8297 14.4024 10.4067 13.9054 10.0757 13.3483C10.0361 13.2632 10.061 13.162 10.1357 13.105C10.14 13.101 10.1443 13.097 10.148 13.093C10.6076 12.697 11.0969 12.337 11.6117 12.016C11.6647 11.9827 11.7177 11.947 11.782 11.9097C11.8596 11.8591 11.9592 11.857 12.039 11.904C12.2477 12.0363 12.4737 12.1389 12.7107 12.209C12.4505 13.2753 12.4051 14.3827 12.5773 15.4667ZM9.692 10.9093C9.70246 10.8741 9.72965 10.8463 9.76467 10.835C10.118 10.7017 10.2797 10.861 10.6913 11.3887C10.762 11.479 10.8377 11.5757 10.919 11.6727C10.5557 11.9163 10.2567 12.1423 10.0307 12.3243C9.684 11.5517 9.622 11.09 9.692 10.9093ZM3.33333 12.4577C3.03644 12.5909 2.71541 12.6621 2.39 12.6667C2.13667 12.6667 2 12.0603 2 11.49C2 10 2.22533 10 2.39 10C2.73128 9.98609 3.06615 10.0955 3.33333 10.3083V12.4577ZM0.666667 11.491C0.666667 10.1757 0.862667 8.66667 2.39 8.66667C2.71027 8.66507 3.02874 8.71469 3.33333 8.81367V9.53C3.03701 9.39639 2.71503 9.32926 2.39 9.33333C1.414 9.33333 1.33333 10.3537 1.33333 11.49C1.33333 12.6443 1.72833 13.3333 2.39 13.3333C2.71147 13.33 3.03019 13.2737 3.33333 13.1667V13.3333C3.33475 13.5076 3.34879 13.6815 3.37533 13.8537C3.05532 13.9482 2.72366 13.9974 2.39 14C1.311 14 0.666667 13.0617 0.666667 11.49V11.491ZM4.07767 14.008C4.02574 13.7869 3.99968 13.5605 4 13.3333L4 7.66667H12V11.215C11.8253 11.1987 11.6497 11.2335 11.4943 11.315C11.398 11.205 11.3053 11.0917 11.217 10.9783C10.8393 10.4943 10.3703 9.89067 9.52767 10.2117C9.31644 10.2897 9.14963 10.4558 9.07067 10.6667C8.897 11.1143 9.04833 11.8197 9.52367 12.8103C9.34945 13.0794 9.34363 13.4242 9.50867 13.699C9.88176 14.3238 10.3585 14.8805 10.9183 15.3453C10.9767 15.3903 11.037 15.4313 11.0973 15.4727C10.5392 16.0251 9.7853 16.3345 9 16.3333H7C5.60091 16.3391 4.38577 15.3718 4.07767 14.007V14.008ZM19.3333 17.6667C19.3333 18.028 18.8667 18.3333 18.3167 18.3333H3.01667C2.46667 18.3333 2 18.028 2 17.6667V17.0303C2.03515 17.0092 2.07567 16.9986 2.11667 17H19.2167C19.2577 16.9986 19.2982 17.0092 19.3333 17.0303V17.6667Z" fill="#63A233"/>
<path d="M7.33403 5.66667C7.33403 5.85076 7.48327 6 7.66736 6C7.85145 6 8.00069 5.85076 8.00069 5.66667C7.99848 5.43152 8.09254 5.20571 8.26102 5.04167C8.80281 4.4529 8.80281 3.5471 8.26102 2.95833C8.09254 2.79429 7.99848 2.56848 8.00069 2.33333C8.00069 2.14924 7.85145 2 7.66736 2C7.48327 2 7.33403 2.14924 7.33403 2.33333C7.33109 2.71978 7.47653 3.09262 7.74036 3.375C7.90699 3.54029 8.00072 3.76529 8.00072 4C8.00072 4.23471 7.90699 4.45971 7.74036 4.625C7.47653 4.90738 7.33109 5.28022 7.33403 5.66667Z" fill="#63A233"/>
<path d="M5.33403 5.66667C5.33403 5.85076 5.48327 6 5.66736 6C5.85145 6 6.00069 5.85076 6.00069 5.66667C5.99848 5.43152 6.09254 5.20571 6.26102 5.04167C6.80281 4.4529 6.80281 3.5471 6.26102 2.95833C6.09254 2.79429 5.99848 2.56848 6.00069 2.33333C6.00069 2.14924 5.85145 2 5.66736 2C5.48327 2 5.33403 2.14924 5.33403 2.33333C5.33109 2.71978 5.47653 3.09262 5.74036 3.375C5.90699 3.54029 6.00072 3.76529 6.00072 4C6.00072 4.23471 5.90699 4.45971 5.74036 4.625C5.47653 4.90738 5.33109 5.28022 5.33403 5.66667Z" fill="#63A233"/>
<path d="M9.33207 5.66667C9.33207 5.85076 9.48131 6 9.66541 6C9.8495 6 9.99874 5.85076 9.99874 5.66667C9.99652 5.43152 10.0906 5.20571 10.2591 5.04167C10.8009 4.4529 10.8009 3.5471 10.2591 2.95833C10.0906 2.79429 9.99652 2.56848 9.99874 2.33333C9.99874 2.14924 9.8495 2 9.66541 2C9.48131 2 9.33207 2.14924 9.33207 2.33333C9.32914 2.71978 9.47457 3.09262 9.73841 3.375C9.90504 3.54029 9.99877 3.76529 9.99877 4C9.99877 4.23471 9.90504 4.45971 9.73841 4.625C9.47457 4.90738 9.32914 5.28022 9.33207 5.66667Z" fill="#63A233"/>
</g>
<defs>
<clipPath id="clip0_1146_214">
<rect width="20" height="20" fill="white" transform="translate(0 0.5)"/>
</clipPath>
</defs>
</svg>
