<svg width="21" height="21" viewBox="0 0 21 21" fill="none" xmlns="http://www.w3.org/2000/svg">
<path d="M19.7725 9.07287H18.2111C18.0725 8.31073 17.4043 7.73085 16.6028 7.73085C16.2174 7.73085 15.863 7.86518 15.5832 8.08905C15.5529 7.99452 15.5142 7.90366 15.468 7.81749L17.6658 1.96886C17.7908 1.63504 17.7442 1.26086 17.5411 0.96789C17.3379 0.674922 17.0038 0.5 16.6474 0.5C16.1963 0.5 15.7871 0.783789 15.629 1.20586L13.6834 6.38472C13.3912 5.93804 12.8869 5.6421 12.3144 5.6421C12.1179 5.6421 11.9272 5.67745 11.7495 5.74292C11.7377 4.85136 11.0092 4.12964 10.1148 4.12964C9.22053 4.12964 8.49201 4.85136 8.48018 5.74292C8.30241 5.67745 8.1117 5.6421 7.91522 5.6421C7.75331 5.6421 7.62206 5.77335 7.62206 5.93526C7.62206 6.09718 7.75331 6.22843 7.91522 6.22843C8.21815 6.22843 8.49955 6.35897 8.69518 6.57667C8.72315 6.62542 8.75373 6.6728 8.78682 6.71866C8.58752 6.99518 8.47959 7.32639 8.47959 7.67221C8.47959 7.70049 8.48034 7.72878 8.48182 7.75698C8.47936 7.75741 8.47698 7.75807 8.47452 7.75854C8.34381 7.78272 8.21862 7.82245 8.10073 7.87585C8.09823 7.87698 8.09577 7.87807 8.09327 7.8792C8.06459 7.89237 8.03631 7.90616 8.00858 7.92092C8.0076 7.92143 8.00659 7.92194 8.00561 7.92245C7.97659 7.93792 7.94799 7.95417 7.92006 7.97131C7.91768 7.97276 7.91538 7.97436 7.91299 7.97585C7.8901 7.99006 7.8676 8.00483 7.84545 8.02014C7.83604 8.02663 7.82678 8.03335 7.81749 8.04006C7.8028 8.05069 7.78827 8.06151 7.77389 8.07264C7.76717 8.0778 7.76018 8.08256 7.75354 8.08784C7.61577 7.65389 7.30174 7.29506 6.88069 7.10221C6.90928 6.93014 6.98034 6.76921 7.09018 6.62952C7.1903 6.50229 7.16823 6.31796 7.041 6.21788C6.91378 6.1178 6.72948 6.13979 6.62936 6.26706C6.46807 6.4721 6.36077 6.70651 6.31139 6.95682C6.27315 6.95413 6.23471 6.95229 6.19577 6.95229C5.46968 6.95229 4.85292 7.42815 4.64019 8.08428C4.36132 7.86331 4.00925 7.73081 3.62663 7.73081C2.82507 7.73081 2.15691 8.31069 2.01832 9.07283H0.457226C0.295312 9.07283 0.164062 9.20409 0.164062 9.366C0.164062 9.43604 0.164922 9.506 0.16625 9.57592C0.166641 9.5974 0.167305 9.61893 0.167852 9.64041C0.169062 9.68971 0.170586 9.73897 0.172461 9.78815C0.173398 9.81252 0.174375 9.83694 0.175469 9.86135C0.177617 9.90944 0.180195 9.95748 0.182969 10.0055C0.184297 10.0287 0.185508 10.0519 0.186992 10.0751C0.19125 10.1411 0.195977 10.207 0.201445 10.2729C0.203906 10.3029 0.206914 10.3329 0.209648 10.3628C0.212969 10.3992 0.216211 10.4355 0.219883 10.4719C0.223984 10.5125 0.228476 10.5531 0.233008 10.5937C0.235586 10.6167 0.238203 10.6397 0.240937 10.6627C0.246562 10.7101 0.252383 10.7574 0.258594 10.8047C0.259648 10.8126 0.260742 10.8204 0.261797 10.8283C0.278203 10.9509 0.296133 11.0731 0.31664 11.1946C0.317851 11.2017 0.319453 11.2087 0.321172 11.2156C0.541288 12.5004 0.98992 13.7332 1.65031 14.8496C2.5664 16.3983 3.85296 17.6698 5.37843 18.5362V20.2068C5.37843 20.3687 5.50968 20.5 5.67159 20.5H14.5608C14.7227 20.5 14.854 20.3687 14.854 20.2068V18.5346C16.3782 17.6682 17.6637 16.3974 18.5793 14.8496C19.2396 13.7332 19.6882 12.5004 19.9084 11.2155C19.9101 11.2086 19.9117 11.2017 19.9129 11.1946C19.9333 11.0736 19.9512 10.9518 19.9675 10.8297C19.9687 10.8211 19.9699 10.8126 19.9711 10.804C19.9772 10.7572 19.983 10.7104 19.9886 10.6635C19.9914 10.6399 19.9941 10.6162 19.9967 10.5926C20.0012 10.5525 20.0057 10.5124 20.0097 10.4722C20.0134 10.4351 20.0168 10.3978 20.0202 10.3606C20.0228 10.3315 20.0257 10.3024 20.0281 10.2732C20.0336 10.2071 20.0384 10.1409 20.0426 10.0747C20.0441 10.0519 20.0452 10.0291 20.0466 10.0063C20.0494 9.95787 20.052 9.90944 20.0541 9.86096C20.0552 9.83678 20.0562 9.81256 20.0571 9.78834C20.059 9.73901 20.0605 9.68963 20.0618 9.6403C20.0623 9.61885 20.063 9.5974 20.0634 9.57596C20.0647 9.50604 20.0656 9.43608 20.0656 9.36604C20.0657 9.20412 19.9345 9.07287 19.7725 9.07287ZM16.6028 8.31713C17.0795 8.31713 17.4829 8.6367 17.61 9.07287H15.5956C15.7227 8.6367 16.1261 8.31713 16.6028 8.31713ZM16.1779 1.41176C16.2508 1.21711 16.4394 1.08629 16.6473 1.08629C16.8141 1.08629 16.9642 1.16488 17.0592 1.30191C17.1542 1.4389 17.1752 1.60707 17.1168 1.76289L15.0357 7.30108C14.8808 7.17932 14.7051 7.0869 14.5172 7.0278C14.5126 7.02635 14.5079 7.02495 14.5033 7.02354C14.4841 7.01768 14.4648 7.01221 14.4454 7.00706C14.4393 7.00546 14.4332 7.00378 14.4271 7.00221C14.4057 6.99682 14.3842 6.99182 14.3625 6.98729C14.3595 6.98667 14.3566 6.98593 14.3536 6.9853C14.3295 6.98038 14.3052 6.97612 14.2808 6.97229C14.2734 6.97112 14.2658 6.97018 14.2583 6.96909C14.241 6.96663 14.2235 6.96436 14.206 6.96241C14.1973 6.96143 14.1885 6.96053 14.1797 6.95971C14.1618 6.95803 14.1439 6.95671 14.1259 6.95561C14.1186 6.95518 14.1113 6.9546 14.1038 6.95425C14.1012 6.95413 14.0986 6.95385 14.096 6.95378L16.1779 1.41176ZM13.6533 7.60721C13.6545 7.60674 13.6556 7.60628 13.6568 7.60581C13.6819 7.59635 13.7076 7.58788 13.7336 7.58034C13.7354 7.57983 13.7372 7.57932 13.739 7.57881C13.7844 7.56592 13.8304 7.55604 13.8769 7.54936C13.8794 7.54901 13.882 7.54874 13.8845 7.54838C13.9041 7.54573 13.9237 7.5437 13.9434 7.54214C13.9486 7.54174 13.9538 7.54128 13.959 7.54096C13.9813 7.53952 14.0036 7.53858 14.026 7.53858C14.0463 7.53858 14.0666 7.53932 14.0867 7.54045C14.0927 7.54081 14.0987 7.54139 14.1047 7.54182C14.119 7.54288 14.1333 7.54417 14.1475 7.54581C14.1541 7.54659 14.1608 7.54745 14.1674 7.54835C14.1812 7.55022 14.195 7.55241 14.2087 7.55479C14.2149 7.55588 14.2211 7.5569 14.2272 7.55811C14.2429 7.5612 14.2586 7.56467 14.2741 7.56842C14.2779 7.56936 14.2818 7.5701 14.2856 7.57108C14.3042 7.57585 14.3227 7.58116 14.3411 7.58694C14.3479 7.58909 14.3545 7.59151 14.3613 7.59378C14.3726 7.5976 14.3838 7.60151 14.3949 7.60569C14.4037 7.60901 14.4124 7.61249 14.4211 7.61604C14.4297 7.61952 14.4381 7.62315 14.4466 7.62682C14.4564 7.63116 14.4663 7.63553 14.476 7.64014C14.4818 7.64292 14.4875 7.64585 14.4932 7.64874C14.5333 7.66874 14.5719 7.69112 14.6089 7.71588C14.6103 7.71682 14.6117 7.71776 14.6131 7.7187C14.6261 7.72749 14.6389 7.73659 14.6515 7.74592C14.6527 7.74686 14.6539 7.7478 14.6552 7.7487C14.7068 7.78753 14.7547 7.831 14.7983 7.8785C14.8004 7.88085 14.8026 7.88319 14.8047 7.88553C14.8142 7.89608 14.8235 7.90682 14.8326 7.91776C14.8354 7.92112 14.8381 7.9246 14.8409 7.92799C14.987 8.10827 15.0748 8.33768 15.0748 8.58729C15.0748 8.75823 15.034 8.92358 14.9557 9.07272H13.0961C13.0178 8.92373 12.9769 8.75834 12.9769 8.58741C12.9769 8.58233 12.9772 8.57737 12.9773 8.57233C12.9773 8.57205 12.9774 8.57182 12.9774 8.57155C12.9839 8.14292 13.2576 7.75819 13.6533 7.60721ZM11.5345 6.57663C11.7301 6.35893 12.0115 6.22839 12.3144 6.22839C12.832 6.22839 13.2633 6.60522 13.3481 7.09979C13.3463 7.10061 13.3446 7.10155 13.3428 7.10237C13.319 7.11339 13.2954 7.12495 13.2722 7.1371C13.2717 7.13741 13.2711 7.13768 13.2705 7.13796C12.8941 7.33491 12.6036 7.67397 12.4705 8.0837C12.4649 8.07924 12.459 8.07526 12.4533 8.07088C12.4385 8.05952 12.4236 8.04842 12.4084 8.03752C12.3996 8.0312 12.3908 8.02479 12.3819 8.01866C12.3306 7.98331 12.2772 7.95088 12.2219 7.92147C12.2199 7.92038 12.2178 7.9194 12.2158 7.91835C12.1891 7.90428 12.1619 7.891 12.1343 7.87838C12.1316 7.87713 12.1289 7.87592 12.1261 7.87467C12.009 7.82186 11.8846 7.78256 11.7549 7.7585C11.7525 7.75807 11.7502 7.75745 11.7478 7.75702C11.7493 7.72878 11.7501 7.70046 11.7501 7.67217C11.7501 7.32639 11.6421 6.99518 11.4428 6.71866C11.476 6.67276 11.5065 6.62534 11.5345 6.57663ZM11.4567 8.31713C11.483 8.31713 11.509 8.3185 11.5347 8.32038C11.5433 8.321 11.5519 8.32186 11.5604 8.32272C11.5779 8.32444 11.5953 8.3267 11.6126 8.32928C11.6219 8.33069 11.6313 8.3319 11.6405 8.33354C11.6633 8.3376 11.6858 8.34233 11.7081 8.3478C11.7194 8.35061 11.7306 8.35405 11.7419 8.35721C11.7542 8.36073 11.7666 8.36432 11.7788 8.36827C11.7912 8.37229 11.8035 8.37651 11.8157 8.38096C11.8269 8.38506 11.838 8.38948 11.849 8.39397C11.8608 8.39874 11.8726 8.40327 11.8841 8.40842C11.904 8.41733 11.9236 8.42686 11.9428 8.43698C11.9527 8.44213 11.9623 8.4478 11.972 8.45327C11.9844 8.4603 11.9967 8.46745 12.0088 8.47495C12.0176 8.48041 12.0264 8.48604 12.0351 8.49178C12.0497 8.50151 12.064 8.51159 12.0782 8.52202C12.0836 8.52604 12.0893 8.52987 12.0947 8.53401C12.1144 8.54916 12.1336 8.56498 12.1522 8.58151C12.156 8.58491 12.1597 8.58854 12.1635 8.59198C12.1787 8.60592 12.1936 8.6203 12.208 8.63514C12.2125 8.63971 12.2169 8.64436 12.2213 8.64901C12.236 8.66467 12.2502 8.6808 12.264 8.69737C12.2666 8.70049 12.2694 8.70354 12.2719 8.7067C12.3584 8.8135 12.4245 8.93744 12.4639 9.07272H10.4495C10.5767 8.6367 10.9801 8.31713 11.4567 8.31713ZM10.1149 4.71589C10.6932 4.71589 11.1638 5.1864 11.1638 5.76479C11.1638 5.93312 11.1243 6.09515 11.0499 6.24077C11.0342 6.26003 11.0187 6.27972 11.0038 6.29975C10.7412 6.12897 10.435 6.03706 10.1149 6.03706C9.79475 6.03706 9.4885 6.12897 9.22596 6.29979C9.211 6.27975 9.19561 6.26011 9.17979 6.24081C9.10541 6.09522 9.06596 5.93311 9.06596 5.76483C9.066 5.18644 9.53651 4.71589 10.1149 4.71589ZM9.35819 6.94639C9.36123 6.94323 9.36358 6.93964 9.36647 6.93639C9.37002 6.93319 9.37369 6.93022 9.37713 6.92686C9.57486 6.73116 9.83686 6.62335 10.1149 6.62335C10.3929 6.62335 10.6549 6.73116 10.8527 6.92686C10.8561 6.93022 10.8597 6.93315 10.8633 6.93632C10.8662 6.9396 10.8685 6.94319 10.8716 6.94639C11.06 7.1428 11.1638 7.40057 11.1638 7.67217C11.1638 7.70092 11.1622 7.72967 11.1599 7.75831C10.7288 7.83776 10.3565 8.08667 10.1148 8.43338C9.87318 8.08674 9.50104 7.83788 9.0701 7.75835C9.06764 7.72967 9.06604 7.70092 9.06604 7.67217C9.066 7.40053 9.16975 7.14276 9.35819 6.94639ZM7.95772 8.70662C7.96002 8.70377 7.96249 8.70104 7.96487 8.69819C7.97885 8.68131 7.99334 8.66487 8.00838 8.64889C8.0126 8.6444 8.01682 8.63998 8.02112 8.63557C8.03573 8.62053 8.05081 8.60596 8.06635 8.59178C8.06998 8.58846 8.07346 8.58502 8.07713 8.58178C8.09577 8.56522 8.11506 8.54932 8.13487 8.53409C8.14006 8.5301 8.14549 8.52643 8.15077 8.52252C8.16506 8.51194 8.17963 8.5017 8.19452 8.49186C8.20311 8.4862 8.21178 8.48065 8.22053 8.47522C8.23272 8.46764 8.24514 8.46041 8.25772 8.4533C8.26729 8.44788 8.27678 8.44229 8.28655 8.43717C8.30581 8.42706 8.32549 8.41748 8.34545 8.40854C8.3569 8.40342 8.36862 8.39889 8.38026 8.39416C8.39135 8.38967 8.40248 8.38522 8.41381 8.38108C8.42596 8.37663 8.43823 8.37241 8.45061 8.36842C8.46287 8.36444 8.4753 8.36084 8.48776 8.35733C8.49893 8.35416 8.51006 8.35077 8.52143 8.34795C8.54366 8.34245 8.56623 8.33772 8.58901 8.33366C8.59827 8.33202 8.60764 8.33077 8.61698 8.32936C8.63424 8.32678 8.65166 8.32452 8.66916 8.3228C8.67768 8.32194 8.68623 8.32108 8.69479 8.32045C8.72057 8.31854 8.74655 8.31721 8.77283 8.31721C9.24951 8.31721 9.65291 8.63678 9.78002 9.07295H7.76561C7.80499 8.93748 7.87112 8.81346 7.95772 8.70662ZM6.19585 7.53858C6.29952 7.53858 6.39964 7.55393 6.49428 7.5821C6.51878 7.58936 6.5428 7.59753 6.56643 7.60639C6.57214 7.60854 6.57776 7.61085 6.58339 7.61307C6.60018 7.61971 6.61663 7.6269 6.63292 7.63432C6.64909 7.64174 6.66507 7.64956 6.68077 7.6578C6.68714 7.66112 6.69354 7.66444 6.69983 7.66784C6.93026 7.79463 7.10796 8.00549 7.19174 8.25881C7.19667 8.27389 7.20139 8.28905 7.20565 8.30444C7.20733 8.31045 7.20921 8.31643 7.21081 8.32248C7.21702 8.34655 7.22237 8.37096 7.22686 8.39561C7.22741 8.3985 7.22792 8.40143 7.22842 8.40436C7.2378 8.45831 7.24327 8.51354 7.2442 8.56975C7.2442 8.57014 7.24432 8.57053 7.24432 8.57096C7.2444 8.57647 7.24475 8.5819 7.24475 8.58741C7.24475 8.75834 7.20389 8.92369 7.12565 9.07283H5.26604C5.1878 8.92373 5.14694 8.75834 5.14694 8.58741C5.14698 8.00909 5.61749 7.53858 6.19585 7.53858ZM3.62667 8.31713C4.10331 8.31713 4.50675 8.6367 4.63386 9.07287H2.61949C2.74664 8.6367 3.15003 8.31713 3.62667 8.31713ZM19.4618 9.96889C19.4568 10.0542 19.4506 10.1395 19.4436 10.2246C19.442 10.2436 19.4405 10.2626 19.4388 10.2815C19.432 10.359 19.4241 10.4363 19.4156 10.5136C19.4125 10.5419 19.4093 10.5701 19.4059 10.5983C19.3977 10.6673 19.3888 10.7362 19.3793 10.8049C19.377 10.8208 19.3746 10.8367 19.3723 10.8527H3.8039C3.64199 10.8527 3.51074 10.9839 3.51074 11.1458C3.51074 11.3078 3.64199 11.439 3.8039 11.439H19.2702C19.0457 12.5374 18.6431 13.5901 18.0747 14.5511C17.1949 16.0385 15.954 17.2541 14.4828 18.0708H12.802C12.64 18.0708 12.5088 18.202 12.5088 18.364C12.5088 18.5259 12.64 18.6571 12.802 18.6571H14.2677V19.9137H5.96483V18.6571H11.6294C11.7913 18.6571 11.9225 18.5259 11.9225 18.364C11.9225 18.202 11.7913 18.0708 11.6294 18.0708H5.74694C4.27577 17.2541 3.03484 16.0385 2.15507 14.5511C1.5866 13.5901 1.18402 12.5374 0.95953 11.439H2.63128C2.7932 11.439 2.92445 11.3078 2.92445 11.1458C2.92445 10.9839 2.7932 10.8527 2.63128 10.8527H0.85746C0.855155 10.8369 0.852733 10.8211 0.850506 10.8053C0.840936 10.7365 0.831991 10.6676 0.823788 10.5986C0.820389 10.5702 0.817186 10.5417 0.814022 10.5133C0.805546 10.4364 0.797694 10.3594 0.790897 10.2822C0.789178 10.2628 0.787655 10.2432 0.786053 10.2237C0.7791 10.139 0.77285 10.0542 0.767968 9.96924C0.767343 9.95865 0.766913 9.94803 0.766327 9.9374C0.761249 9.84475 0.757147 9.75197 0.75453 9.6592H19.4752C19.4726 9.75217 19.4685 9.84514 19.4634 9.93799C19.4628 9.94826 19.4623 9.95862 19.4618 9.96889Z" fill="#63A233"/>
</svg>
