<svg width="21" height="21" viewBox="0 0 21 21" fill="none" xmlns="http://www.w3.org/2000/svg">
<g clip-path="url(#clip0_1146_246)">
<path d="M10.1146 3.3125C11.8828 3.31127 13.5891 3.96298 14.9062 5.14257L15.323 4.67687C13.8907 3.39576 12.0364 2.6875 10.1146 2.6875C8.19294 2.6875 6.33864 3.39576 4.90625 4.67687L5.32305 5.14257C6.64018 3.96296 8.34651 3.31126 10.1146 3.3125Z" fill="#63A233"/>
<path d="M10.1152 17.6875C9.09555 17.6871 8.08761 17.4699 7.15824 17.0503C6.22888 16.6308 5.39933 16.0184 4.72461 15.2539L4.25586 15.6675C4.98902 16.4988 5.89066 17.1645 6.9009 17.6205C7.91114 18.0766 9.00684 18.3124 10.1152 18.3124C11.2236 18.3124 12.3193 18.0766 13.3296 17.6205C14.3398 17.1645 15.2414 16.4988 15.9746 15.6675L15.5059 15.2539C14.8311 16.0184 14.0016 16.6308 13.0722 17.0503C12.1429 17.4699 11.1349 17.6871 10.1152 17.6875Z" fill="#63A233"/>
<path d="M15.3543 9.61425C15.4032 9.90697 15.4278 10.2032 15.4277 10.5C15.4282 11.0402 15.346 11.5772 15.1839 12.0925C15.0696 11.949 14.9254 11.8322 14.7614 11.75C14.3426 11.5384 13.8997 11.3786 13.4423 11.2741C14.0103 10.7686 14.3746 10.0734 14.467 9.31867C14.5594 8.56392 14.3736 7.80136 13.9443 7.17377C13.5149 6.54618 12.8716 6.09659 12.1347 5.90917C11.3977 5.72175 10.6178 5.80935 9.94078 6.15558C9.76644 6.00465 9.55765 5.89893 9.3328 5.84775C9.10796 5.79657 8.87398 5.8015 8.65149 5.86209C8.429 5.92269 8.22484 6.0371 8.057 6.19524C7.88917 6.35337 7.76282 6.55037 7.6891 6.76886C7.48775 6.73577 7.2816 6.74684 7.08495 6.80131C6.8883 6.85577 6.70583 6.95233 6.55019 7.08429C6.39455 7.21626 6.26945 7.38047 6.18355 7.56557C6.09766 7.75067 6.05302 7.95222 6.05273 8.15628C6.05254 8.34138 6.08909 8.52467 6.16027 8.69554C6.14195 8.70522 6.1232 8.71507 6.10422 8.72483C5.92895 8.81601 5.73023 8.91933 5.58918 9.11315C5.44918 9.3055 5.41203 9.52597 5.37922 9.7205C5.36739 9.8039 5.3498 9.88637 5.32656 9.96733C5.29896 10.0425 5.26609 10.1156 5.2282 10.1861C5.13867 10.3642 5.03711 10.5661 5.03711 10.8125C5.03711 11.059 5.13867 11.2608 5.2282 11.439C5.26609 11.5095 5.29894 11.5826 5.32652 11.6577C5.34975 11.7387 5.36735 11.8211 5.37918 11.9045C5.41199 12.0991 5.44918 12.3196 5.58918 12.512C5.73023 12.7058 5.92902 12.8091 6.10422 12.9003C6.17907 12.9367 6.25127 12.9783 6.32027 13.0248C6.38461 13.0754 6.44532 13.1304 6.50195 13.1894C6.64324 13.3291 6.8034 13.4874 7.03434 13.5624C7.25719 13.6348 7.47676 13.6023 7.67051 13.5737C7.75552 13.5588 7.84147 13.5498 7.92773 13.5469C8.01399 13.5498 8.09995 13.5587 8.18496 13.5736C8.20316 13.5762 8.22156 13.579 8.2402 13.5816C8.18191 13.6764 8.13945 13.7801 8.11449 13.8885C8.08535 14.0035 8.08245 14.1236 8.10599 14.2399C8.12954 14.3562 8.17893 14.4657 8.25051 14.5604C8.54273 14.9389 9.10449 15.0395 9.58797 14.7987C10.1396 14.521 10.7486 14.3765 11.3661 14.3766C11.9837 14.3768 12.5926 14.5216 13.1441 14.7994C13.1619 14.8083 13.1798 14.8167 13.1977 14.8246C12.2989 15.4683 11.2208 15.8138 10.1152 15.8125C7.18594 15.8125 4.80273 13.4294 4.80273 10.5C4.80273 7.57069 7.18594 5.18753 10.1152 5.18753C11.2795 5.18377 12.4121 5.56613 13.3359 6.27476C14.2407 6.96726 14.9008 7.93047 15.2202 9.02417L15.8207 8.85089C15.4638 7.62858 14.7262 6.55205 13.7152 5.778C12.6827 4.98586 11.4166 4.5584 10.1152 4.56253C6.84129 4.56253 4.17773 7.22608 4.17773 10.5C4.17773 13.774 6.84129 16.4375 10.1152 16.4375C11.6424 16.4386 13.1108 15.8492 14.2134 14.7926C14.3163 14.7336 14.4066 14.6549 14.4793 14.5612C14.5103 14.5213 14.5372 14.4784 14.5596 14.4332C15.5226 13.3495 16.054 11.9498 16.0527 10.5C16.0528 10.1686 16.0254 9.83771 15.9707 9.51081L15.3543 9.61425ZM14.7793 12.6507C14.7867 12.6761 14.7887 12.7029 14.7851 12.7292C14.7815 12.7555 14.7724 12.7807 14.7583 12.8032C14.6516 12.9414 14.4049 12.9685 14.1967 12.8651C13.2208 12.3741 12.1016 12.2479 11.0409 12.5092L11.0351 12.5096V12.5107C10.7046 12.5924 10.3844 12.7112 10.0806 12.8648C9.87203 12.9687 9.62508 12.9416 9.51762 12.8025C9.50377 12.78 9.49481 12.7548 9.4913 12.7287C9.4878 12.7025 9.48983 12.6759 9.49727 12.6506C9.5207 12.546 9.61188 12.4011 9.79719 12.3076C10.5234 11.942 11.3252 11.7516 12.1383 11.7516C12.9514 11.7516 13.7532 11.942 14.4795 12.3076C14.6646 12.4012 14.7559 12.5461 14.7793 12.6507ZM13.8652 8.93753C13.8661 9.38987 13.7439 9.83393 13.5117 10.2221C13.2795 10.6103 12.946 10.928 12.5471 11.1412C11.9235 11.0975 11.2969 11.154 10.6912 11.3085C10.7701 11.1548 10.8136 10.9853 10.8184 10.8125C10.8184 10.5661 10.7168 10.3642 10.6273 10.1861C10.5894 10.1156 10.5565 10.0425 10.5289 9.96733C10.5155 9.92408 10.5047 9.88005 10.4966 9.8355C10.7039 10.0357 10.9739 10.1581 11.2611 10.182C11.5483 10.2059 11.8349 10.1298 12.0723 9.96653C12.3098 9.80331 12.4836 9.56302 12.5642 9.28637C12.6448 9.00971 12.6273 8.7137 12.5146 8.44847C12.402 8.18324 12.2011 7.9651 11.9461 7.831C11.691 7.69689 11.3975 7.65508 11.1151 7.71263C10.8328 7.77018 10.579 7.92356 10.3968 8.14679C10.2145 8.37002 10.1151 8.64937 10.1152 8.93753C10.1152 8.94233 10.1152 8.94714 10.1152 8.95194C10.0028 8.86277 9.8807 8.78659 9.75117 8.72487C9.67631 8.68848 9.6041 8.64687 9.53508 8.60034C9.515 8.58569 9.49453 8.56886 9.47367 8.55042C9.65695 8.48817 9.82541 8.38876 9.9685 8.2584C10.1116 8.12805 10.2262 7.96956 10.3052 7.79285C10.3842 7.61615 10.4259 7.42503 10.4276 7.23148C10.4294 7.03792 10.3911 6.84609 10.3153 6.668C10.6441 6.51509 11.0026 6.43641 11.3652 6.43753C12.028 6.43827 12.6635 6.70191 13.1322 7.17058C13.6009 7.63926 13.8645 8.27472 13.8652 8.93753ZM10.7402 8.93753C10.7402 8.81392 10.7769 8.69308 10.8456 8.5903C10.9142 8.48752 11.0119 8.40741 11.1261 8.3601C11.2403 8.3128 11.3659 8.30042 11.4872 8.32454C11.6084 8.34865 11.7198 8.40818 11.8072 8.49559C11.8946 8.583 11.9541 8.69436 11.9782 8.8156C12.0023 8.93684 11.99 9.0625 11.9427 9.17671C11.8954 9.29091 11.8152 9.38852 11.7125 9.4572C11.6097 9.52587 11.4888 9.56253 11.3652 9.56253C11.1995 9.56233 11.0407 9.49642 10.9235 9.37925C10.8063 9.26209 10.7404 9.10323 10.7402 8.93753ZM9.02148 6.43753C9.176 6.43753 9.32705 6.48335 9.45552 6.56919C9.584 6.65504 9.68413 6.77705 9.74327 6.91981C9.8024 7.06256 9.81787 7.21965 9.78772 7.37119C9.75758 7.52274 9.68317 7.66195 9.57391 7.77121C9.46465 7.88047 9.32545 7.95487 9.1739 7.98502C9.02235 8.01516 8.86527 7.99969 8.72251 7.94056C8.57976 7.88143 8.45774 7.78129 8.3719 7.65282C8.28605 7.52434 8.24023 7.3733 8.24023 7.21878C8.24047 7.01165 8.32286 6.81308 8.46932 6.66662C8.61578 6.52015 8.81436 6.43777 9.02148 6.43753ZM7.45898 7.37503C7.51512 7.37496 7.57111 7.3809 7.62598 7.39276C7.65037 7.58701 7.71502 7.77403 7.81579 7.94187C7.91656 8.10971 8.05123 8.25469 8.21121 8.36753C8.17189 8.50753 8.09428 8.63377 7.98711 8.73206C7.87994 8.83034 7.74746 8.89677 7.60459 8.92386C7.46172 8.95094 7.31413 8.93762 7.17842 8.88538C7.04271 8.83314 6.92427 8.74407 6.83644 8.62818C6.7486 8.51229 6.69485 8.37418 6.68124 8.2294C6.66763 8.08463 6.6947 7.93892 6.7594 7.80869C6.82409 7.67846 6.92385 7.56887 7.04745 7.49226C7.17104 7.41564 7.31357 7.37504 7.45898 7.37503ZM7.92773 12.9219C7.81084 12.9243 7.69429 12.9355 7.57906 12.9553C7.44109 12.9757 7.31086 12.995 7.2275 12.9679C7.13766 12.9387 7.0423 12.8446 6.94148 12.7449C6.86293 12.6634 6.77826 12.588 6.6882 12.5194C6.59427 12.4541 6.49549 12.396 6.39273 12.3457C6.2675 12.2806 6.14918 12.2191 6.09469 12.1442C6.04117 12.0706 6.01906 11.9394 5.99562 11.8004C5.97919 11.6867 5.95429 11.5745 5.92113 11.4645C5.88428 11.359 5.83935 11.2566 5.78676 11.158C5.72258 11.0309 5.66211 10.9107 5.66211 10.8125C5.66211 10.7144 5.72258 10.5941 5.7866 10.4668C5.83922 10.3683 5.88414 10.2658 5.92098 10.1604C5.95415 10.0504 5.97906 9.93812 5.99551 9.82444C6.01895 9.68554 6.04102 9.5544 6.09453 9.48069C6.14922 9.40581 6.26734 9.34429 6.39258 9.27917C6.43676 9.2562 6.4816 9.23288 6.52637 9.20776C6.69186 9.35474 6.88974 9.46054 7.10387 9.51655C7.318 9.57256 7.54233 9.5772 7.7586 9.53009C7.97486 9.48298 8.17694 9.38546 8.34837 9.24545C8.51981 9.10545 8.65575 8.92693 8.74512 8.72444C8.80431 8.77305 8.8607 8.82497 8.91402 8.87995C8.99259 8.96145 9.07726 9.03684 9.1673 9.10546C9.26126 9.17077 9.36005 9.22884 9.46281 9.27917C9.58805 9.34429 9.70637 9.40581 9.76086 9.48069C9.81437 9.55425 9.83648 9.68546 9.85992 9.82444C9.87636 9.93812 9.90126 10.0504 9.93441 10.1604C9.97127 10.2658 10.0162 10.3683 10.0688 10.4668C10.1329 10.5942 10.1934 10.7144 10.1934 10.8125C10.1934 10.9107 10.1329 11.0309 10.0689 11.1582C10.0163 11.2568 9.97133 11.3592 9.93449 11.4646C9.92363 11.4981 9.91383 11.5327 9.90457 11.5708C9.77311 11.6255 9.64341 11.6851 9.51547 11.7498C9.19332 11.9123 8.95863 12.1977 8.88754 12.5133C8.86668 12.6039 8.86026 12.6972 8.86852 12.7898C8.78445 12.8718 8.70445 12.9431 8.62812 12.9679C8.54465 12.995 8.41441 12.9757 8.27656 12.9553C8.16128 12.9355 8.04468 12.9243 7.92773 12.9219ZM13.4246 14.2408C12.786 13.9193 12.0811 13.7517 11.3662 13.7516C10.6513 13.7514 9.94624 13.9187 9.30758 14.24C9.09906 14.3439 8.85207 14.3169 8.74465 14.1775C8.7308 14.155 8.72183 14.1298 8.71831 14.1037C8.7148 14.0775 8.71683 14.0509 8.72426 14.0255C8.7477 13.921 8.83887 13.7761 9.02418 13.6826C9.16258 13.6126 9.30519 13.5484 9.44996 13.491C9.59862 13.5414 9.75592 13.5614 9.91247 13.5498C10.069 13.5381 10.2216 13.495 10.3612 13.4231C10.6079 13.2984 10.8672 13.2002 11.1346 13.1301C11.3097 13.1224 11.4851 13.1235 11.6601 13.1334C12.3729 13.1727 13.0698 13.3598 13.7066 13.6826C13.8917 13.7761 13.9828 13.9209 14.0063 14.0256C14.0125 14.0522 14.0145 14.0797 14.0121 14.1069C13.9592 14.164 13.9052 14.2199 13.8499 14.2746C13.7803 14.2977 13.7069 14.3066 13.6338 14.3008C13.5607 14.295 13.4896 14.2746 13.4246 14.2408Z" fill="#63A233"/>
<path d="M18.8652 2.0625V5.1875H17.9277V2.0625H17.3027V5.1875H16.3652V2.0625H15.7402V7.21875C15.7406 7.47678 15.832 7.72641 15.9984 7.92365C16.1647 8.12088 16.3954 8.25305 16.6497 8.29688L16.3673 17.6163C16.3659 17.6398 16.3652 17.6636 16.3652 17.6874C16.3652 18.0189 16.4969 18.3369 16.7314 18.5713C16.9658 18.8057 17.2837 18.9374 17.6152 18.9374C17.9468 18.9374 18.2647 18.8057 18.4991 18.5713C18.7335 18.3369 18.8652 18.0189 18.8652 17.6874C18.8652 17.6636 18.8645 17.6398 18.8632 17.6163L18.7988 15.4905L18.1741 15.5095L18.2387 17.6397C18.2387 17.6428 18.2389 17.6459 18.2391 17.6491C18.2398 17.6618 18.2403 17.6746 18.2403 17.6875C18.2403 17.8533 18.1744 18.0122 18.0572 18.1294C17.94 18.2467 17.781 18.3125 17.6153 18.3125C17.4495 18.3125 17.2905 18.2467 17.1733 18.1294C17.0561 18.0122 16.9903 17.8533 16.9903 17.6875C16.9903 17.6746 16.9907 17.6618 16.9914 17.6491C16.9916 17.6459 16.9918 17.6428 16.9919 17.6397L17.2745 8.3125H17.956L18.1552 14.8845L18.7799 14.8655L18.5807 8.29695C18.835 8.25315 19.0657 8.12098 19.2321 7.92373C19.3985 7.72648 19.4899 7.47681 19.4902 7.21875V2.0625H18.8652ZM18.8652 7.21875C18.8651 7.34303 18.8157 7.46218 18.7278 7.55006C18.6399 7.63794 18.5208 7.68737 18.3965 7.6875H16.834C16.7097 7.68737 16.5906 7.63794 16.5027 7.55006C16.4148 7.46218 16.3654 7.34303 16.3652 7.21875V5.8125H18.8652V7.21875Z" fill="#63A233"/>
<path d="M3.57031 7.95086C4.17578 7.43094 4.57953 6.40008 4.57953 5.1875C4.57953 3.43516 3.73633 2.0625 2.65988 2.0625C1.58344 2.0625 0.740234 3.43516 0.740234 5.1875C0.740234 6.34113 1.1057 7.33023 1.66258 7.87141L1.59266 10.178L2.21734 10.197L2.27629 8.25266C2.49601 8.32295 2.73083 8.3315 2.95508 8.27734L3.23879 17.6396C3.23879 17.6428 3.23902 17.6459 3.23922 17.649C3.23996 17.6617 3.24039 17.6746 3.24039 17.6875C3.24039 17.8532 3.17454 18.0122 3.05733 18.1294C2.94012 18.2466 2.78115 18.3125 2.61539 18.3125C2.44963 18.3125 2.29066 18.2466 2.17345 18.1294C2.05624 18.0122 1.99039 17.8532 1.99039 17.6875C1.99039 17.6746 1.99082 17.6617 1.99156 17.649C1.99156 17.6459 1.99191 17.6428 1.99199 17.6396L2.19855 10.8219L1.57387 10.803L1.36727 17.6164C1.36594 17.6398 1.36523 17.6637 1.36523 17.6875C1.36523 18.019 1.49693 18.337 1.73135 18.5714C1.96577 18.8058 2.28371 18.9375 2.61523 18.9375C2.94675 18.9375 3.2647 18.8058 3.49912 18.5714C3.73354 18.337 3.86523 18.019 3.86523 17.6875C3.86523 17.6637 3.86453 17.6399 3.8632 17.6164L3.57031 7.95086ZM1.36523 5.1875C1.36523 3.69207 2.03465 2.6875 2.65988 2.6875C3.28512 2.6875 3.95453 3.69207 3.95453 5.1875C3.95453 6.68293 3.28508 7.6875 2.65988 7.6875C2.03469 7.6875 1.36523 6.68293 1.36523 5.1875Z" fill="#63A233"/>
<path d="M6.69334 10.0886L6.38086 11.0261L6.97383 11.2238L7.28631 10.2863L6.69334 10.0886Z" fill="#63A233"/>
<path d="M8.45311 11.4536L7.51562 11.7661L7.71327 12.3591L8.65076 12.0465L8.45311 11.4536Z" fill="#63A233"/>
<path d="M8.41309 9.92749L8.06641 10.4475L9.00389 11.0725L9.35058 10.5525L8.41309 9.92749Z" fill="#63A233"/>
</g>
<defs>
<clipPath id="clip0_1146_246">
<rect width="20" height="20" fill="white" transform="translate(0.115234 0.5)"/>
</clipPath>
</defs>
</svg>
