<svg width="63" height="54" viewBox="0 0 63 54" fill="none" xmlns="http://www.w3.org/2000/svg">
<path d="M21.808 0.000488281H7.26933C5.24984 0.000488281 3.53362 0.707293 2.11988 2.1205C0.706803 3.53398 0 5.2502 0 7.26983V21.808C0 23.8275 0.706405 25.5434 2.11988 26.9567C3.53348 28.3697 5.25023 29.0768 7.26933 29.0768H15.75C16.7593 29.0768 17.6177 29.4303 18.3245 30.1369C19.0313 30.843 19.3846 31.7017 19.3846 32.7117V33.9226C19.3846 36.5982 18.4379 38.8818 16.545 40.7751C14.652 42.6676 12.368 43.6142 9.69208 43.6142H7.26933C6.61265 43.6142 6.04496 43.8546 5.56518 44.3338C5.0858 44.8131 4.84591 45.3812 4.84591 46.0374V50.8842C4.84591 51.5394 5.0858 52.1085 5.56518 52.5879C6.04535 53.067 6.61252 53.3076 7.26933 53.3076H9.69222C12.3175 53.3076 14.8226 52.7957 17.2079 51.7738C19.5932 50.7518 21.6564 49.3695 23.3981 47.6278C25.1394 45.886 26.5214 43.8231 27.5436 41.4378C28.5656 39.0526 29.0768 36.5476 29.0768 33.9227V7.2693C29.0768 5.24967 28.37 3.53358 26.9568 2.12037C25.5436 0.70716 23.827 0.000488281 21.808 0.000488281Z" fill="#BFE142"/>
<path d="M60.8794 2.12001C59.4663 0.706804 57.75 0 55.7305 0H41.1924C39.1729 0 37.4566 0.706804 36.0434 2.12001C34.6304 3.53362 33.9238 5.24971 33.9238 7.26934V21.8075C33.9238 23.827 34.6304 25.543 36.0434 26.9562C37.4566 28.3692 39.173 29.0763 41.1924 29.0763H49.6731C50.6823 29.0763 51.5414 29.4298 52.2481 30.1364C52.9541 30.8429 53.3081 31.7012 53.3081 32.7112V33.9221C53.3081 36.5977 52.3614 38.8813 50.4682 40.7747C48.5753 42.6671 46.2918 43.6137 43.6156 43.6137H41.1924C40.5362 43.6137 39.968 43.8541 39.4887 44.3333C39.0091 44.8126 38.7689 45.3807 38.7689 46.037V50.8837C38.7689 51.5389 39.0091 52.1081 39.4887 52.5874C39.9679 53.0665 40.5361 53.3071 41.1924 53.3071H43.6156C46.2405 53.3071 48.7455 52.7952 51.1311 51.7733C53.5159 50.7513 55.5789 49.369 57.3207 47.6273C59.0624 45.8855 60.4452 43.8221 61.4667 41.4373C62.4886 39.0526 63.0001 36.5471 63.0001 33.9222V7.26881C62.9997 5.24918 62.2935 3.53309 60.8794 2.12001Z" fill="#BFE142"/>
</svg>
