<svg width="21" height="21" viewBox="0 0 21 21" fill="none" xmlns="http://www.w3.org/2000/svg">
<g clip-path="url(#clip0_1146_223)">
<path d="M11.6777 7.375H12.9277V8H11.6777V7.375Z" fill="#63A233"/>
<path d="M11.6777 8.625H12.9277V9.25H11.6777V8.625Z" fill="#63A233"/>
<path d="M16.834 4.875H15.0206V4.48438C15.0225 4.28106 14.9792 4.07987 14.8939 3.8953C14.8086 3.71072 14.6835 3.54736 14.5275 3.41699C14.2044 3.14418 13.7536 3 13.2238 3H7.52063C7.31043 2.9999 7.10629 3.07046 6.94103 3.20034C6.77576 3.33023 6.65895 3.5119 6.60937 3.71617C6.5598 3.92044 6.58033 4.13545 6.66766 4.32664C6.755 4.51784 6.90408 4.67413 7.09094 4.77039L7.74477 6.29594C7.03942 6.81888 6.46644 7.49983 6.07177 8.28418C5.6771 9.06853 5.47172 9.93445 5.47211 10.8125H1.67773C1.59485 10.8125 1.51537 10.8454 1.45676 10.904C1.39816 10.9626 1.36523 11.0421 1.36523 11.125V13.625C1.36361 14.5191 1.63739 15.392 2.14934 16.125H1.05273C0.969854 16.125 0.890369 16.1579 0.831763 16.2165C0.773158 16.2751 0.740234 16.3546 0.740234 16.4375V16.9062C0.740565 17.1962 0.855906 17.4742 1.06095 17.6793C1.266 17.8843 1.54401 17.9997 1.83398 18H9.64648C9.93646 17.9997 10.2145 17.8843 10.4195 17.6793C10.6246 17.4742 10.7399 17.1962 10.7402 16.9062V16.75H14.3956C14.4785 16.75 14.558 16.7171 14.6166 16.6585C14.6752 16.5999 14.7081 16.5204 14.7081 16.4375V15.3922C15.3824 14.9122 15.9425 14.2892 16.3482 13.5677C16.7539 12.8462 16.9952 12.0441 17.0551 11.2185C17.1149 10.3929 16.9917 9.56436 16.6943 8.79192C16.3968 8.01947 15.9325 7.32224 15.3345 6.75H16.5831C16.8569 6.75001 17.1194 6.85875 17.3129 7.05231C17.5065 7.24587 17.6152 7.50838 17.6152 7.78211V9.5625C17.6157 9.97676 17.7805 10.3739 18.0734 10.6668C18.3663 10.9598 18.7635 11.1245 19.1777 11.125C19.2606 11.125 19.3401 11.0921 19.3987 11.0335C19.4573 10.9749 19.4902 10.8954 19.4902 10.8125V7.53125C19.4894 6.82701 19.2093 6.15185 18.7114 5.65388C18.2134 5.15591 17.5382 4.8758 16.834 4.875ZM7.52063 4.25C7.43774 4.25 7.35826 4.21708 7.29965 4.15847C7.24105 4.09987 7.20813 4.02038 7.20813 3.9375C7.20813 3.85462 7.24105 3.77513 7.29965 3.71653C7.35826 3.65792 7.43774 3.625 7.52063 3.625H13.2238C13.8225 3.625 14.243 3.86359 14.3616 4.25H7.52063ZM14.3956 4.875V6.125H8.35172L7.81598 4.875H14.3956ZM1.99023 13.625V11.4375H10.7402C11.0333 11.4376 11.3224 11.5063 11.5841 11.6383C11.8458 11.7703 12.073 11.9618 12.2473 12.1974C12.4216 12.4331 12.5382 12.7063 12.5878 12.9952C12.6374 13.2841 12.6186 13.5806 12.5329 13.8609C12.4472 14.1412 12.2969 14.3975 12.0942 14.6092C11.8915 14.8209 11.642 14.9821 11.3657 15.08C11.0894 15.1778 10.794 15.2095 10.5032 15.1725C10.2125 15.1355 9.93441 15.0309 9.69141 14.867C9.6527 14.8408 9.60862 14.8236 9.5624 14.8167C9.51618 14.8098 9.46901 14.8134 9.42436 14.8272C9.3797 14.8409 9.3387 14.8645 9.30437 14.8962C9.27003 14.9279 9.24325 14.9669 9.22598 15.0103C9.06301 15.4198 8.82875 15.7972 8.53406 16.125H2.94625C2.32928 15.4386 1.98866 14.5479 1.99023 13.625V13.625ZM10.1152 16.9062C10.1151 17.0305 10.0657 17.1497 9.97779 17.2376C9.88991 17.3254 9.77076 17.3749 9.64648 17.375H1.83398C1.70971 17.3749 1.59056 17.3254 1.50268 17.2376C1.4148 17.1497 1.36537 17.0305 1.36523 16.9062V16.75H10.1152V16.9062ZM14.0831 16.125H9.33098C9.45471 15.9479 9.56505 15.7618 9.66105 15.5682C10.021 15.7402 10.4169 15.8236 10.8156 15.8113C11.2144 15.799 11.6044 15.6914 11.953 15.4976C11.9654 15.4991 11.9778 15.4999 11.9902 15.5H14.0831V16.125ZM15.9046 13.0728C15.5409 13.7887 15.0105 14.4068 14.3582 14.875H12.6897C13.046 14.4322 13.2402 13.8809 13.2402 13.3125C13.2402 12.7441 13.046 12.1928 12.6897 11.75H12.9277V11.125H11.9902V11.1488C11.6106 10.9282 11.1793 10.8122 10.7402 10.8125H6.09707C6.09725 10.3941 6.14989 9.97735 6.25375 9.57203C6.56625 9.60273 6.74293 9.70609 6.95687 9.83187C7.24023 9.99855 7.56145 10.1873 8.17773 10.1873C8.79402 10.1873 9.11523 9.9984 9.39867 9.83187C9.65449 9.68137 9.85656 9.56234 10.3027 9.56234C10.7488 9.56234 10.9509 9.68121 11.2067 9.83187C11.3558 9.92512 11.5135 10.0038 11.6777 10.0668V10.5H12.9277V10.1383C13.2413 10.0712 13.4538 9.94633 13.6484 9.83187C13.9043 9.68137 14.1064 9.56234 14.5526 9.56234C14.9988 9.56234 15.201 9.68121 15.4567 9.83187C15.6943 9.9716 15.9591 10.1265 16.4013 10.1731C16.5295 11.1676 16.3565 12.1777 15.9046 13.0728V13.0728ZM15.9046 8.55227C16.0609 8.8609 16.1846 9.18501 16.2735 9.51934C16.0776 9.47168 15.9363 9.38887 15.7735 9.29313C15.4901 9.12645 15.1689 8.93766 14.5525 8.93766C13.9361 8.93766 13.615 9.1266 13.3315 9.29313C13.0756 9.44363 12.8735 9.56266 12.4273 9.56266C11.9811 9.56266 11.7792 9.44379 11.5234 9.29313C11.24 9.12645 10.9187 8.93766 10.3025 8.93766C9.68617 8.93766 9.36496 9.1266 9.08152 9.29313C8.8257 9.44363 8.62363 9.56266 8.1775 9.56266C7.73137 9.56266 7.52938 9.44379 7.27355 9.29313C7.05844 9.1666 6.82117 9.0275 6.44988 8.96766C6.50582 8.82674 6.56803 8.68827 6.63652 8.55223C6.99997 7.83637 7.53005 7.21829 8.18215 6.75H14.3584C15.0107 7.21831 15.5409 7.83639 15.9046 8.55227V8.55227ZM18.8652 10.4464C18.6826 10.3816 18.5245 10.2619 18.4126 10.1036C18.3007 9.94533 18.2405 9.75632 18.2402 9.5625V7.78211C18.2402 7.34262 18.0656 6.92113 17.7549 6.61037C17.4441 6.2996 17.0226 6.12501 16.5831 6.125H15.0206V5.5H16.834C17.3725 5.50061 17.8888 5.71481 18.2696 6.09561C18.6504 6.47641 18.8646 6.99272 18.8652 7.53125V10.4464Z" fill="#63A233"/>
<path d="M13.5527 13.625H14.1777V14.25H13.5527V13.625Z" fill="#63A233"/>
<path d="M14.4902 12.6875H15.1152V13.3125H14.4902V12.6875Z" fill="#63A233"/>
<path d="M13.5527 11.4375H14.1777V12.0625H13.5527V11.4375Z" fill="#63A233"/>
<path d="M14.4902 10.5H15.1152V11.125H14.4902V10.5Z" fill="#63A233"/>
<path d="M10.7402 14.5625C10.9875 14.5625 11.2291 14.4892 11.4347 14.3519C11.6403 14.2145 11.8005 14.0193 11.8951 13.7909C11.9897 13.5625 12.0145 13.3111 11.9662 13.0686C11.918 12.8262 11.7989 12.6034 11.6241 12.4286C11.4493 12.2538 11.2266 12.1348 10.9841 12.0865C10.7416 12.0383 10.4903 12.063 10.2619 12.1577C10.0335 12.2523 9.83825 12.4125 9.7009 12.618C9.56355 12.8236 9.49023 13.0653 9.49023 13.3125C9.49061 13.6439 9.62242 13.9616 9.85676 14.196C10.0911 14.4303 10.4088 14.5621 10.7402 14.5625V14.5625ZM10.7402 12.6875C10.8639 12.6875 10.9847 12.7242 11.0875 12.7928C11.1903 12.8615 11.2704 12.9591 11.3177 13.0733C11.365 13.1875 11.3774 13.3132 11.3532 13.4344C11.3291 13.5557 11.2696 13.667 11.1822 13.7545C11.0948 13.8419 10.9834 13.9014 10.8622 13.9255C10.7409 13.9496 10.6153 13.9372 10.5011 13.8899C10.3869 13.8426 10.2892 13.7625 10.2206 13.6597C10.1519 13.557 10.1152 13.4361 10.1152 13.3125C10.1154 13.1468 10.1813 12.9879 10.2985 12.8708C10.4157 12.7536 10.5745 12.6877 10.7402 12.6875V12.6875Z" fill="#63A233"/>
<path d="M3.24023 13.9375C3.32311 13.9375 3.4026 13.9046 3.46121 13.846C3.51981 13.7874 3.55273 13.7079 3.55273 13.625V12.375C3.55273 12.2921 3.51981 12.2126 3.46121 12.154C3.4026 12.0954 3.32311 12.0625 3.24023 12.0625C3.15735 12.0625 3.07787 12.0954 3.01926 12.154C2.96066 12.2126 2.92773 12.2921 2.92773 12.375V13.625C2.92773 13.7079 2.96066 13.7874 3.01926 13.846C3.07787 13.9046 3.15735 13.9375 3.24023 13.9375Z" fill="#63A233"/>
<path d="M3.34152 14.5776C3.30246 14.5902 3.26627 14.6104 3.23501 14.637C3.20375 14.6636 3.17804 14.6961 3.15934 14.7326C3.14063 14.7691 3.12931 14.809 3.12601 14.8499C3.12271 14.8908 3.1275 14.932 3.14011 14.971C3.17667 15.0843 3.21851 15.1976 3.26449 15.3077C3.27993 15.3461 3.30284 15.381 3.33188 15.4104C3.36092 15.4399 3.39552 15.4633 3.43367 15.4793C3.47183 15.4953 3.51277 15.5035 3.55414 15.5035C3.5955 15.5036 3.63646 15.4954 3.67464 15.4795C3.71282 15.4636 3.74746 15.4402 3.77655 15.4108C3.80564 15.3814 3.82861 15.3465 3.84411 15.3082C3.85962 15.2698 3.86736 15.2288 3.86688 15.1874C3.8664 15.1461 3.85771 15.1052 3.84133 15.0672C3.80199 14.9728 3.76617 14.8758 3.73484 14.7789C3.70936 14.7001 3.65361 14.6346 3.57985 14.5968C3.5061 14.5591 3.42037 14.5522 3.34152 14.5776V14.5776Z" fill="#63A233"/>
<path d="M3.08428 10.1875C3.16716 10.1875 3.24665 10.1545 3.30525 10.0959C3.36386 10.0373 3.39678 9.95783 3.39678 9.87495C3.39678 9.6362 3.44846 9.5328 3.52002 9.38968C3.64431 9.15392 3.70926 8.89142 3.70926 8.62491C3.70926 8.3584 3.64431 8.0959 3.52002 7.86014C3.50173 7.82334 3.47635 7.79051 3.44535 7.76353C3.41435 7.73656 3.37833 7.71596 3.33936 7.70292C3.30039 7.68988 3.25922 7.68465 3.21823 7.68754C3.17724 7.69043 3.13721 7.70138 3.10046 7.71976C3.0637 7.73813 3.03093 7.76358 3.00402 7.79464C2.97711 7.8257 2.95659 7.86177 2.94363 7.90077C2.93068 7.93977 2.92555 7.98094 2.92853 8.02193C2.93151 8.06292 2.94254 8.10292 2.961 8.13963C3.0326 8.28276 3.08428 8.38616 3.08428 8.62495C3.08428 8.86374 3.0326 8.96706 2.96104 9.11018C2.83178 9.34402 2.7665 9.60782 2.77178 9.87495C2.77178 9.95783 2.80471 10.0373 2.86331 10.0959C2.92192 10.1545 3.0014 10.1875 3.08428 10.1875Z" fill="#63A233"/>
<path d="M3.04507 7.36653C3.085 7.37607 3.12642 7.37765 3.16695 7.37116C3.20749 7.36468 3.24635 7.35026 3.2813 7.32873C3.31626 7.30721 3.34663 7.279 3.37067 7.24573C3.39471 7.21245 3.41195 7.17476 3.4214 7.13481C3.44409 7.04936 3.47722 6.96704 3.52003 6.88969C3.64925 6.65587 3.71448 6.3921 3.70913 6.125C3.70913 6.04212 3.67621 5.96263 3.6176 5.90403C3.559 5.84542 3.47951 5.8125 3.39663 5.8125C3.31375 5.8125 3.23427 5.84542 3.17566 5.90403C3.11706 5.96263 3.08413 6.04212 3.08413 6.125C3.08413 6.36367 3.03245 6.46707 2.96089 6.61016C2.89617 6.73027 2.84655 6.85791 2.81316 6.9902C2.80366 7.03014 2.80213 7.07155 2.80865 7.11208C2.81517 7.15261 2.82961 7.19146 2.85115 7.22641C2.87268 7.26136 2.9009 7.29172 2.93417 7.31576C2.96744 7.3398 3.00513 7.35705 3.04507 7.36653V7.36653Z" fill="#63A233"/>
<path d="M4.64678 10.1874C4.72966 10.1874 4.80915 10.1545 4.86775 10.0959C4.92636 10.0373 4.95928 9.95776 4.95928 9.87489C4.95928 9.63614 5.01096 9.53274 5.08252 9.38961C5.11937 9.31551 5.12531 9.22981 5.09905 9.15133C5.07279 9.07285 5.01647 9.00799 4.94245 8.97098C4.86842 8.93397 4.78274 8.92783 4.7042 8.95392C4.62566 8.98 4.56067 9.03618 4.5235 9.11012C4.39425 9.34396 4.32899 9.60776 4.33428 9.87489C4.33428 9.95776 4.36721 10.0373 4.42581 10.0959C4.48442 10.1545 4.5639 10.1874 4.64678 10.1874Z" fill="#63A233"/>
<path d="M4.62187 8.3848C4.64104 8.46543 4.69146 8.53515 4.76203 8.57862C4.8326 8.62209 4.91755 8.63574 4.99819 8.61657C5.07882 8.59741 5.14854 8.54699 5.19201 8.47642C5.23548 8.40585 5.24913 8.3209 5.22996 8.24027C5.19657 8.10798 5.14695 7.98033 5.08223 7.86023C5.01067 7.71703 4.95899 7.61363 4.95899 7.375C4.95899 7.13636 5.01067 7.03293 5.08223 6.88984C5.21152 6.65599 5.2768 6.39216 5.27149 6.125C5.27149 6.04212 5.23856 5.96263 5.17996 5.90403C5.12135 5.84542 5.04187 5.8125 4.95899 5.8125C4.87611 5.8125 4.79662 5.84542 4.73801 5.90403C4.67941 5.96263 4.64648 6.04212 4.64648 6.125C4.64648 6.36367 4.5948 6.46707 4.52324 6.61015C4.39894 6.84591 4.33398 7.1084 4.33398 7.37492C4.33398 7.64143 4.39894 7.90393 4.52324 8.13968C4.56606 8.21703 4.59919 8.29935 4.62187 8.3848V8.3848Z" fill="#63A233"/>
<path d="M1.52178 10.1875C1.60466 10.1875 1.68415 10.1546 1.74275 10.096C1.80136 10.0373 1.83428 9.95786 1.83428 9.87498C1.83428 9.63627 1.88596 9.53283 1.95752 9.38974C2.02223 9.26966 2.07184 9.14204 2.10522 9.00978C2.12438 8.92914 2.11073 8.8442 2.06727 8.77362C2.0238 8.70305 1.95408 8.65264 1.87344 8.63347C1.7928 8.61431 1.70786 8.62796 1.63728 8.67142C1.56671 8.71489 1.5163 8.78461 1.49713 8.86525C1.47444 8.95066 1.44132 9.03296 1.39854 9.11029C1.26927 9.34409 1.20399 9.60787 1.20928 9.87498C1.20928 9.95786 1.24221 10.0373 1.30081 10.096C1.35942 10.1546 1.4389 10.1875 1.52178 10.1875Z" fill="#63A233"/>
<path d="M1.95719 7.86008C1.88566 7.71699 1.83398 7.61359 1.83398 7.375C1.83398 7.13641 1.88566 7.03293 1.95723 6.88984C2.08651 6.65599 2.1518 6.39216 2.14648 6.125C2.14648 6.04212 2.11356 5.96263 2.05495 5.90403C1.99635 5.84542 1.91686 5.8125 1.83398 5.8125C1.7511 5.8125 1.67162 5.84542 1.61301 5.90403C1.55441 5.96263 1.52148 6.04212 1.52148 6.125C1.52148 6.36367 1.4698 6.46707 1.39824 6.61016C1.27394 6.84592 1.20898 7.10842 1.20898 7.37494C1.20898 7.64146 1.27394 7.90397 1.39824 8.13973L1.95719 7.86008Z" fill="#63A233"/>
</g>
<defs>
<clipPath id="clip0_1146_223">
<rect width="20" height="20" fill="white" transform="translate(0.115234 0.5)"/>
</clipPath>
</defs>
</svg>
