<svg width="62" height="62" viewBox="0 0 62 62" fill="none" xmlns="http://www.w3.org/2000/svg">
<circle cx="31" cy="31" r="31" fill="#FDBF0F"/>
<circle cx="31" cy="31" r="22" fill="#651FFF" stroke="white" stroke-width="4"/>
<path d="M36.0977 40H26.043V37.6562L30.6602 31.7852C31.2461 30.9727 31.6758 30.2617 31.9492 29.6523C32.2305 29.0352 32.3711 28.4453 32.3711 27.8828C32.3711 27.125 32.2383 26.5312 31.9727 26.1016C31.7148 25.6719 31.3398 25.457 30.8477 25.457C30.3086 25.457 29.8789 25.707 29.5586 26.207C29.2461 26.707 29.0898 27.4102 29.0898 28.3164H25.7617C25.7617 27.2695 25.9766 26.3125 26.4062 25.4453C26.8438 24.5781 27.4531 23.9062 28.2344 23.4297C29.0234 22.9453 29.9141 22.7031 30.9062 22.7031C32.4297 22.7031 33.6094 23.125 34.4453 23.9688C35.2891 24.8047 35.7109 25.9961 35.7109 27.543C35.7109 28.5039 35.4766 29.4805 35.0078 30.4727C34.5469 31.457 33.707 32.6719 32.4883 34.1172L30.2969 37.2461H36.0977V40Z" fill="white"/>
</svg>
