<svg width="62" height="62" viewBox="0 0 62 62" fill="none" xmlns="http://www.w3.org/2000/svg">
<circle cx="31" cy="31" r="31" fill="#FDBF0F"/>
<circle cx="31" cy="31" r="22" fill="#651FFF" stroke="white" stroke-width="4"/>
<path d="M28.9961 29.957H30.6016C31.2109 29.957 31.6562 29.7461 31.9375 29.3242C32.2266 28.8945 32.3711 28.3242 32.3711 27.6133C32.3711 26.9336 32.2227 26.4062 31.9258 26.0312C31.6367 25.6484 31.2461 25.457 30.7539 25.457C30.293 25.457 29.9141 25.6367 29.6172 25.9961C29.3281 26.3555 29.1836 26.8086 29.1836 27.3555H25.8672C25.8672 26.4648 26.0703 25.668 26.4766 24.9648C26.8906 24.2539 27.4648 23.6992 28.1992 23.3008C28.9414 22.9023 29.7617 22.7031 30.6602 22.7031C32.2305 22.7031 33.4609 23.1367 34.3516 24.0039C35.2422 24.8711 35.6875 26.0586 35.6875 27.5664C35.6875 28.3398 35.4844 29.0586 35.0781 29.7227C34.6797 30.3789 34.1523 30.8828 33.4961 31.2344C34.3008 31.5781 34.8984 32.0938 35.2891 32.7812C35.6875 33.4688 35.8867 34.2812 35.8867 35.2188C35.8867 36.7344 35.4023 37.9492 34.4336 38.8633C33.4727 39.7773 32.207 40.2344 30.6367 40.2344C29.1758 40.2344 27.9883 39.7852 27.0742 38.8867C26.168 37.9805 25.7148 36.793 25.7148 35.3242H29.0312C29.0312 35.9336 29.1914 36.4453 29.5117 36.8594C29.832 37.2734 30.2383 37.4805 30.7305 37.4805C31.3008 37.4805 31.75 37.2695 32.0781 36.8477C32.4141 36.4258 32.582 35.8633 32.582 35.1602C32.582 33.4805 31.9297 32.6367 30.625 32.6289H28.9961V29.957Z" fill="white"/>
</svg>
