<svg width="569" height="152" viewBox="0 0 569 152" fill="none" xmlns="http://www.w3.org/2000/svg">
<path d="M182.115 31.5957H176.156V27.4033H180.902C182.291 27.4033 183.416 27.1924 184.277 26.7705C185.138 26.3311 185.771 25.7158 186.175 24.9248C186.58 24.1338 186.782 23.2021 186.782 22.1299C186.782 21.251 186.553 20.4424 186.096 19.7041C185.657 18.9658 184.971 18.377 184.04 17.9375C183.108 17.4805 181.921 17.252 180.48 17.252C179.39 17.252 178.397 17.4453 177.5 17.832C176.604 18.2188 175.892 18.7637 175.365 19.4668C174.837 20.1523 174.574 20.9873 174.574 21.9717H166.69C166.69 20.2842 167.05 18.7725 167.771 17.4365C168.509 16.083 169.511 14.9404 170.777 14.0088C172.06 13.0596 173.537 12.3389 175.207 11.8467C176.876 11.3545 178.634 11.1084 180.48 11.1084C182.642 11.1084 184.593 11.3457 186.333 11.8203C188.074 12.2773 189.568 12.9629 190.816 13.877C192.064 14.791 193.022 15.9248 193.69 17.2783C194.358 18.6318 194.692 20.2051 194.692 21.998C194.692 23.3164 194.393 24.5557 193.795 25.7158C193.198 26.876 192.345 27.8955 191.238 28.7744C190.13 29.6533 188.803 30.3477 187.256 30.8574C185.709 31.3496 183.996 31.5957 182.115 31.5957ZM176.156 29.3018H182.115C184.207 29.3018 186.061 29.5215 187.678 29.9609C189.313 30.4004 190.693 31.042 191.818 31.8857C192.96 32.7295 193.822 33.7754 194.402 35.0234C195 36.2539 195.298 37.6689 195.298 39.2686C195.298 41.0615 194.929 42.6523 194.191 44.041C193.47 45.4297 192.442 46.6074 191.106 47.5742C189.788 48.541 188.223 49.2705 186.413 49.7627C184.62 50.2549 182.642 50.501 180.48 50.501C178.757 50.501 177.043 50.29 175.338 49.8682C173.633 49.4287 172.086 48.7607 170.698 47.8643C169.309 46.9678 168.202 45.8164 167.375 44.4102C166.549 43.0039 166.136 41.3164 166.136 39.3477H174.073C174.073 40.2793 174.345 41.1318 174.89 41.9053C175.435 42.6611 176.191 43.2676 177.158 43.7246C178.125 44.1641 179.232 44.3838 180.48 44.3838C181.939 44.3838 183.178 44.1553 184.198 43.6982C185.235 43.2412 186.017 42.6172 186.544 41.8262C187.089 41.0176 187.362 40.1299 187.362 39.1631C187.362 38.126 187.221 37.2471 186.94 36.5264C186.659 35.8057 186.246 35.2168 185.701 34.7598C185.156 34.2852 184.479 33.9424 183.67 33.7314C182.879 33.5205 181.957 33.415 180.902 33.415H176.156V29.3018ZM216.761 18.1748L206.32 50H197.909L212.173 11.6094H217.526L216.761 18.1748ZM225.436 50L214.968 18.1748L214.125 11.6094H219.53L233.874 50H225.436ZM224.961 35.709V41.9053H204.685V35.709H224.961ZM245.053 37.5547L260.478 11.6094H268.388V50H260.478V24.0547L245.053 50H237.143V11.6094H245.053V37.5547ZM256.602 1.53711H262.007C262.007 3.04883 261.629 4.39355 260.874 5.57129C260.135 6.73145 259.081 7.64551 257.709 8.31348C256.338 8.96387 254.721 9.28906 252.858 9.28906C250.028 9.28906 247.787 8.56836 246.134 7.12695C244.5 5.68555 243.682 3.82227 243.682 1.53711H249.061C249.061 2.45117 249.342 3.26855 249.905 3.98926C250.485 4.70996 251.469 5.07031 252.858 5.07031C254.229 5.07031 255.196 4.70996 255.758 3.98926C256.321 3.26855 256.602 2.45117 256.602 1.53711ZM305.698 43.8301V50H278.039V43.8301H305.698ZM280.385 43.8301V59.4131H272.95L272.528 43.8301H280.385ZM311.393 43.8301L310.708 59.4395H303.457V43.8301H311.393ZM301.347 11.6094V17.8057H282.864V11.6094H301.347ZM306.99 11.6094V50H299.106V11.6094H306.99ZM281.888 11.6094H289.798L288.77 27.2451C288.612 29.8291 288.331 32.1143 287.926 34.1006C287.54 36.0693 287.065 37.8008 286.502 39.2949C285.958 40.7891 285.351 42.0986 284.683 43.2236C284.015 44.3311 283.312 45.2979 282.574 46.124C281.835 46.9326 281.088 47.6533 280.333 48.2861C279.577 48.9014 278.838 49.4727 278.118 50H273.583V43.8301H275.349C275.859 43.4082 276.395 42.8281 276.958 42.0898C277.538 41.3516 278.083 40.3584 278.592 39.1104C279.12 37.8447 279.577 36.2451 279.963 34.3115C280.368 32.3779 280.667 30.0225 280.86 27.2451L281.888 11.6094ZM323.1 37.5547L338.525 11.6094H346.435V50H338.525V24.0547L323.1 50H315.19V11.6094H323.1V37.5547ZM392.34 27.2451V33.415H372.301V27.2451H392.34ZM374.648 11.6094V50H366.738V11.6094H374.648ZM397.983 11.6094V50H390.099V11.6094H397.983ZM420.949 18.1748L410.507 50H402.096L416.361 11.6094H421.713L420.949 18.1748ZM429.624 50L419.156 18.1748L418.312 11.6094H423.717L438.061 50H429.624ZM429.149 35.709V41.9053H408.873V35.709H429.149Z" fill="white"/>
<g clip-path="url(#clip0_37_27)">
<path d="M113.528 125.231V55.7153H154.925V64.4307H122.1V85.8043H151.579V94.5197H122.1V116.308H157.225V125.024H113.528V125.231Z" fill="#E43225"/>
<path d="M200.711 125.231L186.494 106.763L172.277 125.231H162.242L181.686 100.537L161.196 75.0138H172.486L186.494 94.1047L200.711 75.0138H211.792L192.348 100.537L210.747 125.231H200.711Z" fill="#E43225"/>
<path d="M224.546 117.761V152H215.974V100.745C215.974 87.6719 226.01 73.7687 241.69 73.7687C257.58 73.7687 269.497 83.7292 269.497 100.122C269.497 116.101 257.371 127.099 243.572 127.099C236.882 127.099 227.891 124.194 224.546 117.761V117.761ZM260.507 100.122C260.507 88.917 253.19 82.2766 240.227 82.8992C233.955 83.1067 224.337 87.6719 225.173 103.65C225.382 108.838 230.818 118.591 242.736 118.591C252.98 118.591 260.507 112.781 260.507 100.122V100.122Z" fill="#E43225"/>
<path d="M276.814 125.231V75.0138H285.386V80.409C289.568 75.6363 296.049 73.9763 302.948 73.9763V83.1067C301.903 82.8992 291.658 81.6541 285.386 94.9347V125.439H276.814V125.231Z" fill="#E43225"/>
<path d="M305.249 100.122C305.249 85.5968 315.703 73.7687 330.129 73.7687C348.109 73.7687 354.8 85.5968 354.8 100.745V104.895H314.657C315.285 114.441 323.857 119.421 331.802 119.213C337.656 119.006 341.628 117.346 345.81 113.196L351.455 119.006C346.228 123.986 339.537 127.306 331.383 127.306C316.121 127.099 305.249 115.893 305.249 100.122V100.122ZM329.502 82.2767C321.348 82.2767 315.076 89.332 314.657 97.0098H345.81C345.81 89.5395 340.374 82.2767 329.502 82.2767V82.2767Z" fill="#E43225"/>
<path d="M359.194 118.176L365.467 112.573C365.258 112.573 368.603 115.893 369.021 116.101C370.484 117.346 371.948 118.176 373.83 118.591C379.266 120.043 389.092 119.628 389.928 112.158C390.347 108.008 387.21 105.725 383.656 104.273C379.056 102.613 374.039 101.99 369.439 99.9149C364.212 97.6323 360.867 93.6896 360.867 87.8793C360.867 72.7311 382.611 70.241 392.437 77.2963C392.855 77.7113 397.664 82.069 397.455 82.069L391.183 87.0493C388.047 83.3141 385.12 81.4465 378.429 81.4465C375.084 81.4465 370.484 82.8991 369.648 86.4268C368.394 91.407 374.039 93.2746 377.802 94.3121C382.82 95.5572 388.256 96.3872 392.646 99.0848C398.71 102.82 400.173 110.913 397.873 117.138C395.364 123.986 387.838 126.684 381.147 126.891C373.202 127.306 366.303 124.816 360.658 119.213C360.24 119.213 359.194 118.176 359.194 118.176V118.176Z" fill="#E43225"/>
<path d="M403.306 118.176L409.578 112.573C409.369 112.573 412.714 115.893 413.132 116.101C414.596 117.346 416.059 118.176 417.941 118.591C423.377 120.043 433.203 119.628 434.04 112.158C434.458 108.008 431.322 105.725 427.767 104.273C423.168 102.613 418.15 101.99 413.55 99.9149C408.323 97.6323 404.978 93.6896 404.978 87.8793C404.978 72.7311 426.722 70.241 436.549 77.2963C436.967 77.7113 441.776 82.069 441.566 82.069L435.294 87.0493C432.158 83.3141 429.231 81.4465 422.541 81.4465C419.195 81.4465 414.596 82.8991 413.759 86.4268C412.505 91.407 418.15 93.2746 421.913 94.3121C426.931 95.5572 432.367 96.3872 436.758 99.0848C442.821 102.82 444.284 110.913 441.985 117.138C439.476 123.986 431.949 126.684 425.259 126.891C417.314 127.306 410.414 124.816 404.769 119.213C404.351 119.213 403.306 118.176 403.306 118.176V118.176Z" fill="#E43225"/>
<path d="M444.076 75.0138V69.6185H442.195V68.5809H447.213V69.6185H445.331V75.0138H444.076Z" fill="#E43225"/>
<path d="M453.484 75.0138V70.0335L451.602 75.0138H451.184L449.302 70.0335V75.0138H448.257V68.5809H449.929L451.602 72.9387L453.275 68.5809H454.948V75.0138H453.484Z" fill="#E43225"/>
<path d="M55.4049 125.231L49.1327 108.63H15.2625L8.99024 125.231H0L27.1798 55.7153H37.0063L63.977 125.231H55.4049ZM31.7794 65.6758L19.0259 100.122H45.5784L31.7794 65.6758Z" fill="white"/>
<path d="M69.6216 125.231V55.7153H78.4028V125.231H69.6216Z" fill="white"/>
<path d="M91.5771 125.231V76.0513H100.358V125.231H91.5771Z" fill="white"/>
<path d="M108.719 60.0731C108.719 59.8656 108.719 59.8656 108.719 59.6581C108.719 59.4506 108.719 59.4506 108.719 59.2431C102.028 59.0356 96.5922 53.6403 96.3831 47C96.174 47 95.965 47 95.7559 47C95.5468 47 95.3377 47 95.1286 47C94.9196 53.6403 89.4836 59.0356 82.7932 59.2431C82.7932 59.4506 82.7932 59.4506 82.7932 59.6581C82.7932 59.8656 82.7932 59.8656 82.7932 60.0731C89.4836 60.2806 94.9196 65.6759 95.1286 72.3162C95.3377 72.3162 95.5468 72.3162 95.7559 72.3162C95.965 72.3162 96.174 72.3162 96.3831 72.3162C96.5922 65.6759 102.028 60.2806 108.719 60.0731Z" fill="white"/>
</g>
<defs>
<clipPath id="clip0_37_27">
<rect width="454.948" height="105" fill="white" transform="translate(0 47)"/>
</clipPath>
</defs>
</svg>
