<svg width="14" height="14" viewBox="0 0 14 14" fill="none" xmlns="http://www.w3.org/2000/svg">
<g clip-path="url(#clip0_239_1595)">
<path d="M12.9872 1.34938H1.01133C0.546297 1.34938 0.167969 1.72771 0.167969 2.19274V13.1566C0.167969 13.6217 0.546297 14 1.01133 14H12.9872C13.4523 14 13.8306 13.6217 13.8306 13.1566V2.19277C13.8306 1.72774 13.4523 1.34938 12.9872 1.34938ZM12.8186 12.9879H1.18002V2.36143H12.8186V12.9879H12.8186Z" fill="black"/>
<path d="M13.3264 4.7229H0.675781V5.73495H13.3264V4.7229Z" fill="black"/>
<path d="M3.7111 0C3.43162 0 3.20508 0.226543 3.20508 0.506023V3.20482C3.20508 3.4843 3.43162 3.71085 3.7111 3.71085C3.99058 3.71085 4.21712 3.4843 4.21712 3.20482V0.506023C4.21712 0.226543 3.99058 0 3.7111 0Z" fill="black"/>
<path d="M10.4572 0C10.1777 0 9.95117 0.226543 9.95117 0.506023V3.20482C9.95117 3.4843 10.1777 3.71085 10.4572 3.71085C10.7367 3.71085 10.9632 3.4843 10.9632 3.20482V0.506023C10.9632 0.226543 10.7367 0 10.4572 0Z" fill="black"/>
<path d="M8.93952 10.1205H5.22868C4.9492 10.1205 4.72266 10.347 4.72266 10.6265C4.72266 10.906 4.9492 11.1325 5.22868 11.1325H8.93952C9.21899 11.1325 9.44554 10.906 9.44554 10.6265C9.44554 10.347 9.21899 10.1205 8.93952 10.1205Z" fill="black"/>
<path d="M8.93952 7.75903H5.22868C4.9492 7.75903 4.72266 7.98558 4.72266 8.26506C4.72266 8.54454 4.9492 8.77108 5.22868 8.77108H8.93952C9.21899 8.77108 9.44554 8.54456 9.44554 8.26506C9.44554 7.98555 9.21899 7.75903 8.93952 7.75903Z" fill="black"/>
</g>
<defs>
<clipPath id="clip0_239_1595">
<rect width="14" height="14" fill="white"/>
</clipPath>
</defs>
</svg>
