<svg width="120" height="120" viewBox="0 0 120 120" fill="none" xmlns="http://www.w3.org/2000/svg">
<circle cx="60" cy="60" r="60" fill="#BFE142"/>
<path d="M74.2188 34.8438H75.3125V35.9375C75.3125 36.2276 75.4277 36.5058 75.6329 36.7109C75.838 36.916 76.1162 37.0312 76.4062 37.0312C76.6963 37.0312 76.9745 36.916 77.1796 36.7109C77.3848 36.5058 77.5 36.2276 77.5 35.9375V34.8438H78.5938C78.8838 34.8438 79.162 34.7285 79.3671 34.5234C79.5723 34.3183 79.6875 34.0401 79.6875 33.75C79.6875 33.4599 79.5723 33.1817 79.3671 32.9766C79.162 32.7715 78.8838 32.6562 78.5938 32.6562H77.5V31.5625C77.5 31.2724 77.3848 30.9942 77.1796 30.7891C76.9745 30.584 76.6963 30.4688 76.4062 30.4688C76.1162 30.4688 75.838 30.584 75.6329 30.7891C75.4277 30.9942 75.3125 31.2724 75.3125 31.5625V32.6562H74.2188C73.9287 32.6562 73.6505 32.7715 73.4454 32.9766C73.2402 33.1817 73.125 33.4599 73.125 33.75C73.125 34.0401 73.2402 34.3183 73.4454 34.5234C73.6505 34.7285 73.9287 34.8438 74.2188 34.8438Z" fill="white"/>
<path d="M66.5625 31.5625H67.6562V32.6562C67.6562 32.9463 67.7715 33.2245 67.9766 33.4296C68.1817 33.6348 68.4599 33.75 68.75 33.75C69.0401 33.75 69.3183 33.6348 69.5234 33.4296C69.7285 33.2245 69.8438 32.9463 69.8438 32.6562V31.5625H70.9375C71.2276 31.5625 71.5058 31.4473 71.7109 31.2421C71.916 31.037 72.0312 30.7588 72.0312 30.4688C72.0312 30.1787 71.916 29.9005 71.7109 29.6954C71.5058 29.4902 71.2276 29.375 70.9375 29.375H69.8438V28.2812C69.8438 27.9912 69.7285 27.713 69.5234 27.5079C69.3183 27.3027 69.0401 27.1875 68.75 27.1875C68.4599 27.1875 68.1817 27.3027 67.9766 27.5079C67.7715 27.713 67.6562 27.9912 67.6562 28.2812V29.375H66.5625C66.2724 29.375 65.9942 29.4902 65.7891 29.6954C65.584 29.9005 65.4688 30.1787 65.4688 30.4688C65.4688 30.7588 65.584 31.037 65.7891 31.2421C65.9942 31.4473 66.2724 31.5625 66.5625 31.5625Z" fill="white"/>
<path d="M41.4062 34.8438H42.5V35.9375C42.5 36.2276 42.6152 36.5058 42.8204 36.7109C43.0255 36.916 43.3037 37.0312 43.5938 37.0312C43.8838 37.0312 44.162 36.916 44.3671 36.7109C44.5723 36.5058 44.6875 36.2276 44.6875 35.9375V34.8438H45.7812C46.0713 34.8438 46.3495 34.7285 46.5546 34.5234C46.7598 34.3183 46.875 34.0401 46.875 33.75C46.875 33.4599 46.7598 33.1817 46.5546 32.9766C46.3495 32.7715 46.0713 32.6562 45.7812 32.6562H44.6875V31.5625C44.6875 31.2724 44.5723 30.9942 44.3671 30.7891C44.162 30.584 43.8838 30.4688 43.5938 30.4688C43.3037 30.4688 43.0255 30.584 42.8204 30.7891C42.6152 30.9942 42.5 31.2724 42.5 31.5625V32.6562H41.4062C41.1162 32.6562 40.838 32.7715 40.6329 32.9766C40.4277 33.1817 40.3125 33.4599 40.3125 33.75C40.3125 34.0401 40.4277 34.3183 40.6329 34.5234C40.838 34.7285 41.1162 34.8438 41.4062 34.8438Z" fill="white"/>
<path d="M49.0625 31.5625H50.1562V32.6562C50.1562 32.9463 50.2715 33.2245 50.4766 33.4296C50.6817 33.6348 50.9599 33.75 51.25 33.75C51.5401 33.75 51.8183 33.6348 52.0234 33.4296C52.2285 33.2245 52.3438 32.9463 52.3438 32.6562V31.5625H53.4375C53.7276 31.5625 54.0058 31.4473 54.2109 31.2421C54.416 31.037 54.5312 30.7588 54.5312 30.4688C54.5312 30.1787 54.416 29.9005 54.2109 29.6954C54.0058 29.4902 53.7276 29.375 53.4375 29.375H52.3438V28.2812C52.3438 27.9912 52.2285 27.713 52.0234 27.5079C51.8183 27.3027 51.5401 27.1875 51.25 27.1875C50.9599 27.1875 50.6817 27.3027 50.4766 27.5079C50.2715 27.713 50.1562 27.9912 50.1562 28.2812V29.375H49.0625C48.7724 29.375 48.4942 29.4902 48.2891 29.6954C48.084 29.9005 47.9688 30.1787 47.9688 30.4688C47.9688 30.7588 48.084 31.037 48.2891 31.2421C48.4942 31.4473 48.7724 31.5625 49.0625 31.5625Z" fill="white"/>
<path d="M67.3548 46.7897C67.1644 46.7755 66.9698 46.7689 66.774 46.7689C65.4569 46.7667 64.1577 47.074 62.9812 47.666C61.8046 48.258 60.7836 49.1181 60.0004 50.177C59.2175 49.1175 58.1967 48.2568 57.0201 47.6642C55.8435 47.0716 54.5442 46.7638 53.2268 46.7656C53.031 46.7656 52.8363 46.7722 52.6493 46.7853C51.3253 46.87 50.0501 47.3168 48.9628 48.077C47.8755 48.8372 47.018 49.8814 46.4838 51.0958C45.9035 52.3642 45.6793 53.7667 45.8354 55.1529C45.9914 56.5391 46.5219 57.8566 47.3698 58.9642L59.167 72.845C59.2696 72.9658 59.3973 73.0629 59.5413 73.1294C59.6852 73.196 59.8418 73.2305 60.0004 73.2305C60.1589 73.2305 60.3156 73.196 60.4595 73.1294C60.6034 73.0629 60.7311 72.9658 60.8338 72.845C60.8338 72.845 72.6573 58.9358 72.6693 58.9194C73.5041 57.8141 74.0237 56.5033 74.173 55.1263C74.3222 53.7493 74.0955 52.3575 73.517 51.0991C72.9832 49.8852 72.1262 48.8412 71.0394 48.0813C69.9527 47.3213 68.6781 46.8745 67.3548 46.7897ZM70.9434 57.5752L60.0004 70.4486L49.0749 57.5992C48.4789 56.8081 48.1084 55.8703 48.0027 54.8854C47.8969 53.9005 48.06 52.9054 48.4745 52.0058C48.8482 51.1521 49.4494 50.4176 50.2122 49.8823C50.9751 49.347 51.8703 49.0317 52.8002 48.9706C52.9413 48.9608 53.0824 48.9564 53.2268 48.9564C54.4599 48.9551 55.6656 49.3194 56.6916 50.0033C57.7176 50.6873 58.5178 51.6601 58.9909 52.7988C59.0739 52.998 59.2141 53.1683 59.3938 53.288C59.5734 53.4077 59.7845 53.4716 60.0004 53.4716C60.2163 53.4716 60.4274 53.4077 60.607 53.288C60.7867 53.1683 60.9268 52.998 61.0099 52.7988C61.51 51.5914 62.3773 50.572 63.489 49.885C64.6006 49.1979 65.9003 48.878 67.2038 48.9706C68.1331 49.0318 69.0278 49.3471 69.7901 49.8822C70.5523 50.4173 71.153 51.1515 71.5263 52.0047C71.9389 52.8998 72.1025 53.8897 72 54.87C71.8974 55.8503 71.5324 56.7848 70.9434 57.5752Z" fill="white"/>
<path d="M60 35.9375C55.2409 35.9375 50.5887 37.3487 46.6316 39.9928C42.6745 42.6368 39.5904 46.3948 37.7692 50.7917C35.9479 55.1885 35.4714 60.0267 36.3999 64.6944C37.3283 69.362 39.6201 73.6496 42.9853 77.0148C46.3505 80.38 50.638 82.6717 55.3056 83.6001C59.9733 84.5286 64.8115 84.0521 69.2083 82.2309C73.6052 80.4096 77.3632 77.3255 80.0072 73.3684C82.6513 69.4114 84.0625 64.7591 84.0625 60C84.0553 53.6204 81.5178 47.5043 77.0068 42.9932C72.4957 38.4822 66.3796 35.9447 60 35.9375ZM60 81.875C55.6735 81.875 51.4442 80.5921 47.8469 78.1884C44.2496 75.7847 41.4458 72.3683 39.7901 68.3712C38.1345 64.3741 37.7013 59.9757 38.5453 55.7324C39.3894 51.4891 41.4728 47.5913 44.532 44.532C47.5913 41.4728 51.4891 39.3894 55.7324 38.5453C59.9757 37.7013 64.3741 38.1345 68.3712 39.7901C72.3683 41.4458 75.7847 44.2496 78.1884 47.8469C80.5921 51.4442 81.875 55.6735 81.875 60C81.8684 65.7996 79.5615 71.3597 75.4606 75.4606C71.3597 79.5615 65.7996 81.8683 60 81.875Z" fill="white"/>
<path d="M60 39.2188C55.8899 39.2188 51.872 40.4375 48.4546 42.721C45.0371 45.0045 42.3735 48.2501 40.8006 52.0474C39.2278 55.8446 38.8162 60.0231 39.6181 64.0542C40.4199 68.0854 42.3991 71.7883 45.3054 74.6946C48.2118 77.6009 51.9146 79.5801 55.9458 80.3819C59.977 81.1838 64.1554 80.7723 67.9526 79.1994C71.7499 77.6265 74.9955 74.9629 77.279 71.5454C79.5625 68.128 80.7813 64.1101 80.7813 60C80.7752 54.4903 78.5838 49.2081 74.6879 45.3122C70.7919 41.4162 65.5097 39.2248 60 39.2188ZM60 78.5938C56.3225 78.5938 52.7276 77.5032 49.6699 75.4601C46.6121 73.417 44.2289 70.5131 42.8216 67.1155C41.4143 63.718 41.0461 59.9794 41.7635 56.3725C42.481 52.7657 44.2519 49.4526 46.8522 46.8522C49.4526 44.2519 52.7657 42.481 56.3725 41.7635C59.9794 41.0461 63.718 41.4143 67.1155 42.8216C70.5131 44.2289 73.417 46.6121 75.4601 49.6699C77.5033 52.7276 78.5938 56.3225 78.5938 60C78.5883 64.9297 76.6275 69.6559 73.1417 73.1417C69.6559 76.6275 64.9297 78.5882 60 78.5938Z" fill="white"/>
<path d="M34.8438 70.9375H33.75V52.2256C34.7287 52.036 35.6394 51.5897 36.3889 50.9325C37.1385 50.2752 37.6998 49.4306 38.0156 48.485L38.0725 48.3144C38.1056 48.2122 38.1233 48.1057 38.125 47.9983C38.125 47.9873 38.1305 47.9797 38.1305 47.9688V37.0312C38.1305 36.7412 38.0152 36.463 37.8101 36.2579C37.605 36.0527 37.3268 35.9375 37.0367 35.9375C36.7466 35.9375 36.4684 36.0527 36.2633 36.2579C36.0582 36.463 35.943 36.7412 35.943 37.0312V46.875H33.75V35.9375C33.75 35.6474 33.6348 35.3692 33.4296 35.1641C33.2245 34.959 32.9463 34.8438 32.6562 34.8438C32.3662 34.8438 32.088 34.959 31.8829 35.1641C31.6777 35.3692 31.5625 35.6474 31.5625 35.9375V46.875H29.375V37.0312C29.375 36.7412 29.2598 36.463 29.0546 36.2579C28.8495 36.0527 28.5713 35.9375 28.2812 35.9375C27.9912 35.9375 27.713 36.0527 27.5079 36.2579C27.3027 36.463 27.1875 36.7412 27.1875 37.0312V47.9688C27.1875 47.9786 27.1875 47.9873 27.1875 47.9983C27.1888 48.1056 27.2062 48.2122 27.2389 48.3144L27.2958 48.485C27.6117 49.4307 28.1732 50.2754 28.9229 50.9327C29.6727 51.59 30.5836 52.0362 31.5625 52.2256V70.9375H30.4688C30.1787 70.9375 29.9005 71.0527 29.6954 71.2579C29.4902 71.463 29.375 71.7412 29.375 72.0312V89.5312C29.375 90.4015 29.7207 91.2361 30.3361 91.8514C30.9514 92.4668 31.786 92.8125 32.6562 92.8125C33.5265 92.8125 34.3611 92.4668 34.9764 91.8514C35.5918 91.2361 35.9375 90.4015 35.9375 89.5312V72.0312C35.9375 71.7412 35.8223 71.463 35.6171 71.2579C35.412 71.0527 35.1338 70.9375 34.8438 70.9375ZM35.1828 49.0625C34.8592 49.4083 34.4679 49.6839 34.0333 49.8721C33.5986 50.0602 33.1299 50.157 32.6562 50.1562C32.1826 50.157 31.7139 50.0602 31.2792 49.8721C30.8446 49.6839 30.4533 49.4083 30.1297 49.0625H35.1828ZM33.75 89.5312C33.75 89.8213 33.6348 90.0995 33.4296 90.3046C33.2245 90.5098 32.9463 90.625 32.6562 90.625C32.3662 90.625 32.088 90.5098 31.8829 90.3046C31.6777 90.0995 31.5625 89.8213 31.5625 89.5312V73.125H33.75V89.5312Z" fill="white"/>
<path d="M86.25 39.2188C85.9599 39.2188 85.6817 39.334 85.4766 39.5391C85.2715 39.7442 85.1562 40.0224 85.1562 40.3125V90.0781C85.1562 90.8033 85.4443 91.4988 85.9571 92.0116C86.4699 92.5244 87.1654 92.8125 87.8906 92.8125C88.6158 92.8125 89.3113 92.5244 89.8241 92.0116C90.3369 91.4988 90.625 90.8033 90.625 90.0781V73.125H91.7188C92.0088 73.125 92.287 73.0098 92.4921 72.8046C92.6973 72.5995 92.8125 72.3213 92.8125 72.0312V45.7812C92.8108 44.0413 92.1188 42.3731 90.8885 41.1428C89.6581 39.9124 87.99 39.2205 86.25 39.2188ZM88.4375 90.0781C88.4375 90.2232 88.3799 90.3623 88.2773 90.4648C88.1748 90.5674 88.0357 90.625 87.8906 90.625C87.7456 90.625 87.6065 90.5674 87.5039 90.4648C87.4014 90.3623 87.3438 90.2232 87.3438 90.0781V73.125H88.4375V90.0781ZM90.625 70.9375H87.3438V41.5452C88.2824 41.7885 89.1138 42.3364 89.7076 43.103C90.3014 43.8696 90.6241 44.8116 90.625 45.7812V70.9375Z" fill="white"/>
</svg>
