<svg width="120" height="120" viewBox="0 0 120 120" fill="none" xmlns="http://www.w3.org/2000/svg">
<circle cx="60" cy="60" r="60" fill="#BFE142"/>
<path d="M85.1564 51.25H74.2189C72.848 51.254 71.5289 51.7738 70.5237 52.706C69.5186 53.6382 68.901 54.9146 68.7939 56.2812L62.1877 64.5391V64.375C62.2012 61.9908 61.3496 59.6826 59.7909 57.8785C58.2321 56.0744 56.072 54.8968 53.7111 54.5641L50.747 53.5797L50.1564 52.9891V49.8719C51.0147 49.2718 51.741 48.5022 52.2903 47.6105C52.8396 46.7188 53.2003 45.724 53.3502 44.6875H54.5314C55.111 44.6858 55.6664 44.4547 56.0763 44.0449C56.4862 43.635 56.7172 43.0796 56.7189 42.5V41.4062C56.7172 40.8266 56.4862 40.2712 56.0763 39.8614C55.6664 39.4515 55.111 39.2205 54.5314 39.2188H53.4377V38.9125C54.4481 38.2111 55.274 37.276 55.8453 36.1867C56.4166 35.0974 56.7163 33.8862 56.7189 32.6562V28.2812C56.7189 27.9912 56.6037 27.713 56.3986 27.5079C56.1934 27.3027 55.9152 27.1875 55.6252 27.1875H42.5002C40.4703 27.1898 38.5243 27.9972 37.0889 29.4325C35.6536 30.8678 34.8462 32.8139 34.8439 34.8438V37.0312C34.8472 37.5004 34.9503 37.9635 35.1464 38.3897C35.3425 38.8159 35.6272 39.1955 35.9814 39.5031C35.6382 39.6888 35.3514 39.9635 35.1513 40.2984C34.9511 40.6334 34.8449 41.0161 34.8439 41.4062V42.5C34.8456 43.0796 35.0767 43.635 35.4865 44.0449C35.8964 44.4547 36.4518 44.6858 37.0314 44.6875H38.2127C38.3625 45.724 38.7232 46.7188 39.2725 47.6105C39.8219 48.5022 40.5481 49.2718 41.4064 49.8719V52.9891L40.8158 53.5797L37.8517 54.5641C35.4908 54.8968 33.3307 56.0744 31.7719 57.8785C30.2132 59.6826 29.3616 61.9908 29.3752 64.375V91.7188C29.3752 92.0088 29.4904 92.287 29.6955 92.4921C29.9006 92.6973 30.1788 92.8125 30.4689 92.8125H58.9064C59.7759 92.8099 60.6089 92.4634 61.2237 91.8486C61.8385 91.2338 62.1851 90.4007 62.1877 89.5312V80.0156L76.997 57.8125H80.7814C82.2318 57.8125 83.6228 57.2363 84.6484 56.2107C85.674 55.1852 86.2502 53.7942 86.2502 52.3438C86.2502 52.0537 86.1349 51.7755 85.9298 51.5704C85.7247 51.3652 85.4465 51.25 85.1564 51.25ZM54.5314 41.4062V42.5H53.4377V41.4062H54.5314ZM38.1252 42.5H37.0314V41.4062H38.1252V42.5ZM38.7267 36.0578C38.5454 36.1475 38.3929 36.2863 38.2865 36.4584C38.1802 36.6305 38.1243 36.829 38.1252 37.0312V38.125C37.8351 38.125 37.5569 38.0098 37.3518 37.8046C37.1466 37.5995 37.0314 37.3213 37.0314 37.0312V34.8438C37.0314 33.3933 37.6076 32.0023 38.6332 30.9768C39.6588 29.9512 41.0498 29.375 42.5002 29.375H54.5314V32.6562C54.5288 33.9979 54.0301 35.2913 53.1314 36.2875C52.9877 36.1371 52.8065 36.0276 52.6064 35.9703L43.8564 33.7828C43.6026 33.7187 43.3341 33.7498 43.1017 33.8703L38.7267 36.0578ZM40.3127 43.5938V37.7094L43.7252 36.0031L51.2502 37.8844V43.5938C51.2502 45.0442 50.674 46.4352 49.6484 47.4607C48.6228 48.4863 47.2318 49.0625 45.7814 49.0625C44.331 49.0625 42.94 48.4863 41.9144 47.4607C40.8888 46.4352 40.3127 45.0442 40.3127 43.5938ZM48.2861 54.2141L48.6142 54.5312L45.7814 57.3641L42.9486 54.5312L43.2767 54.2141C43.4782 54.0055 43.5917 53.7275 43.5939 53.4375V50.9328C45.0216 51.3557 46.5412 51.3557 47.9689 50.9328V53.4375C47.9711 53.7275 48.0846 54.0055 48.2861 54.2141ZM41.1111 55.7781L45.0048 59.6828C45.2114 59.8877 45.4905 60.0027 45.7814 60.0027C46.0723 60.0027 46.3515 59.8877 46.558 59.6828L50.4517 55.7781L51.6877 56.1938L47.4111 62.1875H44.1517L39.8752 56.1938L41.1111 55.7781ZM47.772 68.75L48.9861 76.0344L45.7814 79.2391L42.5767 76.0344L43.7908 68.75H47.772ZM44.1517 66.5625L44.5236 64.375H47.0392L47.4111 66.5625H44.1517ZM35.9377 90.625H31.5627V77.5H35.9377V90.625ZM60.1861 79.0859C60.0645 79.2629 59.9996 79.4728 60.0002 79.6875V89.5312C60.0002 89.8213 59.8849 90.0995 59.6798 90.3046C59.4747 90.5098 59.1965 90.625 58.9064 90.625H38.1252V76.4062C38.1252 76.1162 38.0099 75.838 37.8048 75.6329C37.5997 75.4277 37.3215 75.3125 37.0314 75.3125H31.5627V64.375C31.5502 62.6091 32.1472 60.8929 33.2531 59.516C34.359 58.1392 35.9059 57.1859 37.633 56.8172L42.4455 63.5438L40.3236 76.2313C40.2963 76.4028 40.3099 76.5783 40.3631 76.7436C40.4163 76.9089 40.5077 77.0594 40.6298 77.1828L45.0048 81.5578C45.2122 81.7612 45.491 81.8751 45.7814 81.8751C46.0718 81.8751 46.3506 81.7612 46.558 81.5578L50.933 77.1828C51.0552 77.0594 51.1466 76.9089 51.1998 76.7436C51.253 76.5783 51.2665 76.4028 51.2392 76.2313L49.1173 63.5438L53.9298 56.8172C55.6569 57.1859 57.2039 58.1392 58.3097 59.516C59.4156 60.8929 60.0127 62.6091 60.0002 64.375V67.6562C60.0011 67.8823 60.072 68.1026 60.2032 68.2867C60.3345 68.4708 60.5195 68.6098 60.733 68.6844C60.9465 68.7608 61.1786 68.7681 61.3965 68.7053C61.6144 68.6425 61.807 68.5127 61.947 68.3344L70.3689 57.8125H74.3611L60.1861 79.0859ZM80.7814 55.625H71.1236C71.3518 54.9862 71.7715 54.4334 72.3254 54.0419C72.8794 53.6504 73.5406 53.4394 74.2189 53.4375H83.8767C83.6485 54.0763 83.2288 54.6291 82.6749 55.0206C82.1209 55.4121 81.4597 55.6231 80.7814 55.625Z" fill="white"/>
<path d="M89.5312 42.6969V42.5C89.5274 40.1734 88.7835 37.9083 87.4071 36.0325C86.0307 34.1566 84.0932 32.7673 81.8749 32.0656V30.4688C81.8749 29.5985 81.5292 28.7639 80.9139 28.1486C80.2985 27.5332 79.4639 27.1875 78.5937 27.1875C77.7243 27.1901 76.8912 27.5366 76.2764 28.1514C75.6616 28.7662 75.315 29.5993 75.3124 30.4688V32.0656C73.0942 32.7673 71.1567 34.1566 69.7803 36.0325C68.4039 37.9083 67.66 40.1734 67.6562 42.5V42.6969C66.9328 42.9594 66.3247 43.4677 65.9382 44.1331C65.5516 44.7985 65.4112 45.5786 65.5415 46.337C65.6718 47.0954 66.0646 47.7839 66.651 48.2821C67.2375 48.7803 67.9804 49.0565 68.7499 49.0625H88.4374C89.2069 49.0565 89.9499 48.7803 90.5363 48.2821C91.1228 47.7839 91.5155 47.0954 91.6459 46.337C91.7762 45.5786 91.6358 44.7985 91.2492 44.1331C90.8627 43.4677 90.2546 42.9594 89.5312 42.6969ZM77.4999 30.4688C77.4999 30.1787 77.6152 29.9005 77.8203 29.6954C78.0254 29.4902 78.3036 29.375 78.5937 29.375C78.7397 29.3737 78.8843 29.4033 79.0181 29.4617C79.152 29.5201 79.2719 29.6061 79.3703 29.7141C79.4726 29.8109 79.5537 29.9281 79.6083 30.058C79.6629 30.1879 79.6899 30.3278 79.6874 30.4688V31.6172C79.3265 31.5844 78.9656 31.5625 78.5937 31.5625C78.2218 31.5625 77.8609 31.5844 77.4999 31.6172V30.4688ZM78.5937 33.75C80.9134 33.7532 83.1371 34.6761 84.7774 36.3163C86.4176 37.9566 87.3405 40.1803 87.3437 42.5H73.1249C73.1249 41.0496 73.7011 39.6586 74.7267 38.633C75.7523 37.6074 77.1433 37.0312 78.5937 37.0312V34.8438C76.5638 34.8461 74.6178 35.6534 73.1825 37.0888C71.7471 38.5241 70.9398 40.4701 70.9374 42.5H69.8437C69.8469 40.1803 70.7698 37.9566 72.41 36.3163C74.0503 34.6761 76.274 33.7532 78.5937 33.75ZM88.4374 46.875H68.7499C68.4599 46.875 68.1817 46.7598 67.9765 46.5546C67.7714 46.3495 67.6562 46.0713 67.6562 45.7812C67.6562 45.4912 67.7714 45.213 67.9765 45.0079C68.1817 44.8027 68.4599 44.6875 68.7499 44.6875H88.4374C88.7275 44.6875 89.0057 44.8027 89.2108 45.0079C89.416 45.213 89.5312 45.4912 89.5312 45.7812C89.5312 46.0713 89.416 46.3495 89.2108 46.5546C89.0057 46.7598 88.7275 46.875 88.4374 46.875Z" fill="white"/>
<path d="M44.6875 39.2188H42.5V41.4062H44.6875V39.2188Z" fill="white"/>
<path d="M49.0625 39.2188H46.875V41.4062H49.0625V39.2188Z" fill="white"/>
</svg>
