<svg width="120" height="120" viewBox="0 0 120 120" fill="none" xmlns="http://www.w3.org/2000/svg">
<circle cx="60" cy="60" r="60" fill="#BFE142"/>
<g clip-path="url(#clip0_1063_447)">
<path d="M34.0332 40.8065H36.2913V43.0645H34.0332V40.8065Z" fill="white"/>
<path d="M30.6445 56.6129H32.9026V58.871H30.6445V56.6129Z" fill="white"/>
<path d="M62.2578 56.6129H64.5159V58.871H62.2578V56.6129Z" fill="white"/>
<path d="M47.5806 35.1613C43.8445 35.1613 40.8064 38.1994 40.8064 41.9355C40.8064 44.5188 39.0555 46.7653 36.5488 47.3998L37.1034 49.589C40.6135 48.7009 43.0645 45.553 43.0645 41.9355C43.0645 39.4448 45.0899 37.4193 47.5806 37.4193V35.1613Z" fill="white"/>
<path d="M38.5488 32.9032H40.8069V35.1613H38.5488V32.9032Z" fill="white"/>
<path d="M52.0977 30.6452H54.3557V32.9032H52.0977V30.6452Z" fill="white"/>
<path d="M55.4844 40.8065H57.7424V43.0645H55.4844V40.8065Z" fill="white"/>
<path d="M64.5156 44.1935H66.7737V46.4516H64.5156V44.1935Z" fill="white"/>
<path d="M46.4512 46.4516H48.7092V48.7097H46.4512V46.4516Z" fill="white"/>
<path d="M40.8066 54.3548H43.0647V56.6129H40.8066V54.3548Z" fill="white"/>
<path d="M92.7127 79.1936C93.4294 78.2475 93.871 77.0821 93.871 75.8064C93.871 74.0352 93.022 72.3741 91.6129 71.314C91.6129 71.3063 91.6129 71.2969 91.6129 71.2903C91.6129 68.1778 89.0803 65.6452 85.9677 65.6452C85.2698 65.6452 84.5868 65.7714 83.9456 66.0178C82.9285 64.4064 81.1445 63.3871 79.1936 63.3871C77.2425 63.3871 75.4586 64.4064 74.4415 66.0178C73.8003 65.7714 73.1173 65.6452 72.4194 65.6452C70.5698 65.6452 68.8889 66.5327 67.8398 68.0118C66.4748 67.7362 65.117 67.9892 63.9516 68.6778C63.09 68.1684 62.1296 67.9032 61.129 67.9032C58.2386 67.9032 55.8499 70.0858 55.5225 72.889C54.7104 73.2347 54.0114 73.765 53.4562 74.4145C53.3173 73.1195 53.2258 71.8201 53.2258 70.5147C53.2258 68.6701 53.3691 66.8194 53.647 64.9913C54.6779 66.0834 56.1261 66.7742 57.7419 66.7742C59.581 66.7742 61.2624 65.8899 62.3121 64.4158C62.6837 64.4836 63.0392 64.5161 63.3871 64.5161C67.1232 64.5161 70.1613 61.478 70.1613 57.7419C70.1613 57.0523 70.0516 56.3725 69.8338 55.711C72.8438 53.6106 74.6774 50.1469 74.6774 46.4516C74.6774 40.2259 69.6128 35.1613 63.3871 35.1613C63.3678 35.1613 63.3496 35.1613 63.3309 35.1613C62.7625 29.4643 57.9404 25 52.0968 25C48.9346 25 45.9097 26.3512 43.7828 28.6683C42.6075 27.7614 41.1653 27.2581 39.6774 27.2581C35.9414 27.2581 32.9032 30.2962 32.9032 34.0323C32.9032 34.1442 32.9054 34.2544 32.912 34.3674C29.6225 35.3487 27.2581 38.4277 27.2581 41.9355C27.2581 43.1185 27.5199 44.2713 28.0221 45.3259C26.1538 46.5657 25 48.6678 25 50.9677C25 52.1624 25.3186 53.3184 25.9267 54.3548C25.3186 55.3913 25 56.5473 25 57.7419C25 61.478 28.0381 64.5161 31.7742 64.5161C32.1221 64.5161 32.4776 64.4836 32.8492 64.4158C33.8988 65.8899 35.5803 66.7742 37.4194 66.7742C40.1741 66.7742 42.4675 64.7874 42.9598 62.1721C43.0546 62.1577 43.1494 62.1473 43.2431 62.1296L43.4824 63.3287C43.9543 65.6904 44.1935 68.1089 44.1935 70.5158C44.1935 73.9233 43.7194 77.3104 42.7834 80.5844L42.054 83.1374C41.9752 83.4147 41.9355 83.702 41.9355 83.9886C41.9355 85.7026 43.3308 87.0968 45.0447 87.0968H49.8387C49.8387 91.4536 53.384 95 57.7419 95H87.0968C91.4547 95 95 91.4536 95 87.0968V79.1936H92.7127ZM56.9078 74.7959L57.786 74.5727L57.7579 73.6658C57.7557 73.6002 57.7486 73.5418 57.7419 73.5484C57.7419 71.6812 59.2618 70.1613 61.129 70.1613C61.8909 70.1613 62.6214 70.4254 63.2427 70.9281L63.9516 71.5004L64.6606 70.9281C65.6 70.1679 66.7538 69.9331 67.9666 70.3917L68.9319 70.7561L69.3812 69.8272C69.9557 68.6403 71.12 67.9032 72.4194 67.9032C73.0991 67.9032 73.754 68.1044 74.3152 68.4837L75.5286 69.3057L76.0132 67.9214C76.4895 66.5608 77.7674 65.6452 79.1936 65.6452C80.6197 65.6452 81.8976 66.5608 82.3739 67.9214L82.8585 69.3057L84.0719 68.4837C84.6331 68.1044 85.288 67.9032 85.9677 67.9032C87.8349 67.9032 89.3548 69.4231 89.3548 71.2903C89.3548 71.4033 89.3355 71.5103 89.3212 71.62L89.2049 72.4938L89.8708 72.8687C90.9458 73.4729 91.6129 74.5986 91.6129 75.8064C91.6129 77.6737 90.093 79.1936 88.2258 79.1936H54.5737C54.4452 78.8314 54.3548 78.4554 54.3548 78.0645C54.3548 76.5248 55.405 75.1796 56.9078 74.7959ZM45.0447 84.8387C44.575 84.8387 44.1935 84.4572 44.1935 83.9875C44.1935 83.9081 44.2046 83.8282 44.2261 83.7527L44.9543 81.203C45.9483 77.7282 46.4516 74.1333 46.4516 70.5147C46.4516 67.9584 46.1975 65.3921 45.6964 62.8838L45.381 61.3049C47.3695 60.1251 48.7097 57.9608 48.7097 55.4839H46.4516C46.4516 57.9746 44.4262 60 41.9355 60C39.4448 60 37.4194 57.9746 37.4194 55.4839H35.1613C35.1613 58.775 37.5219 61.5232 40.6383 62.1307C40.2083 63.5078 38.937 64.5161 37.4194 64.5161C36.1354 64.5161 34.9783 63.7901 34.3983 62.623L33.9749 61.7691L33.0625 62.0436C32.5747 62.1892 32.1651 62.2581 31.7742 62.2581C29.2835 62.2581 27.2581 60.2326 27.2581 57.7419C27.2581 56.7744 27.5789 55.8372 28.1837 55.0357L28.6975 54.3548L28.1837 53.674C27.5789 52.8724 27.2581 51.9352 27.2581 50.9677C27.2581 49.1491 28.3408 47.515 30.0161 46.8061L31.2907 46.2675L30.5073 45.1263C29.8596 44.1836 29.5161 43.0805 29.5161 41.9355C29.5161 39.1614 31.5868 36.7633 34.3338 36.3592L35.5295 36.1828L35.2721 35.002C35.1977 34.6591 35.1613 34.3404 35.1613 34.0323C35.1613 31.5416 37.1867 29.5161 39.6774 29.5161C40.9713 29.5161 42.1692 30.0636 43.0463 31.0597L43.9769 32.1127L44.8055 30.9781C46.5045 28.6479 49.2312 27.2581 52.0968 27.2581C57.0771 27.2581 61.129 31.31 61.1301 36.2385L61.1257 37.6156L62.3777 37.4794C62.7096 37.4431 63.0464 37.4194 63.3871 37.4194C68.3674 37.4194 72.4194 41.4713 72.4194 46.4516C72.4194 49.6739 70.6762 52.6762 67.8696 54.2848L66.9434 54.8157L67.4225 55.7705C67.7406 56.4073 67.9032 57.071 67.9032 57.7419C67.9032 60.2326 65.8778 62.2581 63.3871 62.2581C62.9962 62.2581 62.5866 62.1892 62.0987 62.0436L61.1864 61.7702L60.763 62.6241C60.183 63.7901 59.0259 64.5161 57.7419 64.5161C55.8747 64.5161 54.3548 62.9962 54.3548 61.129C54.3548 59.2618 55.8747 57.7419 57.6438 57.7364L58.7739 57.7805L58.9614 56.8466C59.0325 56.4922 59.1576 56.1399 59.344 55.7716L59.8285 54.8157L58.8991 54.2815C56.4029 52.8465 54.7253 50.2957 54.41 47.4555L52.1657 47.7047C52.5146 50.8514 54.1988 53.7137 56.7463 55.5721C54.1729 56.0324 52.212 58.2453 52.115 60.9256L51.723 62.8838C51.2219 65.3921 50.9677 67.9595 50.9677 70.5147C50.9677 74.1322 51.4711 77.7282 52.465 81.203L53.1922 83.7494C53.2148 83.8282 53.2258 83.9081 53.2258 83.9875C53.2258 84.4572 52.8443 84.8387 52.3746 84.8387H45.0447ZM92.7419 87.0968C92.7419 90.2093 90.2093 92.7419 87.0968 92.7419H57.7419C54.6294 92.7419 52.0968 90.2093 52.0968 87.0968H52.3746C54.0886 87.0968 55.4839 85.7026 55.4839 83.9875C55.4839 83.7009 55.4442 83.4136 55.3642 83.1325L54.8846 81.4516H92.7419V87.0968Z" fill="white"/>
<path d="M70.0591 76.1609C71.5911 77.0667 73.4936 77.1885 75.1398 76.4476C75.8608 76.7718 76.6189 76.9355 77.3978 76.9355V74.6774C76.8151 74.6774 76.2462 74.5181 75.7076 74.2044L75.1398 73.8736L74.5714 74.2044C73.3288 74.9305 71.864 74.7959 70.7692 73.9106L70.0602 73.3383L69.3513 73.9106C68.4174 74.6675 67.2498 74.9046 66.0463 74.447L65.248 76.5595C66.908 77.1863 68.6296 77.0055 70.0591 76.1609Z" fill="white"/>
<path d="M84.8379 74.6774H87.096V76.9355H84.8379V74.6774Z" fill="white"/>
<path d="M78.0645 67.9032H80.3225V70.1613H78.0645V67.9032Z" fill="white"/>
<path d="M60 72.4194H62.2581V74.6774H60V72.4194Z" fill="white"/>
</g>
<defs>
<clipPath id="clip0_1063_447">
<rect width="70" height="70" fill="white" transform="translate(25 25)"/>
</clipPath>
</defs>
</svg>
