<svg width="120" height="120" viewBox="0 0 120 120" fill="none" xmlns="http://www.w3.org/2000/svg">
<circle cx="60" cy="60" r="60" fill="#BFE142"/>
<g clip-path="url(#clip0_1063_462)">
<path d="M56.9692 56.4332C56.7355 55.9646 56.6125 55.4409 56.6125 54.9182V50.3387C57.8579 50.3387 58.8706 49.326 58.8706 48.0806V44.6935C58.8706 42.2458 57.7515 40.0545 55.9984 38.6035C57.0326 38.023 57.7416 36.9292 57.7416 35.6613C57.7416 33.7941 56.2217 32.2742 54.3545 32.2742V27.7581C54.3545 26.5127 53.3418 25.5 52.0964 25.5H36.2899C35.0446 25.5 34.0319 26.5127 34.0319 27.7581V32.2742C32.1647 32.2742 30.6448 33.7941 30.6448 35.6613C30.6448 36.9292 31.3537 38.023 32.3879 38.6035C30.6349 40.0545 29.5158 42.2458 29.5158 44.6935V48.0806C29.5158 49.326 30.5285 50.3387 31.7738 50.3387V54.9182C31.7738 55.4409 31.6509 55.9657 31.4171 56.4332L28.9827 61.3016C28.5935 62.0794 28.3867 62.9532 28.3867 63.8237V89.8548C28.3867 92.9674 30.9193 95.5 34.0319 95.5H54.3545C57.467 95.5 59.9996 92.9674 59.9996 89.8548V63.8237C59.9996 62.9532 59.7929 62.0794 59.4048 61.2994L56.9692 56.4332ZM36.2899 27.7581H52.0964V32.2742H36.2899V27.7581ZM34.0319 36.7903C33.4089 36.7903 32.9028 36.2842 32.9028 35.6613C32.9028 35.0383 33.4089 34.5323 34.0319 34.5323H54.3545C54.9774 34.5323 55.4835 35.0383 55.4835 35.6613C55.4835 36.2842 54.9774 36.7903 54.3545 36.7903H34.0319ZM54.3545 93.2419H34.0319C32.1647 93.2419 30.6448 91.722 30.6448 89.8548V63.8871H49.8383V61.629H31.3427L33.437 57.4415C33.8251 56.6625 34.0319 55.7887 34.0319 54.9182V50.3387H36.2899V48.0806H31.7738V44.6935C31.7738 41.581 34.3064 39.0484 37.419 39.0484H50.9674C54.0799 39.0484 56.6125 41.581 56.6125 44.6935V48.0806H38.548V50.3387H54.3545V54.9182C54.3545 55.7887 54.5612 56.6625 54.9493 57.4426L57.0447 61.629H52.0964V63.8871H57.7416V89.8548C57.7416 91.722 56.2217 93.2419 54.3545 93.2419Z" fill="white"/>
<path d="M44.1927 67.2742C37.967 67.2742 32.9023 72.3389 32.9023 78.5645C32.9023 84.7902 37.967 89.8548 44.1927 89.8548C50.4183 89.8548 55.483 84.7902 55.483 78.5645C55.483 72.3389 50.4183 67.2742 44.1927 67.2742ZM44.1927 87.5968C39.2124 87.5968 35.1604 83.5448 35.1604 78.5645C35.1604 73.5842 39.2124 69.5323 44.1927 69.5323C49.173 69.5323 53.2249 73.5842 53.2249 78.5645C53.2249 83.5448 49.173 87.5968 44.1927 87.5968Z" fill="white"/>
<path d="M44.1939 72.1663L40.5796 76.9862C39.9986 77.763 39.6777 78.725 39.6777 79.6936C39.6777 82.1843 41.7032 84.2097 44.1939 84.2097C46.6846 84.2097 48.71 82.1843 48.71 79.6936C48.71 78.725 48.3891 77.763 47.807 76.9851L44.1939 72.1663ZM44.1939 81.9516C42.9485 81.9516 41.9358 80.9389 41.9358 79.6936C41.9358 79.2079 42.0973 78.7283 42.3862 78.3385L44.1939 75.9305L46.0004 78.3374C46.2904 78.7283 46.4519 79.2079 46.4519 79.6936C46.4519 80.9389 45.4392 81.9516 44.1939 81.9516Z" fill="white"/>
<path d="M62.1855 57.1129L64.254 90.2071C64.4392 93.1752 66.9139 95.5 69.8876 95.5H83.9828C86.9564 95.5 89.4312 93.1752 89.6164 90.2071L91.6848 57.1129H62.1855ZM89.2823 59.371L88.5144 71.6547C87.774 71.5577 87.0287 71.4122 86.2778 71.2368L86.5209 67.3442L84.2673 67.2031L84.0517 70.6486C83.4856 70.4865 82.9166 70.3167 82.34 70.1442C79.4865 69.2886 76.5355 68.4032 73.5481 68.4032C69.6913 68.4032 66.8323 69.3978 65.2601 70.1205L64.588 59.371H89.2823ZM87.3627 90.0671C87.2525 91.8477 85.7662 93.2419 83.9828 93.2419H69.8876C68.1041 93.2419 66.6179 91.8477 66.5076 90.0671L65.4133 72.5693C66.2706 72.0864 69.1687 70.6613 73.5481 70.6613C76.2058 70.6613 78.8702 71.4607 81.6917 72.3074C82.4243 72.5274 83.1642 72.7479 83.9078 72.9569L82.856 89.7859L85.1096 89.9271L86.1345 73.5186C86.8765 73.6823 87.6224 73.8169 88.3721 73.9095L87.3627 90.0671Z" fill="white"/>
<path d="M84.4062 64.9478L84.5474 62.6897L86.801 62.8308L86.6593 65.0889L84.4062 64.9478Z" fill="white"/>
</g>
<defs>
<clipPath id="clip0_1063_462">
<rect width="70" height="70" fill="white" transform="translate(25 25.5)"/>
</clipPath>
</defs>
</svg>
