<svg width="120" height="120" viewBox="0 0 120 120" fill="none" xmlns="http://www.w3.org/2000/svg">
<circle cx="60" cy="60" r="60" fill="#BFE142"/>
<path d="M50.1562 80.7812C50.1562 79.3834 48.4916 76.8208 47.7752 75.785C47.6691 75.647 47.5328 75.5353 47.3767 75.4584C47.2207 75.3815 47.049 75.3415 46.875 75.3415C46.701 75.3415 46.5293 75.3815 46.3733 75.4584C46.2172 75.5353 46.0809 75.647 45.9748 75.785C45.2584 76.8208 43.5938 79.3834 43.5938 80.7812C43.5938 81.6515 43.9395 82.4861 44.5548 83.1014C45.1702 83.7168 46.0048 84.0625 46.875 84.0625C47.7452 84.0625 48.5798 83.7168 49.1952 83.1014C49.8105 82.4861 50.1562 81.6515 50.1562 80.7812ZM46.875 81.875C46.5849 81.875 46.3067 81.7598 46.1016 81.5546C45.8965 81.3495 45.7812 81.0713 45.7812 80.7812C46.0184 79.9452 46.3876 79.1525 46.875 78.433C47.3623 79.1525 47.7315 79.9452 47.9688 80.7812C47.9688 81.0713 47.8535 81.3495 47.6484 81.5546C47.4433 81.7598 47.1651 81.875 46.875 81.875Z" fill="white"/>
<path d="M58.9062 80.7812C58.9062 79.3834 57.2416 76.8208 56.5252 75.785C56.4191 75.647 56.2828 75.5353 56.1267 75.4584C55.9707 75.3815 55.799 75.3415 55.625 75.3415C55.451 75.3415 55.2793 75.3815 55.1233 75.4584C54.9672 75.5353 54.8309 75.647 54.7248 75.785C54.0084 76.8208 52.3438 79.3834 52.3438 80.7812C52.3438 81.6515 52.6895 82.4861 53.3048 83.1014C53.9202 83.7168 54.7548 84.0625 55.625 84.0625C56.4952 84.0625 57.3298 83.7168 57.9452 83.1014C58.5605 82.4861 58.9062 81.6515 58.9062 80.7812ZM55.625 81.875C55.3349 81.875 55.0567 81.7598 54.8516 81.5546C54.6465 81.3495 54.5312 81.0713 54.5312 80.7812C54.7684 79.9452 55.1376 79.1525 55.625 78.433C56.1123 79.1525 56.4815 79.9452 56.7188 80.7812C56.7188 81.0713 56.6035 81.3495 56.3984 81.5546C56.1933 81.7598 55.9151 81.875 55.625 81.875Z" fill="white"/>
<path d="M67.6562 80.7812C67.6562 79.3834 65.9916 76.8208 65.2752 75.785C65.1691 75.647 65.0328 75.5353 64.8767 75.4584C64.7207 75.3815 64.549 75.3415 64.375 75.3415C64.201 75.3415 64.0293 75.3815 63.8733 75.4584C63.7172 75.5353 63.5809 75.647 63.4748 75.785C62.7584 76.8208 61.0938 79.3834 61.0938 80.7812C61.0938 81.6515 61.4395 82.4861 62.0548 83.1014C62.6702 83.7168 63.5048 84.0625 64.375 84.0625C65.2452 84.0625 66.0798 83.7168 66.6952 83.1014C67.3105 82.4861 67.6562 81.6515 67.6562 80.7812ZM64.375 81.875C64.0849 81.875 63.8067 81.7598 63.6016 81.5546C63.3965 81.3495 63.2812 81.0713 63.2812 80.7812C63.5184 79.9452 63.8876 79.1525 64.375 78.433C64.8623 79.1525 65.2315 79.9452 65.4688 80.7812C65.4688 81.0713 65.3535 81.3495 65.1484 81.5546C64.9433 81.7598 64.6651 81.875 64.375 81.875Z" fill="white"/>
<path d="M76.4062 80.7812C76.4062 79.3834 74.7416 76.8208 74.0252 75.785C73.9191 75.647 73.7828 75.5353 73.6267 75.4584C73.4707 75.3815 73.299 75.3415 73.125 75.3415C72.951 75.3415 72.7793 75.3815 72.6233 75.4584C72.4672 75.5353 72.3309 75.647 72.2248 75.785C71.5084 76.8208 69.8438 79.3834 69.8438 80.7812C69.8438 81.6515 70.1895 82.4861 70.8048 83.1014C71.4202 83.7168 72.2548 84.0625 73.125 84.0625C73.9952 84.0625 74.8298 83.7168 75.4452 83.1014C76.0605 82.4861 76.4062 81.6515 76.4062 80.7812ZM73.125 81.875C72.8349 81.875 72.5567 81.7598 72.3516 81.5546C72.1465 81.3495 72.0312 81.0713 72.0312 80.7812C72.2694 79.9456 72.6386 79.153 73.125 78.433C73.6126 79.1523 73.9818 79.9451 74.2188 80.7812C74.2188 81.0713 74.1035 81.3495 73.8984 81.5546C73.6933 81.7598 73.4151 81.875 73.125 81.875Z" fill="white"/>
<path d="M81.875 79.6875H78.5938V81.875H80.7812V86.25H77.5V85.1562C77.5 84.8662 77.3848 84.588 77.1796 84.3829C76.9745 84.1777 76.6963 84.0625 76.4062 84.0625H43.5938C43.3037 84.0625 43.0255 84.1777 42.8204 84.3829C42.6152 84.588 42.5 84.8662 42.5 85.1562V86.25H39.2188V81.875H41.4062V79.6875H38.125C37.8349 79.6875 37.5567 79.8027 37.3516 80.0079C37.1465 80.213 37.0312 80.4912 37.0312 80.7812V87.3438C37.0312 87.6338 37.1465 87.912 37.3516 88.1171C37.5567 88.3223 37.8349 88.4375 38.125 88.4375H42.5V91.7188C42.5 92.0088 42.6152 92.287 42.8204 92.4921C43.0255 92.6973 43.3037 92.8125 43.5938 92.8125H76.4062C76.6963 92.8125 76.9745 92.6973 77.1796 92.4921C77.3848 92.287 77.5 92.0088 77.5 91.7188V88.4375H81.875C82.1651 88.4375 82.4433 88.3223 82.6484 88.1171C82.8535 87.912 82.9688 87.6338 82.9688 87.3438V80.7812C82.9688 80.4912 82.8535 80.213 82.6484 80.0079C82.4433 79.8027 82.1651 79.6875 81.875 79.6875ZM75.3125 90.625H44.6875V86.25H75.3125V90.625Z" fill="white"/>
<path d="M81.875 65.4688V62.1875H79.6875V65.4688C79.6875 65.7588 79.5723 66.037 79.3671 66.2421C79.162 66.4473 78.8838 66.5625 78.5938 66.5625H76.4062V68.75H78.5938C79.464 68.75 80.2986 68.4043 80.9139 67.7889C81.5293 67.1736 81.875 66.339 81.875 65.4688Z" fill="white"/>
<path d="M89.5312 44.6875H86.25V41.4062C86.2492 41.183 86.1796 40.9654 86.0506 40.7832C85.9216 40.6009 85.7395 40.4629 85.5292 40.388V40.3792L65.3988 33.0041C65.4411 32.8928 65.4647 32.7752 65.4688 32.6562V30.4688C65.4688 29.5985 65.123 28.7639 64.5077 28.1486C63.8923 27.5332 63.0577 27.1875 62.1875 27.1875H57.8125C56.9423 27.1875 56.1077 27.5332 55.4923 28.1486C54.877 28.7639 54.5312 29.5985 54.5312 30.4688V32.6562C54.5353 32.7752 54.5589 32.8928 54.6012 33.0041L34.4675 40.3792V40.388C34.2578 40.4635 34.0764 40.6017 33.9481 40.7839C33.8197 40.9661 33.7505 41.1834 33.75 41.4062V44.6875H30.4688C29.5985 44.6875 28.7639 45.0332 28.1486 45.6486C27.5332 46.2639 27.1875 47.0985 27.1875 47.9688V50.1562C27.1875 51.0265 27.5332 51.8611 28.1486 52.4764C28.7639 53.0918 29.5985 53.4375 30.4688 53.4375H33.75V67.6562C33.7517 69.1061 34.3285 70.4961 35.3537 71.5213C36.3789 72.5465 37.7689 73.1233 39.2188 73.125H80.7812C82.2311 73.1233 83.6211 72.5465 84.6463 71.5213C85.6715 70.4961 86.2483 69.1061 86.25 67.6562V53.4375H89.5312C90.4015 53.4375 91.2361 53.0918 91.8514 52.4764C92.4668 51.8611 92.8125 51.0265 92.8125 50.1562V47.9688C92.8125 47.0985 92.4668 46.2639 91.8514 45.6486C91.2361 45.0332 90.4015 44.6875 89.5312 44.6875ZM56.3294 34.7016C56.3739 34.6849 56.4174 34.6656 56.4595 34.6436C57.5527 34.074 58.7673 33.7765 60 33.7765C61.2327 33.7765 62.4473 34.074 63.5405 34.6436C63.5826 34.6656 63.6261 34.6849 63.6706 34.7016L78.9908 40.3125H41.0092L56.3294 34.7016ZM84.0625 42.5V44.6875H35.9375V42.5H84.0625ZM56.7188 30.4688C56.7188 30.1787 56.834 29.9005 57.0391 29.6954C57.2442 29.4902 57.5224 29.375 57.8125 29.375H62.1875C62.4776 29.375 62.7558 29.4902 62.9609 29.6954C63.166 29.9005 63.2812 30.1787 63.2812 30.4688V31.5625H56.7188V30.4688ZM30.4688 51.25C30.1787 51.25 29.9005 51.1348 29.6954 50.9296C29.4902 50.7245 29.375 50.4463 29.375 50.1562V47.9688C29.375 47.6787 29.4902 47.4005 29.6954 47.1954C29.9005 46.9902 30.1787 46.875 30.4688 46.875H33.75V51.25H30.4688ZM84.0625 67.6562C84.0625 68.5265 83.7168 69.3611 83.1014 69.9764C82.4861 70.5918 81.6515 70.9375 80.7812 70.9375H39.2188C38.3485 70.9375 37.5139 70.5918 36.8986 69.9764C36.2832 69.3611 35.9375 68.5265 35.9375 67.6562V46.875H84.0625V67.6562ZM90.625 50.1562C90.625 50.4463 90.5098 50.7245 90.3046 50.9296C90.0995 51.1348 89.8213 51.25 89.5312 51.25H86.25V46.875H89.5312C89.8213 46.875 90.0995 46.9902 90.3046 47.1954C90.5098 47.4005 90.625 47.6787 90.625 47.9688V50.1562Z" fill="white"/>
</svg>
