<svg width="133" height="141" viewBox="0 0 133 141" fill="none" xmlns="http://www.w3.org/2000/svg">
<path d="M0.128906 32.9071L5.4774 25.7196L8.13026 27.6876L4.89975 31.9659L7.5312 33.9339L10.3766 30.1048L13.0295 32.0729L10.1199 35.9661L14.5912 39.2818L12.4518 42.1269L0.128906 32.9071Z" fill="white"/>
<path d="M14.8496 16.6282L17.7164 14.489L24.8406 24.4789L29.9537 20.7781L31.9005 23.4521L23.9206 29.2278L14.8496 16.6282Z" fill="white"/>
<path d="M34.1035 5.3976L42.8322 2.57391L43.8377 5.71847L38.4892 7.45119L39.3236 10.0396L44.0517 8.52076L45.0572 11.6653L40.3291 13.2055L41.2063 15.8581L46.7687 14.0612L47.7956 17.2271L38.8529 20.2005L34.1035 5.3976Z" fill="white"/>
<path d="M64.2901 8.1785L69.2534 16.1789H65.103L61.8939 10.9166L58.5137 15.9222H54.3633L59.6904 8.15711L55.0479 0.391983H59.1983L62.2149 5.41899L65.3384 0.520333H69.4888L64.2901 8.1785Z" fill="white"/>
<path d="M81.6199 3.66489L84.9573 4.77725L80.0795 19.4518L76.7207 18.3395L81.6199 3.66489Z" fill="white"/>
<path d="M97.8343 10.8311C98.5617 11.2803 100.359 12.4354 101.749 13.398C104.766 15.5372 105.023 17.6763 103.889 19.516C103.535 20.0993 103.03 20.5762 102.428 20.8963C101.825 21.2163 101.147 21.3677 100.466 21.3343C100.869 21.9652 101.065 22.7064 101.027 23.4542C100.989 24.2021 100.718 24.9193 100.252 25.5057C98.3906 28.1582 95.4382 27.9657 92.6998 26.0404C91.4803 25.2062 89.8116 23.9013 89.127 23.3879L97.8343 10.8311ZM95.481 20.3717L93.8122 22.7461C94.0767 23.0473 94.3786 23.3133 94.7108 23.5376C95.8447 24.3077 96.7432 24.2222 97.3423 23.3665C97.9413 22.5108 97.5348 21.8049 96.5935 21.2273L95.481 20.3717ZM98.8398 15.5372L97.2353 17.8261L98.198 18.5106C98.3511 18.6481 98.5324 18.7505 98.7292 18.8106C98.926 18.8707 99.1336 18.8871 99.3374 18.8585C99.5412 18.83 99.7363 18.7573 99.9091 18.6455C100.082 18.5336 100.228 18.3854 100.337 18.2111C100.446 18.0332 100.516 17.8349 100.545 17.6285C100.573 17.4221 100.559 17.212 100.503 17.0114C100.447 16.8107 100.35 16.6238 100.218 16.4622C100.087 16.3006 99.9235 16.1677 99.7384 16.072C99.4587 15.8737 99.1656 15.695 98.8612 15.5372H98.8398Z" fill="white"/>
<path d="M115.977 26.3613L118.116 29.185L108.382 36.4581L112.126 41.5921L109.473 43.5815L103.59 35.688L115.977 26.3613Z" fill="white"/>
<path d="M127.487 45.4212L130.418 54.1061L127.294 55.1757L125.476 49.8278L122.908 50.7049L124.492 55.411L121.368 56.5662L119.785 51.8386L117.132 52.7585L119.015 58.2989L115.87 59.3471L112.811 50.384L127.487 45.4212Z" fill="white"/>
<path d="M132.493 81.3162V81.6157C132.343 82.4072 131.851 85.1025 131.637 86.1079C130.375 92.1617 126.395 93.8944 122.373 93.0601C118.351 92.2259 115.206 88.5465 116.404 82.7708C116.575 81.9793 117.025 79.9899 117.324 78.4925V78.1289L132.493 81.3162ZM128.535 84.0971L119.977 82.3216C119.849 82.7494 119.785 83.0489 119.678 83.5623C119.466 84.1733 119.392 84.8232 119.459 85.4662C119.525 86.1092 119.732 86.7298 120.065 87.2843C120.397 87.8389 120.847 88.3139 121.382 88.6761C121.918 89.0383 122.526 89.2788 123.165 89.3808C123.78 89.53 124.42 89.541 125.039 89.4131C125.659 89.2851 126.243 89.0214 126.748 88.6409C127.253 88.2603 127.668 87.7725 127.962 87.2124C128.256 86.6523 128.423 86.034 128.449 85.402C128.503 84.969 128.532 84.5333 128.535 84.0971Z" fill="white"/>
<path d="M124.215 106.794L122.461 109.853L109.025 102.237L110.758 99.1568L124.215 106.794Z" fill="white"/>
<path d="M114.158 121.276L107.612 127.693L105.28 125.34L109.323 121.383L107.419 119.457L103.868 122.88L101.536 120.527L105.087 117.04L103.119 115.029L98.9473 119.136L96.6367 116.762L103.333 110.195L114.158 121.276Z" fill="white"/>
<path d="M97.8367 134.923L86.3055 140.528L84.8507 137.555L89.0225 135.415L83.7168 124.591L86.9045 123.03L92.2101 133.982L96.382 131.843L97.8367 134.923Z" fill="white"/>
</svg>
