<svg width="211" height="22" viewBox="0 0 211 22" fill="none" xmlns="http://www.w3.org/2000/svg">
<g clip-path="url(#clip0_239_1652)">
<path d="M19.1502 14.9399C18.5294 15.0097 17.8621 15.0008 17.4098 14.9763C16.8354 14.9423 15.7473 14.5471 15.7056 15.1184C15.6836 15.3984 16.0925 15.7249 16.2752 15.9028C16.5312 16.1548 17.5574 16.4043 17.1818 16.8986C16.8276 17.2264 16.2836 16.3088 16.024 16.1154C15.5996 15.7996 15.2639 15.5554 14.8872 15.1536C14.4276 14.6617 12.8884 13.956 13.6455 13.5489C14.4479 13.1769 14.5967 14.1095 16.6996 14.0492C18.1722 14.0074 19.6978 13.879 20.7847 13.5489C21.3532 13.3775 21.8079 13.1364 22.2055 12.9459C22.4401 12.8307 23.1805 12.4701 23.3424 12.377C23.4877 12.2898 24.0645 11.9352 24.196 11.8409C24.3377 11.7382 24.521 11.6928 24.6561 11.5913C25.021 11.3161 25.3758 10.9269 25.7222 10.5955C26.0813 10.2527 26.4136 9.88262 26.7162 9.48869C26.9567 9.17527 27.2299 8.80513 27.3918 8.4917C27.6507 7.98664 27.7591 7.29651 28.2079 6.95981C28.5079 6.73593 29.4412 6.35803 29.5912 6.24759C30.034 5.927 30.3204 5.78252 30.6573 5.35806C30.884 5.0715 31.1864 4.68882 31.262 4.39749C31.462 3.64288 30.9549 2.72649 30.7293 2.3665C30.4805 1.96173 29.1763 1.07101 29.0632 1.01071C28.2275 0.599381 26.5406 0.576695 25.6162 1.01071C25.471 1.07937 24.8198 1.47936 24.6912 1.58204C24.468 1.76174 24.4656 2.4065 24.018 2.11815C23.5192 1.69129 24.3889 1.51398 24.5841 1.29727C24.8002 1.05847 25.4162 0.576695 25.5418 0.512816C25.7585 0.405356 27.0246 0.0453661 27.4638 0.0161132C28.0924 -0.0304527 28.6448 0.0334261 29.1323 0.193422C29.7108 0.383267 30.1632 0.607142 30.5156 0.871015C30.6388 0.958177 31.5686 1.97307 31.937 2.22262C32.5138 2.62022 33.6751 2.51515 34.1751 2.93603C34.1959 3.13663 33.9471 3.32408 33.9971 3.57721C34.0287 3.73362 34.2179 3.76168 34.3882 3.93302C34.5715 4.11869 34.8971 4.52166 34.9923 4.68166C35.0566 4.78912 35.4888 5.46313 35.5947 5.71447C35.6584 5.85894 36.0507 6.61116 36.1292 6.81772C36.2751 7.21771 36.3215 7.76456 36.4489 8.27857C36.6899 9.2672 36.784 10.3555 36.6971 11.5561C36.6679 11.977 37.084 13.088 36.2739 12.7686C35.59 12.6402 36.1292 11.8009 36.1292 11.3077C36.1215 9.6857 36.1411 8.14783 35.5596 6.81772C35.2876 6.46788 35.1423 5.65536 34.8287 5.647C34.6156 5.9455 34.659 6.90488 34.6739 7.21293C34.7054 7.96157 34.6483 8.86423 34.4251 9.48989C34.3239 9.76868 34.1191 10.0242 34.0358 10.3084C33.9483 10.5836 33.4555 11.5454 33.3941 11.8415C33.359 12.0176 33.0697 12.7173 32.9334 12.9119C32.7769 13.1262 32.7233 13.8199 32.4334 13.445C32.2906 12.7895 32.0233 12.5543 31.4394 12.8038C30.6668 13.134 29.9204 13.9805 29.7019 14.8336C29.3704 16.1196 30.3412 17.3547 31.084 17.7195C31.4376 17.8932 32.0513 17.8628 32.0793 18.2885C31.6662 18.5111 31.0257 18.4007 30.5549 18.1834C30.3471 18.0891 29.962 17.7906 29.7352 17.5768C29.2031 17.0753 28.9364 16.4646 28.846 15.6181C28.7358 14.5662 29.1656 13.8175 29.5596 13.3387C29.8525 12.9752 30.818 12.3101 31.1561 12.2343C31.6108 12.1304 32.0882 12.3555 32.5781 12.1632C32.865 12.048 32.8757 11.5555 33.0745 11.0952C33.1721 10.8588 33.3287 10.6904 33.3941 10.5239C33.4846 10.2803 33.9471 8.89707 34.0358 8.42185C34.2959 6.961 34.5191 5.03568 33.7834 4.00526C33.0322 3.96884 32.6382 4.31092 32.3638 4.78852C32.237 5.01001 32.2525 5.31209 32.1138 5.50074C31.4394 6.43445 30.412 7.39323 30.3037 7.46069C29.7936 7.77172 29.2799 7.93052 28.9876 8.35021C28.8716 8.52036 28.8763 8.73588 28.7751 8.91915C28.6972 9.06482 28.1406 9.92868 27.9228 10.2015C27.8031 10.3543 27.7442 10.5281 27.6406 10.6654C27.3882 10.9967 26.9859 11.294 26.7162 11.5549C26.6025 11.6659 26.1817 12.0343 26.0781 12.125C25.9674 12.2182 25.465 12.6391 25.2942 12.7674C24.9793 13.0062 24.8734 13.0892 24.4085 13.2653C23.8258 13.8951 22.6728 13.4743 22.9877 14.5841C23.0532 14.8151 23.6484 15.3208 23.1645 15.439C22.9299 15.4963 22.7228 15.0539 22.5948 14.9399C22.4835 14.8408 22.0567 14.5542 21.8484 14.513C21.424 14.4289 21.1151 14.6796 20.7847 14.7614C20.3847 14.8599 19.7038 14.8772 19.1502 14.9399Z" fill="#231F20"/>
<path d="M36.3355 14.7757C36.37 14.3853 37.1516 14.9423 37.2396 15.1011C37.3212 15.2479 37.4081 15.4091 37.2337 15.5094C37.0617 15.6085 37.0236 15.5876 37.0236 15.5876C36.9736 15.5011 36.5272 15.5339 36.4492 15.4605C36.3057 15.3238 36.3129 15.0157 36.3355 14.7757ZM37.1408 16.4897C37.1408 16.4897 37.2027 16.2951 37.4349 16.3022C37.6712 16.3094 37.5325 16.6091 37.551 16.6545C37.551 16.6545 37.5188 16.8646 37.4301 16.9715C37.3516 17.0658 37.1004 17.1255 37.0152 17.0097C36.92 16.8837 37.123 16.6366 37.1408 16.4897ZM33.0742 14.7256C33.0302 14.8062 32.3909 16.0014 32.5778 16.83C32.6254 17.0431 32.7141 17.9064 33.0022 18.1583C33.1558 18.3076 33.623 18.6198 33.7831 18.7147C33.9296 18.8031 34.1867 18.8759 34.3879 18.9678C34.745 19.1243 35.3504 19.3117 35.9153 19.144C36.126 19.0819 36.8956 18.7965 36.9801 18.7523C37.1313 18.6729 37.7069 18.0562 37.8688 17.6121C38.0396 17.1374 38.4045 16.6419 38.223 15.904C38.1849 15.7488 37.6992 14.7088 37.3349 14.3721C37.2105 14.2521 37.1129 14.0808 37.0164 14.0151C36.8063 13.8766 36.5676 13.8766 36.4129 13.6593C36.3075 13.516 35.7736 13.4611 35.4891 13.5495C35.1236 13.6683 34.7635 13.5799 34.4611 13.6928C34.2426 13.7769 34.0063 13.9274 33.8194 14.0498C33.595 14.1972 33.22 14.4736 33.0742 14.7256ZM22.5207 1.77726C22.5207 1.21549 23.0796 1.40056 23.0695 1.65726C23.1755 2.01367 22.5344 2.08233 22.5207 1.77726ZM32.2212 13.7298C32.6784 13.8534 32.2796 14.5459 32.0099 14.2647C31.6308 14.1124 31.932 13.5692 32.2212 13.7298ZM14.0726 20.677C14.6214 20.1242 15.2511 19.5774 15.8107 19.1099C16.0476 18.9117 16.2166 18.6926 16.4166 18.5386C16.5398 18.4419 16.716 18.4234 16.8428 18.3267C16.9452 18.2437 17.438 17.4974 17.7303 17.2562C18.4428 17.0742 18.9237 16.6336 19.6124 16.2234C19.8053 16.1094 20.0321 16.0879 20.1797 16.0103C20.3565 15.9172 20.5761 15.5882 20.7505 15.796C20.3344 15.8766 20.4118 16.2264 20.2154 16.5094C20.1118 16.6622 19.9053 16.6724 19.7553 16.7942C19.4702 17.0228 19.2856 17.3327 19.0797 17.5774C18.3487 18.0592 17.6904 18.6908 17.0196 19.2156C16.7874 19.3989 16.5767 19.6293 16.344 19.7869C16.2196 19.8699 15.7874 20.1941 15.6714 20.286C15.5142 20.4048 15.2803 20.4806 15.1017 20.6066C14.9166 20.7361 14.3797 21.08 14.2839 21.1397C14.1119 21.2472 14.0041 21.4639 13.8226 21.5666C13.6898 21.6424 13.3506 22.2006 13.0053 21.9248C12.1696 21.4394 13.6321 21.1152 14.0726 20.677ZM29.4516 3.3617C29.7986 3.43274 30.2123 3.80586 29.9623 4.17899C29.8974 4.27092 29.7183 4.30018 29.529 4.1169C29.2534 3.85541 28.8986 4.48644 28.6689 4.18675C28.6498 4.1169 28.6302 4.04824 28.6326 3.96765C28.6522 3.58079 28.9558 3.26259 29.4516 3.3617ZM0.326266 10.1651C0.48817 9.93047 0.572693 9.5472 0.784596 9.38243C0.92269 9.27497 1.28102 9.14243 1.56792 9.06065C1.94113 8.95796 2.46792 8.90901 2.95363 8.84931C3.44767 8.78543 3.89886 8.65469 4.26611 8.56335C4.73932 8.44335 5.20063 8.38962 5.1917 7.9556C5.18456 7.60218 4.83694 7.54964 4.65897 7.31562C4.57921 7.20935 4.53814 7.02548 4.44647 6.88996C4.20897 6.54012 3.806 5.89655 3.94766 5.35687C4.01731 5.09657 4.5929 4.40764 4.87325 4.35749C5.39289 4.26675 6.03931 4.7133 6.53931 4.85658C6.94228 4.973 7.34466 5.02314 7.7143 5.10732C8.77679 5.3497 9.8744 5.52582 11.1613 5.60522C12.6678 5.69954 14.0529 5.91984 15.0327 5.21359C14.4511 4.90792 13.6071 4.92106 12.7202 4.82195C12.1458 4.75927 10.7161 4.67151 10.6988 4.14317C10.6803 3.72228 11.5565 3.4202 11.8345 3.25483C12.0113 3.14618 12.119 2.97842 12.2601 2.89783C12.4922 2.76589 12.7381 2.7635 13.0398 2.64828C13.2875 2.55634 13.4839 2.38381 13.7506 2.29128C14.1386 2.15815 14.7047 2.11636 15.2803 1.97308C16.3035 1.71517 17.4428 1.63756 18.6904 1.72114C18.9946 1.74323 19.6898 1.79338 19.8618 1.93547C20.2237 2.24113 19.8565 2.62082 19.9666 3.03991C20.0815 3.47154 21.0535 3.63214 21.7082 3.93064C21.916 4.02854 22.007 4.14615 22.1707 4.25242C22.5975 4.53122 22.8939 4.67688 23.2683 5.06971C23.7148 5.53358 23.8755 5.87864 24.088 6.4237C24.1695 6.62549 24.2725 6.85056 24.3005 7.06607C24.432 8.0547 23.8963 8.89229 23.4844 9.38183C23.0868 9.85406 22.7058 9.84033 21.9939 9.98719C21.5999 10.0666 21.2445 10.1585 20.8922 10.2003C18.9529 10.4337 17.194 10.2409 15.4559 10.2737C15.7059 10.3937 15.8547 10.6982 16.1315 10.8427C16.6035 11.0898 17.4428 11.1084 18.1577 11.1633C18.91 11.2194 19.669 11.288 20.2862 11.3054C19.2065 12.2229 16.9791 12.2194 15.0327 12.1238C14.3083 12.0898 13.647 12.0689 13.0053 11.983C12.319 11.8886 11.8208 11.6367 11.2649 11.5203C10.9589 11.454 10.6988 11.4666 10.4488 11.3782C10.1673 11.2767 9.92321 11.0761 9.66488 10.9866C9.41845 10.897 9.19226 10.8713 8.99107 10.7722C8.79584 10.6731 8.65596 10.5102 8.45834 10.414C8.32025 10.349 8.16311 10.343 8.03275 10.2743C7.59109 10.0296 7.04585 9.37168 6.47026 9.38243C6.18098 9.3884 5.95181 9.62242 5.69051 9.70302C5.17861 9.85943 4.66016 9.84868 4.12683 10.06C3.60243 10.2666 3.09648 10.3036 2.56434 10.4146C1.71316 10.5931 0.931023 11.1794 0.0417449 11.0212C-0.108254 10.6296 0.18341 10.3705 0.326266 10.1651ZM19.466 17.7977C19.5452 17.9064 19.6856 17.9362 19.8219 17.9876C19.8898 17.9256 19.9735 17.8837 20.0636 17.8664C20.4344 17.8126 20.9213 18.1523 20.9148 18.4729C20.91 18.7595 20.5749 18.8622 20.4172 19.1129C20.2993 19.3039 20.3672 19.4532 20.1696 19.578C20.0323 19.5701 19.8993 19.5275 19.7829 19.4541C19.6665 19.3807 19.5706 19.279 19.5041 19.1583C19.3975 19.1213 19.2856 19.0789 19.1684 19.0741C18.9452 19.0646 18.8523 19.1977 18.644 19.0866C18.3618 18.4974 18.8029 17.8974 19.466 17.7977ZM118.368 13.0444C118.195 13.7334 118.203 14.1124 117.641 14.4623C117.121 14.7781 116.971 14.9811 116.383 15.0778C116.012 15.1405 115.248 15.319 114.869 15.3566C113.097 15.5315 112.344 15.156 111.346 15.107C110.073 15.0462 109.55 14.4844 109.08 12.9011C108.769 11.848 108.93 11.208 108.806 10.1526C108.703 9.31915 108.656 8.195 108.779 7.33651C108.841 6.9007 108.802 6.43505 109.08 5.80999C109.27 5.38672 109.5 5.03687 109.955 4.87927C111.11 4.47689 111.469 4.43152 112.701 4.49241L113.518 4.48764C114.045 4.47689 114.646 4.52943 115.168 4.56823C115.946 4.62912 116.535 4.76882 117.269 5.05419C117.902 5.29776 117.734 5.72939 118.011 6.37535C118.316 7.08219 118.304 7.98306 118.326 8.75498C118.357 10.1651 118.72 11.6427 118.368 13.0444ZM122.788 7.63143C122.29 6.84697 121.755 6.12043 120.982 5.5479C120.744 5.37418 119.661 4.71449 119.45 4.6142C119.082 4.44167 117.367 3.74915 116.824 3.62676C115.788 3.39214 111.677 3.51393 111.077 3.57184C110.094 3.66975 108.144 4.46256 107.797 4.6142C107.585 4.70614 106.439 5.38015 106.21 5.5491C106.022 5.68342 105.127 6.48997 105.006 6.64519C104.823 6.87264 104.044 8.04694 103.968 8.29052C103.648 9.27676 103.705 10.814 103.968 11.6379C104.104 12.0737 104.886 13.1889 105.006 13.3405C105.216 13.5996 105.725 13.9877 106.1 14.2724C106.597 14.648 107.263 15.1327 107.688 15.3148C107.982 15.4372 109.294 16.0037 109.658 16.1393C110.817 16.5697 113.223 16.3399 113.309 16.3446C113.529 16.3607 115.385 16.4557 116.004 16.4121C117.207 16.3315 119.25 15.4223 119.503 15.3148C119.734 15.2181 120.901 14.4587 121.144 14.2724C121.319 14.1381 122.124 13.4223 122.24 13.285C122.415 13.0796 123.201 11.7573 123.278 11.528C123.748 10.1024 123.31 8.46424 122.788 7.63143ZM182.431 11.8839C182.259 11.9525 181.93 11.9447 181.741 11.9447C180.501 11.9447 179.257 11.9298 178.017 11.9215C177.683 11.9215 176.913 11.9459 177.148 11.4809C177.297 11.1776 177.334 10.8678 177.474 10.5549C177.687 10.0851 177.927 9.6863 178.056 9.18602C178.156 8.80692 178.328 8.42007 178.483 8.06187C178.615 7.7574 178.71 7.50785 178.771 7.18368C178.851 6.75802 179.098 6.32341 179.278 5.93118C179.402 5.66193 179.784 4.48166 180.05 5.01478C180.141 5.19209 180.319 5.68044 180.41 5.8673C180.556 6.1646 180.654 6.50071 180.778 6.81414C181.072 7.57651 181.421 8.31917 181.689 9.09467C181.794 9.39676 181.83 9.73824 181.96 10.0367C182.074 10.297 182.132 10.5663 182.231 10.8284C182.315 11.0289 182.386 11.2833 182.415 11.4988C182.439 11.6522 182.58 11.8259 182.431 11.8839ZM189.914 15.9172C189.94 15.1793 189.554 15.7202 189.194 15.1476C189.07 14.9459 189.056 14.6092 188.926 14.3244C188.74 13.9525 188.223 12.8749 188.156 12.6802C188.004 12.2218 187.63 11.8976 187.444 11.4737C187.29 11.1101 186.741 9.87137 186.625 9.6069C186.467 9.25825 185.734 7.70844 185.581 7.24816C185.346 6.50071 184.961 6.06132 184.765 5.49119C184.693 5.27567 184.602 4.97479 184.518 4.76703C184.194 3.94855 183.658 3.80049 182.797 3.84586C181.171 3.93302 178.125 3.699 176.83 3.7384C176.633 3.74079 175.841 3.779 176.066 4.32704C176.141 5.05478 178.818 4.24525 178.69 4.77837C178.519 5.52343 178.042 7.27502 177.218 8.66603C177.218 8.66603 176.519 9.87734 176.389 10.4105C176.389 10.4105 175.787 11.6427 175.439 12.3435C175.281 12.5823 175.199 12.8534 175.093 13.1507C175.023 13.3479 174.969 13.5503 174.93 13.756C174.893 13.968 174.715 14.0265 174.622 14.2223C174.47 14.5524 174.26 14.7888 174.052 15.1799C173.956 15.3536 173.728 15.4378 173.549 15.5321C172.84 15.5858 172.255 15.7375 172.236 15.9727C172.216 16.6372 173.189 16.39 173.67 16.3643C174.587 16.3046 176.065 16.5381 176.065 16.0294C176.065 15.9231 176.118 15.7369 175.974 15.6646C175.816 15.5852 175.718 15.5996 175.406 15.5805C175.322 15.5733 175.082 15.5596 175.157 15.3381C175.231 15.1238 175.298 14.9369 175.372 14.7423C175.525 14.362 175.79 13.9107 175.937 13.5322C176.09 13.1465 176.419 12.8456 176.748 12.8325C177.767 12.8044 178.318 12.8241 179.455 12.845C180.464 12.8623 181.544 12.6588 182.371 12.7728C182.734 12.8253 182.917 12.8611 183.116 13.3572C183.296 13.805 183.507 14.3298 183.681 14.8462C183.737 15.005 183.737 15.0079 183.786 15.162C183.994 15.6867 182.236 15.1023 182.521 16.0294C182.7 16.5249 183.326 16.1924 183.778 16.1763C185.4 16.11 187.59 16.0587 189.303 16.1393C189.892 16.1643 189.914 16.1715 189.914 15.9172ZM134.123 14.9703C133.83 14.9924 133.5 15.0121 133.323 15.0121C132.545 15.0121 131.769 15.0832 131.004 15.0503C130.406 15.0175 127.644 15.1972 127.434 15.0306C126.994 14.5435 127.711 13.7769 127.923 13.3375C128.231 12.688 128.394 12.054 128.65 11.3728C128.923 10.6462 129.188 9.91621 129.444 9.18303C129.75 8.30126 130.173 7.40039 130.528 6.55265C130.679 6.19326 130.844 5.70492 130.956 5.36224C131.046 5.0709 131.427 4.64405 131.644 5.52104C131.979 6.89593 132.381 8.2947 132.863 9.62779C133.194 10.5173 134.007 13.2086 134.157 13.6468C134.226 13.8545 134.373 14.1435 134.466 14.3793C134.53 14.5357 134.735 14.9238 134.123 14.9703ZM142.764 15.445C142.321 15.276 141.299 15.3948 140.76 15.2348C140.347 15.1112 140.538 15.125 140.225 14.6026C140.057 14.3178 139.575 13.2128 139.405 12.8444C139.301 12.6205 138.586 11.3716 138.418 10.9812C138.237 10.5406 137.834 9.35914 137.764 9.1693C137.606 8.72513 136.707 7.12756 136.518 6.78489C136.432 6.62967 135.906 5.55387 135.671 4.61599C135.497 3.91034 134.698 3.80885 134.517 3.81243C132.292 3.90079 129.867 3.82616 127.829 3.79034C127.643 3.79034 127.078 3.79392 127.065 4.26495C127.023 5.47626 128.253 4.79449 128.782 4.86315C129.197 4.88882 129.944 4.82375 130.038 5.02076C130.129 5.21896 129.728 6.20639 129.487 6.59265C129.244 6.97951 128.809 7.64456 128.595 8.31619C128.385 8.98304 127.344 11.2803 127.209 11.7883C127.073 12.2988 126.537 13.6235 126.511 13.7554L126.056 15.1626C125.784 15.4515 125.068 15.3118 124.694 15.3769C124.434 15.4211 123.876 15.273 123.579 15.356C123.078 15.4957 122.894 16.2294 122.729 16.7064C122.541 17.2413 122.365 17.5679 122.434 18.1864C122.421 18.3893 122.798 18.5607 123.028 18.5607C123.301 18.5607 124.144 18.541 124.109 18.2831C124.101 18.0592 124.022 17.664 124.08 17.2777C124.472 15.9751 124.341 16.3554 125.038 16.4115C125.545 16.4497 127.106 16.3685 127.806 16.3822C130.307 16.4324 132.347 16.227 135.133 16.1888C136.514 16.1703 138.464 16.1154 139.819 16.2073C140.902 16.2831 141.494 15.9494 141.558 16.4676C141.694 16.6975 142.135 17.9517 142.135 18.1852C142.115 18.4031 142.685 18.5899 143.134 18.5595C143.817 18.5117 143.795 18.261 143.763 18.064C143.556 17.1762 143.152 15.6539 142.764 15.445ZM171.01 12.1041C170.328 11.9525 170.467 12.9555 169.396 13.6677C169.187 13.8044 168.32 14.3662 168.031 14.4921C167.728 14.6253 166.482 15.0462 166.197 15.1566C165.705 15.3572 164.894 15.4061 164.226 15.5041C163.581 15.5984 161.78 15.6032 161.359 15.5041C160.842 15.3864 159.949 15.3912 159.62 15.2581C159.155 15.0772 158.46 14.556 158.389 13.9256C158.202 12.4134 158.361 11.2755 158.361 10.0009C158.361 8.66603 158.003 7.05533 158.444 6.05416C158.696 5.4691 159.172 4.70136 159.764 4.45182C161.5 3.70915 166.037 4.8333 166.276 4.33898C166.631 3.43871 164.672 3.57184 163.704 3.57184C162.627 3.57184 161.392 3.36886 160.476 3.46199C159.36 3.57482 158.545 3.67393 157.502 4.06854C157.098 4.22018 156.619 4.45779 156.264 4.6142C156.048 4.70972 154.634 5.67626 154.13 6.14968C153.537 6.71265 152.701 7.61292 152.433 8.40036C152.139 9.27258 152.161 11.0051 152.433 11.6385C152.773 12.4229 154.661 14.7053 156.097 15.3148C156.328 15.4151 158.239 16.1661 158.739 16.2581C160.53 16.5751 164.655 16.8049 165.705 16.433C165.973 16.3363 167.516 15.8664 168.012 15.5047C168.513 15.1453 168.993 14.9238 169.337 14.8527C170.075 14.6999 169.944 14.9847 170.653 15.0951C171.279 15.2038 171.594 13.3871 171.625 12.4414C171.636 12.1 171.24 12.1382 171.01 12.1041ZM145.608 8.62842C144.148 9.11676 144.429 11.2242 145.743 11.4606C148.257 11.9191 148.238 7.75023 145.608 8.62842ZM96.3457 10.6564C96.2534 10.9818 95.6308 11.8725 94.616 11.9065C94.2427 11.9191 93.6023 11.974 93.2148 11.9447C92.5636 11.8994 92.6463 11.8958 91.9499 11.8994C91.2279 11.9018 91.0445 11.4188 91.0535 10.1364C91.0535 9.6266 91.0469 8.20873 91.0445 7.70904C91.0267 5.91685 90.6582 4.87091 92.0928 4.87091C92.5928 4.87091 93.2088 4.82673 93.7207 4.88165C94.2517 4.93538 95.6909 4.70196 96.1171 5.29896C96.4856 5.8076 96.8564 6.65176 96.8564 8.13709C96.8588 9.43974 96.5725 9.88689 96.3457 10.6564ZM100.074 5.16105C99.3445 4.62674 99.1629 4.55928 98.2088 4.28406C97.9022 4.19451 97.5558 4.04645 97.2272 3.95631C95.5427 3.50259 92.7725 3.74079 90.8832 3.84526C88.3987 3.98377 85.8761 3.67751 83.9333 3.7378C83.6214 3.74377 82.5036 3.56288 82.3708 4.24824C82.2208 5.82014 85.2285 4.51868 85.6648 5.06075C85.7892 5.2112 85.7762 5.42194 85.7922 5.81954C85.8404 6.90966 85.7369 8.51558 85.7369 10.1561C85.7369 11.7382 85.8809 13.3978 85.7369 14.602C85.7101 14.8318 85.5785 15.2885 85.5202 15.3679C84.9345 16.1327 83.1375 15.0133 83.0595 15.9709C83.1375 16.821 84.516 16.3548 85.2869 16.3345C87.6005 16.2706 90.2862 16.3172 92.1892 16.4187C92.5981 16.4419 93.5898 16.5518 93.5094 15.9196C93.3898 15.165 91.4993 16.2587 91.0463 15.2599C90.8285 14.7829 90.8285 13.6754 91.1029 13.2265C91.4493 12.6576 93.0749 12.8313 93.8904 12.8438C94.4439 12.8546 95.1915 12.9501 95.7505 12.9537C98.4921 12.9686 99.7409 11.9239 99.9641 11.8039C100.133 11.7095 101.027 10.989 101.171 10.8152C101.303 10.6499 101.846 9.75794 101.932 9.55257C102.191 8.94184 102.222 8.12873 102.043 7.46666C101.774 6.47146 100.78 5.68402 100.074 5.16105ZM167.922 5.3706C168.402 5.55507 168.848 5.7867 169.227 6.14849C169.847 6.5228 169.941 8.25888 171.174 7.69591C171.447 7.60158 171.168 5.10135 170.597 4.99867C169.894 4.87986 169.482 5.18194 168.778 4.87986C168.542 4.77837 168.211 4.49062 167.944 4.35152C167.444 4.09242 166.984 4.99867 167.922 5.3706ZM61.4888 3.48647C61.0412 3.3814 60.1412 3.79094 59.452 3.79094C55.4538 3.78736 49.3491 4.03451 45.9408 3.7384C45.6824 3.71631 45.3408 3.66019 45.2104 4.10556C44.9723 5.44283 47.2854 4.16943 47.7509 4.82613C47.8753 5.00822 47.8866 5.33119 47.9074 5.65656C48.0229 7.08637 47.8265 8.46663 47.8562 9.93585C47.8866 11.4624 47.983 12.7531 47.9074 14.2175C47.889 14.6032 47.7765 15.196 47.6902 15.3148C47.2068 16.0061 45.2259 15.1411 45.2259 15.9727C45.0771 16.6527 46.2396 16.3106 46.8425 16.2885C48.9717 16.2002 51.699 16.2897 53.8181 16.3339C54.4401 16.3446 55.6978 16.63 55.6145 15.9536C55.6978 15.0987 53.6621 16.153 53.1645 15.3148C52.9044 14.8868 52.9984 13.8808 52.9984 13.0074C52.9984 10.1579 52.7907 7.24159 53.0669 5.11568C53.2092 4.66793 55.0937 4.65957 56.2431 4.65957C57.2538 4.65957 58.8984 4.53719 59.6752 4.67211C60.0877 4.73957 59.9996 4.94852 60.0496 5.31567C60.1275 5.88222 60.1436 6.84518 61.2829 6.75563C61.7609 6.73354 61.5002 5.58969 61.6412 5.21776C61.9829 4.30973 61.9954 3.61363 61.4888 3.48647ZM201.346 14.9703C201.055 14.9924 200.729 15.0121 200.543 15.0121C199.773 15.0121 198.995 15.0832 198.228 15.0503C197.635 15.0175 194.867 15.1972 194.659 15.0306C194.216 14.5435 194.94 13.7769 195.144 13.3375C195.454 12.688 195.617 12.054 195.874 11.3728C196.158 10.623 196.401 9.93644 196.669 9.18303C196.974 8.30126 197.395 7.40039 197.754 6.55265C197.904 6.19326 198.067 5.70492 198.176 5.36224C198.267 5.0709 198.651 4.64405 198.868 5.52104C199.206 6.89593 199.604 8.2947 200.086 9.62779C200.409 10.5173 201.229 13.2086 201.381 13.6468C201.448 13.8545 201.597 14.1435 201.689 14.3793C201.753 14.5357 201.958 14.9238 201.346 14.9703ZM210.985 18.064C210.779 17.1768 210.377 15.6539 209.987 15.445C209.544 15.276 208.52 15.3948 207.983 15.2348C207.572 15.1112 207.764 15.125 207.447 14.6026C207.28 14.3178 206.801 13.2128 206.632 12.8444C206.524 12.6205 205.807 11.3716 205.647 10.9812C205.464 10.5406 205.057 9.35914 204.989 9.1693C204.829 8.72513 203.933 7.12756 203.748 6.78489C203.658 6.62967 203.131 5.55387 202.897 4.61599C202.723 3.91034 201.953 3.62975 201.773 3.63512C199.544 3.72169 197.094 3.82616 195.051 3.79034C194.869 3.79034 194.301 3.79392 194.29 4.26495C194.249 5.47626 195.475 4.79449 196.007 4.86315C196.424 4.88882 197.172 4.82375 197.266 5.02076C197.354 5.21896 196.953 6.20639 196.712 6.59265C196.471 6.97951 196.031 7.64456 195.823 8.31619C195.611 8.98304 194.575 11.2803 194.433 11.7883C194.298 12.2988 193.761 13.6235 193.736 13.7554L193.279 15.1626C193.008 15.4515 192.294 15.3118 191.919 15.3769C191.656 15.4211 191.102 15.273 190.804 15.356C190.302 15.4957 190.119 16.2294 189.953 16.7064C189.766 17.2413 189.591 17.5667 189.66 18.1864C189.644 18.3893 190.022 18.5607 190.253 18.5607C190.526 18.5607 191.372 18.541 191.332 18.2831C191.326 18.0592 191.249 17.664 191.304 17.2777C191.7 15.9751 191.57 16.3554 192.262 16.4115C192.769 16.4497 194.332 16.3685 195.032 16.3822C197.531 16.4324 199.571 16.227 202.359 16.1888C203.74 16.1703 205.69 16.1154 207.047 16.2073C208.128 16.2831 208.721 15.9494 208.783 16.4676C208.919 16.6975 209.358 17.9517 209.358 18.1852C209.339 18.4031 209.909 18.5899 210.361 18.5595C211.045 18.5117 211.023 18.261 210.985 18.064ZM76.7387 13.0444C76.5661 13.7334 76.5816 14.1124 76.0096 14.4623C75.4935 14.7781 75.3423 14.9811 74.7578 15.0778C74.3834 15.1405 73.6185 15.319 73.2441 15.3566C71.4697 15.5315 70.7144 15.156 69.7215 15.107C68.4436 15.0462 67.9227 14.4844 67.4519 12.9011C67.1394 11.848 67.3055 11.208 67.1757 10.1526C67.0709 9.31915 67.0257 8.195 67.1543 7.33651C67.2138 6.9007 67.1697 6.43505 67.4519 5.80999C67.6441 5.38672 67.8727 5.03687 68.3275 4.87927C69.4852 4.47689 69.8364 4.43152 71.0745 4.49241L71.8905 4.48764C72.4161 4.47689 73.0173 4.52943 73.5417 4.56823C74.3185 4.62912 74.9054 4.76882 75.6393 5.05419C76.2768 5.29776 76.1054 5.72939 76.3846 6.37535C76.6881 7.08219 76.6738 7.98306 76.6976 8.75498C76.7286 10.1651 77.0941 11.6427 76.7387 13.0444ZM79.1173 5.5491C78.8816 5.37418 77.7988 4.71449 77.5893 4.6142C77.2197 4.44167 75.5024 3.74915 74.9584 3.62676C73.9256 3.39214 69.8162 3.51393 69.2138 3.57184C68.2293 3.66975 66.2823 4.46256 65.9334 4.6142C65.7227 4.70614 64.5763 5.38015 64.3495 5.5491C64.1614 5.68342 63.2662 6.48997 63.143 6.64519C62.9603 6.87264 62.1817 8.04694 62.1037 8.29052C61.7853 9.27676 61.8424 10.814 62.1037 11.6379C62.24 12.0737 63.0234 13.1889 63.143 13.3405C63.3525 13.5996 63.8614 13.9877 64.2358 14.2724C64.7335 14.648 65.3983 15.1327 65.8251 15.3148C66.118 15.4372 67.4305 16.0037 67.7935 16.1393C68.9537 16.5697 71.3602 16.3399 71.4459 16.3446C71.6691 16.3607 73.5215 16.4557 74.1423 16.4121C75.3429 16.3315 77.3869 15.4223 77.6435 15.3148C77.8715 15.2181 79.0411 14.4587 79.2804 14.2724C79.4548 14.1381 80.2571 13.4223 80.3804 13.285C80.5512 13.0796 81.3405 11.7573 81.4173 11.528C81.8905 10.103 81.4452 8.46484 80.922 7.63262C80.4321 6.84697 79.8935 6.12043 79.1173 5.5491ZM81.0042 3.6984C80.2446 3.90496 80.9071 5.05657 81.3571 4.58435C81.9881 4.3354 81.4851 3.43393 81.0042 3.6984Z" fill="#231F20"/>
</g>
<defs>
<clipPath id="clip0_239_1652">
<rect width="211" height="22" fill="white"/>
</clipPath>
</defs>
</svg>
