<svg width="257" height="44" viewBox="0 0 257 44" fill="none" xmlns="http://www.w3.org/2000/svg">
<path d="M24.6953 35H17.8047V6.61719H7.67969V35H0.789062V0.875H24.6953V35ZM37.1641 23V35H30.2734V0.875H41.8984C45.2734 0.875 47.9609 1.92188 49.9609 4.01562C51.9766 6.10937 52.9844 8.82812 52.9844 12.1719C52.9844 15.5156 51.9922 18.1562 50.0078 20.0938C48.0234 22.0312 45.2734 23 41.7578 23H37.1641ZM37.1641 17.2578H41.8984C43.2109 17.2578 44.2266 16.8281 44.9453 15.9688C45.6641 15.1094 46.0234 13.8594 46.0234 12.2188C46.0234 10.5156 45.6562 9.16406 44.9219 8.16406C44.1875 7.14844 43.2031 6.63281 41.9688 6.61719H37.1641V17.2578ZM81.625 21.0078C81.625 25.5859 80.5391 29.1406 78.3672 31.6719C76.2109 34.2031 73.2109 35.4688 69.3672 35.4688C65.5391 35.4688 62.5312 34.2188 60.3438 31.7188C58.1562 29.2031 57.0469 25.6875 57.0156 21.1719V15.3359C57.0156 10.6484 58.1016 6.99219 60.2734 4.36719C62.4453 1.72656 65.4609 0.40625 69.3203 0.40625C73.1172 0.40625 76.1094 1.70312 78.2969 4.29688C80.4844 6.875 81.5938 10.5 81.625 15.1719V21.0078ZM74.7109 15.2891C74.7109 12.2109 74.2734 9.92188 73.3984 8.42188C72.5234 6.92188 71.1641 6.17188 69.3203 6.17188C67.4922 6.17188 66.1406 6.89844 65.2656 8.35156C64.3906 9.78906 63.9375 11.9844 63.9062 14.9375V21.0078C63.9062 23.9922 64.3516 26.1953 65.2422 27.6172C66.1328 29.0234 67.5078 29.7266 69.3672 29.7266C71.1641 29.7266 72.5 29.0391 73.375 27.6641C74.25 26.2734 74.6953 24.125 74.7109 21.2188V15.2891ZM86.5703 35V0.875H97.1172C100.68 0.875 103.383 1.67188 105.227 3.26562C107.086 4.84375 108.016 7.16406 108.016 10.2266C108.016 11.9609 107.633 13.4531 106.867 14.7031C106.102 15.9531 105.055 16.8672 103.727 17.4453C105.258 17.8828 106.438 18.7656 107.266 20.0938C108.094 21.4062 108.508 23.0312 108.508 24.9688C108.508 28.2812 107.594 30.7812 105.766 32.4688C103.953 34.1562 101.32 35 97.8672 35H86.5703ZM93.4609 20.1641V29.2812H97.8672C99.1016 29.2812 100.039 28.8984 100.68 28.1328C101.32 27.3672 101.641 26.2812 101.641 24.875C101.641 21.8125 100.531 20.2422 98.3125 20.1641H93.4609ZM93.4609 15.1484H97.0469C99.75 15.1484 101.102 13.75 101.102 10.9531C101.102 9.40625 100.789 8.29688 100.164 7.625C99.5391 6.95312 98.5234 6.61719 97.1172 6.61719H93.4609V15.1484ZM137.547 21.0078C137.547 25.5859 136.461 29.1406 134.289 31.6719C132.133 34.2031 129.133 35.4688 125.289 35.4688C121.461 35.4688 118.453 34.2188 116.266 31.7188C114.078 29.2031 112.969 25.6875 112.938 21.1719V15.3359C112.938 10.6484 114.023 6.99219 116.195 4.36719C118.367 1.72656 121.383 0.40625 125.242 0.40625C129.039 0.40625 132.031 1.70312 134.219 4.29688C136.406 6.875 137.516 10.5 137.547 15.1719V21.0078ZM130.633 15.2891C130.633 12.2109 130.195 9.92188 129.32 8.42188C128.445 6.92188 127.086 6.17188 125.242 6.17188C123.414 6.17188 122.062 6.89844 121.188 8.35156C120.312 9.78906 119.859 11.9844 119.828 14.9375V21.0078C119.828 23.9922 120.273 26.1953 121.164 27.6172C122.055 29.0234 123.43 29.7266 125.289 29.7266C127.086 29.7266 128.422 29.0391 129.297 27.6641C130.172 26.2734 130.617 24.125 130.633 21.2188V15.2891ZM169.023 43.3906H162.695V35H146.547V43.3672H140.031L139.656 29.2812H141.93C142.93 28.3594 143.719 26.875 144.297 24.8281C144.875 22.7812 145.281 20.1016 145.516 16.7891L146.477 0.875H166.094V29.2812H169.633L169.023 43.3906ZM149.336 29.2812H159.227V6.61719H153.039L152.477 16.0156C152.086 21.6562 151.039 26.0781 149.336 29.2812ZM197.125 35H190.258V20.3984H180.086V35H173.195V0.875H180.086V14.6797H190.258V0.875H197.125V35ZM219.391 0.875H226.281V35H219.391V12.4062L209.336 35H202.422V0.875H209.336V23.4922L219.391 0.875ZM241.727 21.0781H238.727V35H231.836V0.875H238.727V14.5156H241.047L246.977 0.875H255.367L247.023 16.7656L256.305 35H248.102L241.727 21.0781Z" fill="black"/>
</svg>
